<svg width="67" height="66" viewBox="0 0 67 66" fill="none" xmlns="http://www.w3.org/2000/svg">
<path d="M2.59544 7.93858C3.78886 8.1297 4.59368 6.54776 3.75566 5.69526C3.45558 5.39001 3.09673 5.34876 2.695 5.30064C2.56985 5.11983 2.54497 3.4437 2.65352 3.29176C3.54201 3.27251 4.09862 2.92189 4.15186 1.99583C4.22999 1.88445 5.82927 1.90783 6.11553 1.96283C6.24828 2.17458 6.24552 2.43376 6.34509 2.65858C6.76617 3.60939 8.3136 3.60939 8.73399 2.65858C8.84393 2.41039 8.82319 1.98551 9.09493 1.89545C9.30512 1.82601 11.367 1.85008 11.479 1.94083C11.6159 3.78883 14.1016 3.88851 14.2399 1.99583C14.2821 1.93051 14.4978 1.8817 14.5842 1.8707C14.9389 1.82808 15.871 1.83633 16.2354 1.86314C17.2732 1.94083 16.7104 2.26808 17.1605 2.85726C17.6507 3.49939 18.654 3.56883 19.2217 2.98995C19.5204 2.68539 19.528 2.34233 19.6462 1.96008C20.4718 1.86176 21.2877 1.83151 22.107 1.96351C22.2903 2.32789 22.2764 2.63039 22.5682 2.95626C23.2147 3.67883 24.4372 3.46227 24.7753 2.57333C24.9488 2.11614 24.7227 1.91745 25.3879 1.86314C25.67 1.83976 27.2513 1.84389 27.4027 1.94289C27.5438 2.25983 27.5604 2.63658 27.7768 2.92464C28.3438 3.67952 29.7536 3.44576 30.0841 2.57333C30.1636 2.36295 30.0993 2.12714 30.2673 1.96351C31.0784 1.81845 31.9164 1.82533 32.7281 1.96008C33.0165 3.85689 35.3438 3.85483 35.5886 1.94151C36.4128 1.79989 37.2619 1.86314 38.0882 1.94151C38.1718 2.15189 38.1767 2.37945 38.2652 2.59051C38.7153 3.66233 40.2399 3.62933 40.7246 2.59464C41.0191 1.96626 40.6831 1.91401 41.5785 1.86451C42.189 1.83083 42.7934 1.88858 43.3991 1.93876C43.4523 3.09789 44.6761 3.85758 45.6656 3.0862C46.0936 2.75276 46.086 2.42895 46.2588 1.96008C47.0906 1.89133 47.9245 1.77239 48.7445 1.98758C48.7895 2.95076 49.512 3.57501 50.4959 3.33576C51.1936 3.16664 51.3229 2.54926 51.5006 1.95939C51.9597 1.89133 53.6399 1.7332 53.958 1.96283C54.0389 2.02126 54.1695 2.56026 54.2532 2.72458C54.7351 3.6692 56.1546 3.56264 56.6262 2.6352C56.7541 2.38358 56.6794 1.98758 56.9795 1.93052C57.5707 1.81914 58.4709 1.96351 59.0884 1.94151C59.3138 2.00889 59.3249 2.46608 59.4168 2.67095C59.8428 3.61695 61.3349 3.6252 61.8154 2.71426C61.944 2.4702 61.9516 2.20551 62.0498 1.95801L63.6221 1.9917C63.7141 2.50045 63.869 2.97345 64.3834 3.20926C64.5576 3.28901 64.9241 3.3007 64.9649 3.42239L64.9041 5.3577C63.6595 5.27864 63.143 6.76089 64.008 7.60789C64.2963 7.88977 64.5881 7.9207 64.9428 8.06439C64.9919 8.13864 64.996 9.49439 64.9773 9.68758C64.9227 10.2445 64.3253 9.90414 63.8849 10.4486C63.1188 11.3953 63.8026 12.5971 64.967 12.6273C65.061 13.2798 64.9303 13.9343 64.9739 14.5998C63.1388 14.7029 63.1388 17.1373 64.9739 17.2405C64.9753 17.9451 65.1143 18.6574 64.8985 19.3435C64.7229 19.369 64.548 19.3277 64.373 19.382C64.0197 19.4913 63.6311 20.0846 63.5855 20.4476C63.479 21.3029 64.2154 21.8838 64.976 22.0365L64.9449 24.0426C64.4899 24.121 64.1718 24.1746 63.8766 24.5644C63.1451 25.531 63.8316 26.6908 64.9663 26.7506C64.9663 27.4155 65.0624 28.0686 64.9442 28.7279C63.1596 28.9905 63.1305 31.3294 64.9732 31.4305C64.9767 32.1248 65.0645 32.7965 64.9449 33.4806C64.6137 33.5796 64.4014 33.55 64.1089 33.7714C63.0455 34.5744 63.7003 36.1364 64.9732 36.1165C64.9677 36.8294 65.0755 37.519 64.9739 38.2285C63.6422 38.168 63.0337 39.8351 64.1435 40.6045C64.3378 40.7392 64.8785 40.8636 64.9407 40.9338C65.2055 41.2328 64.9262 42.5521 64.9746 42.9798C63.1893 42.9866 63.1126 45.5077 64.9117 45.5826L64.976 47.6878C64.3931 47.9146 64.0868 47.7881 63.768 48.4131C63.2799 49.3694 63.9381 50.2748 64.9684 50.3106C65.1198 51.0187 64.9863 51.7096 64.9739 52.4178C63.4486 52.2665 63.0724 54.4205 64.5072 54.8941C64.6385 54.9375 64.8743 54.8928 64.9435 54.9883C65.1066 55.6573 65.052 56.3599 64.9725 57.0364C63.526 56.9346 63.022 58.9985 64.3495 59.5389C64.5286 59.6118 64.9794 59.6331 65.0306 59.7857C65.0859 59.95 65.0603 61.2315 65.043 61.4955C65.0278 61.7293 64.9801 61.9582 64.9442 62.1892C64.1525 62.3329 63.6242 62.9523 63.7134 63.7698L61.9959 63.7622C61.9205 62.7062 61.1516 61.9383 60.0474 62.2683C59.7314 62.3624 59.4507 62.7956 59.3484 63.0912C59.2059 63.5044 59.3878 63.8303 58.836 63.8413C58.6888 63.844 58.556 63.7801 58.4378 63.7835C57.8874 63.798 57.3384 63.8935 56.7887 63.7718C56.7085 63.743 56.6947 63.2775 56.6615 63.1606C56.3337 61.9912 54.7372 61.8042 54.2331 62.953C54.0513 63.3669 54.1529 63.8715 53.5306 63.8378C53.0819 63.7182 51.9065 63.9691 51.569 63.8035C51.3084 63.6756 51.4695 62.6505 50.6771 62.3143C49.5369 61.8303 48.8648 62.7399 48.7079 63.7608L46.2575 63.7402C46.1205 62.689 45.3551 61.8386 44.2343 62.3143C43.6079 62.5804 43.5878 63.2211 43.3638 63.7725L40.8947 63.7608C40.8055 63.5312 40.8027 63.2768 40.7184 63.0451C40.3436 62.0077 38.7422 61.8413 38.2942 62.876C38.1884 63.1208 38.1746 63.7258 37.9333 63.7705C37.2875 63.8908 36.2711 63.6845 35.5831 63.7629C35.4787 63.1496 35.2885 62.4539 34.6185 62.2476C33.8628 62.0146 33.2364 62.3288 32.957 63.0451C32.8872 63.2239 32.8637 63.6969 32.6791 63.7588L30.201 63.7698C30.1519 61.6997 27.6551 61.6186 27.449 63.7051L27.3156 63.7705L24.888 63.7416C24.7656 63.3806 24.8119 63.052 24.5893 62.7186C24.052 61.9142 22.7591 62.0132 22.3698 62.8774C22.273 63.0926 22.1941 63.6969 21.9929 63.7567C21.8353 63.8035 19.9567 63.8069 19.7492 63.7698C19.4782 63.721 19.5266 63.2988 19.454 63.0733C19.2728 62.511 18.7473 62.1651 18.1555 62.181C17.2995 62.2036 16.9067 62.9358 16.7809 63.688C16.6288 63.8681 14.5649 63.8021 14.2088 63.7691C14.3512 62.2394 12.2582 61.501 11.6277 62.9523C11.5405 63.1531 11.488 63.6996 11.311 63.7595L9.07418 63.7615C8.95456 63.721 8.93105 63.3435 8.86537 63.1771C8.70495 62.7722 8.30669 62.2786 7.85518 62.2023C6.73298 62.0111 6.30844 62.7818 6.11691 63.7416L4.18781 63.7705C4.23414 62.678 3.65955 62.0256 2.52837 62.1865L2.60443 59.6874C4.51141 59.4756 4.58953 56.9395 2.52906 57.0385V55.3555C2.52906 55.2778 2.55603 55.0406 2.62241 54.989C2.81532 54.888 3.03865 54.8886 3.23916 54.8082C4.58539 54.2671 4.15462 52.2246 2.66182 52.3525L2.7275 52.1558L2.59613 52.2871C2.47859 51.6539 2.48758 50.9348 2.62725 50.3037C3.38229 50.2728 4.16707 49.564 4.03985 48.7726C3.93199 48.1003 3.20321 47.5606 2.52906 47.7338V45.8528C2.52906 45.826 2.60512 45.6418 2.64245 45.6205C4.52523 45.4926 4.57295 42.9399 2.59613 42.9818C2.50832 42.2778 2.52007 41.58 2.60235 40.876C4.55773 40.8231 4.56465 38.1453 2.59544 38.2305C2.54981 37.5657 2.53598 36.9119 2.62863 36.2498C2.70884 36.0903 2.95291 36.1336 3.10779 36.067C4.71676 35.3767 4.25626 33.4703 2.59889 33.4751C2.45853 32.8137 2.56087 32.1351 2.65629 31.4765C3.00339 31.315 3.39958 31.2435 3.69344 30.974C4.3669 30.3566 4.19818 29.2071 3.34149 28.8757C3.12162 28.7905 2.69432 28.818 2.61273 28.6193C2.56502 28.5031 2.63416 26.8187 2.69017 26.7424C3.62015 26.576 4.3019 25.9112 4.01081 24.9102C3.83795 24.3176 3.16656 24.1127 2.62448 24.0453L2.60443 22.0365C2.64661 21.912 3.16103 21.8749 3.34357 21.7814C3.71141 21.5944 4.12558 21.0691 4.12696 20.6422C4.12904 20.128 3.71556 19.4961 3.19699 19.3841C2.96812 19.3346 2.64246 19.4411 2.59544 19.1902C2.49795 18.6656 2.6549 17.8654 2.62586 17.3085C2.92802 17.0755 3.26889 17.1552 3.59249 16.8823C4.31365 16.2745 4.17606 15.1683 3.32905 14.7641C3.13061 14.6699 2.76346 14.6726 2.67703 14.5874C2.57539 14.4877 2.54842 12.9037 2.60581 12.7325C2.67011 12.5414 2.97849 12.5861 3.12577 12.5235C3.86975 12.2086 4.19127 11.7123 4.03916 10.8893C3.9147 10.2156 3.11471 10.0327 2.59475 9.81752V7.93652L2.59544 7.93858ZM41.4831 2.19726H41.351V2.32858L41.4831 2.19726ZM5.4483 2.26326H5.31623V2.32789H5.4483V2.26326ZM9.43304 2.39733C9.28231 3.99714 7.01578 4.60626 6.04639 3.35089C5.87284 3.12676 5.72072 2.56439 5.61701 2.45851C5.48425 2.32308 4.93525 2.41726 4.72644 2.40214C4.58262 3.24914 3.78332 3.53583 3.07668 3.81014L3.20736 4.82077C5.24294 5.30339 5.19523 7.96539 3.19077 8.43152L3.13476 9.51295C4.58055 9.66008 5.19039 11.3486 4.32057 12.4589C3.98246 12.8906 3.70727 12.8322 3.33044 13.0577C3.04487 13.2289 3.03104 13.9301 3.25991 14.1075C3.3816 14.2017 3.61254 14.2368 3.7688 14.3275C5.04312 15.0652 5.01477 16.8238 3.70243 17.5196C3.30762 17.7286 2.98887 17.5636 3.0269 18.2298C3.03519 18.379 3.2205 18.5192 3.07668 18.7323C3.0912 18.819 3.64019 18.9248 3.78332 18.9998C5.00094 19.6336 5.00716 21.5318 3.79369 22.165C3.57797 22.2771 3.10364 22.3238 3.05939 22.5576C3.00546 22.8408 3.17901 23.2018 3.13476 23.5056C4.69256 23.8026 5.25608 25.8658 3.95549 26.8139C3.78954 26.9349 3.22257 27.1329 3.18661 27.1872C3.09534 27.3268 3.08152 28.1291 3.19007 28.235C3.27097 28.3133 3.74461 28.4096 3.94443 28.5409C4.72506 29.0558 4.87717 30.3263 4.40008 31.084C4.10484 31.5521 3.64711 31.7013 3.13476 31.8388L3.05662 32.9086C3.73907 33.1444 4.26041 33.3616 4.5522 34.0746C5.03343 35.2502 4.38073 36.3901 3.1237 36.5537L3.13269 37.6977C5.2388 38.0971 5.1489 40.9537 3.0905 41.3978L3.06907 42.3486C3.3256 42.5343 3.62914 42.5528 3.91816 42.7584C4.98573 43.5181 4.90621 45.2471 3.76811 45.8996C3.61738 45.9862 3.18454 46.1223 3.12438 46.1835C2.97434 46.3341 3.03242 46.9418 3.08981 47.1467C5.15513 47.5193 5.21459 50.4013 3.0912 50.7691L3.06008 51.8946C4.93387 52.0335 5.27682 54.5855 3.52473 55.2936C3.38575 55.35 3.17486 55.295 3.09258 55.4579L3.05593 56.4761C4.77691 56.6218 5.25401 58.9834 3.81237 59.8696C3.62084 59.9871 3.11332 60.0566 3.06907 60.1865L3.0905 61.5333C3.97346 61.7224 4.649 62.2903 4.66145 63.237L5.64467 63.3091C5.91363 61.0177 9.08801 61.0507 9.49389 63.2816L10.8484 63.3036L10.9245 63.2473C11.1651 61.4295 13.6771 60.9998 14.5102 62.5818C14.5994 62.7509 14.6789 63.1545 14.7702 63.2473C14.923 63.402 15.9823 63.2672 16.2623 63.3085C16.5693 61.0548 19.6704 61.0397 20.0791 63.2473L21.5767 63.2816C21.9114 62.0015 22.9748 61.2453 24.2933 61.7623C24.964 62.0249 25.2192 62.7048 25.4667 63.3146L26.8841 63.2796C27.037 63.0692 27.0563 62.8203 27.1856 62.5893C28.1114 60.9393 30.4651 61.5216 30.7403 63.3023L32.213 63.3133C32.3015 63.292 32.4364 62.7701 32.4965 62.6574C33.3947 60.9634 35.8175 61.4213 36.0498 63.3023L37.6021 63.2466C37.9768 61.0053 41.0164 61.0885 41.3904 63.3153L42.8673 63.303C43.2988 61.0404 46.2761 61.0926 46.7684 63.3146L48.1195 63.2796C48.2875 63.0458 48.3311 62.7825 48.4887 62.5254C49.4145 61.0177 51.7288 61.51 51.9314 63.2486L53.4283 63.2796C53.5528 63.2184 53.7097 62.6216 53.837 62.4319C54.592 61.2996 56.4616 61.4364 57.0653 62.6306C57.1558 62.8093 57.2105 63.2163 57.3418 63.281C57.5887 63.2548 58.6113 63.3559 58.704 63.2466C58.7696 63.1689 58.8091 62.843 58.8775 62.6931C59.6782 60.9338 62.1819 61.4866 62.5145 63.2823L63.1817 63.3112C63.2017 62.522 63.8206 61.9438 64.465 61.5808C64.539 61.4089 64.55 60.2773 64.4443 60.1748C64.3551 60.0882 63.9036 59.9727 63.7169 59.8428C62.3782 58.9112 62.9535 56.8432 64.5003 56.505C64.4837 56.2822 64.5846 55.6243 64.4443 55.4888C64.3571 55.405 63.8088 55.2324 63.5972 55.0818C62.3859 54.2197 63.0268 52.0919 64.4781 51.8306C64.5494 51.7255 64.5328 50.9458 64.4256 50.8544C62.4128 50.3814 62.4578 47.6747 64.4118 47.2113L64.4691 46.145C62.5234 45.78 62.4363 42.8485 64.4339 42.5136C64.3792 42.2551 64.6213 41.5395 64.4436 41.3655C64.3585 41.2823 64.0031 41.2122 63.8351 41.1132C62.6458 40.412 62.6859 38.4815 63.9326 37.8909C64.214 37.7575 64.5279 37.849 64.5521 37.4646C64.5597 37.3498 64.5016 36.7441 64.4477 36.6754C63.4133 36.2705 62.8837 35.7308 62.9791 34.5675C63.0234 34.0265 63.3172 33.5308 63.7971 33.2688C63.9893 33.1636 64.5673 33.0612 64.5708 32.8598L64.447 31.9406C62.4184 31.3782 62.4218 28.7623 64.4774 28.204C64.5507 28.0961 64.5293 27.3281 64.4263 27.2264C64.3772 27.1783 63.907 27.0188 63.73 26.8964C62.9985 26.3911 62.771 25.4588 63.0828 24.6386C63.2744 24.1347 63.9298 23.5476 64.5079 23.7133C64.4166 23.3131 64.7374 22.6456 64.3454 22.3905C64.2202 22.3087 64.0494 22.3121 63.9077 22.2317C62.9003 21.6645 62.5691 20.3885 63.3138 19.4563C63.618 19.0754 64.0702 18.929 64.5113 18.786L64.4767 17.7726C64.1476 17.5835 63.8275 17.5595 63.5371 17.2886C62.4723 16.2945 62.8996 14.3371 64.4304 14.1976C64.503 13.9611 64.6047 13.3155 64.4138 13.1498C64.3163 13.0653 63.9858 12.9786 63.824 12.8783C62.3174 11.9453 62.7959 9.89039 64.4795 9.52808C64.5058 9.32595 64.5736 8.60958 64.4422 8.50095C64.3488 8.42326 63.9775 8.3387 63.795 8.22045C62.7924 7.57008 62.585 5.94414 63.6228 5.24495C63.8019 5.12464 64.4263 4.93695 64.4754 4.83933L64.4989 3.79089C63.8441 3.59358 63.3331 3.14464 63.1167 2.4922L62.5573 2.45783C62.1922 4.15527 59.8704 4.66608 58.9868 3.10202C58.9059 2.9597 58.7814 2.5362 58.7344 2.49495C58.5712 2.35264 57.4241 2.33476 57.2706 2.49083C57.1745 2.58845 57.0819 2.96589 56.9574 3.16939C56.4354 4.02395 55.3512 4.2192 54.4848 3.75101C53.9351 3.45401 53.7381 2.97002 53.4926 2.42758L51.9279 2.45783C51.7613 4.19376 49.2631 4.60695 48.4348 3.1027C48.3331 2.91776 48.2785 2.55614 48.1375 2.47158C47.8733 2.40558 46.895 2.3162 46.7539 2.45989C46.6778 2.53758 46.552 2.97552 46.4462 3.14395C45.5363 4.59664 43.128 4.12295 42.9372 2.3987L41.3849 2.39389C41.1678 3.84383 39.4226 4.54233 38.2631 3.58258C37.8538 3.24364 37.7818 2.87995 37.5654 2.42826L36.0021 2.4592C35.7096 4.54095 32.5878 4.47358 32.3195 2.39939L30.7223 2.43583C30.4319 3.89195 28.7199 4.50864 27.577 3.51589C27.2347 3.2182 27.1227 2.79401 26.8814 2.42826C26.5958 2.40901 25.5808 2.30451 25.4162 2.49083C25.3243 2.59533 25.2531 2.95833 25.1431 3.14327C24.2809 4.6042 21.9473 4.06176 21.6403 2.4262C21.5698 2.37945 20.4372 2.37258 20.2733 2.39251C19.9352 2.43376 20.0472 2.72114 19.9249 2.97001C19.1193 4.61039 16.6813 4.2027 16.3315 2.4262L14.7951 2.43514C14.5123 4.11264 12.2645 4.58151 11.2971 3.20926C11.1146 2.95008 11.0883 2.70739 10.9099 2.47295L9.43027 2.3987L9.43304 2.39733ZM4.45333 15.6599L4.32126 15.5286V15.6599H4.45333ZM2.99302 50.7059V50.5746H2.92802V50.7059H2.99302ZM2.79388 60.1453H2.66182V60.2099H2.79388V60.1453ZM2.79388 61.7293H2.66182V61.7939H2.79388V61.7293ZM49.7782 61.9919V61.8606H49.7132V61.9919H49.7782ZM41.5495 63.5773H41.4174V63.7086L41.5495 63.5773ZM62.4529 63.7079V63.5766H62.3879V63.7079H62.4529ZM35.9087 63.6433H35.7767V63.7079H35.9087V63.6433ZM57.8079 63.6433H57.6758V63.7079H57.8079V63.6433ZM58.007 63.6433H57.8749V63.7079H58.007V63.6433Z" fill="#624D31"/>
<path d="M9.43332 2.39731L10.913 2.47156C11.0914 2.70669 11.1177 2.94937 11.3002 3.20787C12.2675 4.58012 14.5161 4.11125 14.7982 2.43375L16.3345 2.42481C16.6851 4.20062 19.1224 4.609 19.9279 2.96862C20.0503 2.71975 19.9383 2.43237 20.2764 2.39112C20.4403 2.37119 21.5728 2.37806 21.6434 2.42481C21.9497 4.06037 24.284 4.60281 25.1462 3.14187C25.2554 2.95625 25.3266 2.59325 25.4193 2.48944C25.5838 2.30312 26.5989 2.40762 26.8844 2.42687C27.125 2.79194 27.2378 3.21681 27.58 3.5145C28.7223 4.50656 30.4349 3.89056 30.7254 2.43444L32.3226 2.398C32.5908 4.47219 35.7127 4.53956 36.0051 2.45781L37.5685 2.42687C37.7842 2.87925 37.8568 3.24225 38.2661 3.58119C39.425 4.54094 41.1708 3.84244 41.388 2.3925L42.9402 2.39731C43.1311 4.12156 45.5393 4.59525 46.4493 3.14256C46.5551 2.97412 46.6802 2.53619 46.7569 2.4585C46.898 2.31481 47.8757 2.40419 48.1405 2.47019C48.2816 2.55406 48.3362 2.91569 48.4378 3.10131C49.2662 4.60556 51.7643 4.19237 51.931 2.45644L53.4957 2.42619C53.7404 2.96931 53.9375 3.45262 54.4879 3.74962C55.3542 4.21712 56.4384 4.02256 56.9605 3.168C57.0849 2.96381 57.1769 2.58706 57.2737 2.48944C57.4272 2.33337 58.5743 2.35125 58.7374 2.49356C58.7845 2.53412 58.9096 2.95762 58.9898 3.10062C59.8735 4.66469 62.1953 4.15387 62.5604 2.45644L63.1197 2.49081C63.3362 3.14325 63.8471 3.59219 64.5019 3.7895L64.4784 4.83794C64.4293 4.93556 63.8043 5.12325 63.6259 5.24356C62.5873 5.94275 62.7955 7.56869 63.798 8.21906C63.9806 8.33731 64.3519 8.42187 64.4452 8.49956C64.5759 8.60819 64.5088 9.32456 64.4826 9.52669C62.7982 9.88831 62.3205 11.9432 63.8271 12.8769C63.9889 12.9772 64.3194 13.0639 64.4169 13.1484C64.6077 13.3141 64.5061 13.9597 64.4335 14.1962C62.9026 14.3357 62.4753 16.2931 63.5401 17.2872C63.8312 17.5587 64.1507 17.5828 64.4798 17.7712L64.5144 18.7846C64.0732 18.9276 63.621 19.074 63.3168 19.4549C62.5721 20.3871 62.9033 21.6631 63.9108 22.2303C64.0525 22.3101 64.2233 22.3073 64.3484 22.3891C64.7405 22.6442 64.4196 23.3117 64.5109 23.7119C63.9329 23.5462 63.2774 24.1333 63.0859 24.6372C62.774 25.4581 63.0015 26.3897 63.733 26.895C63.9107 27.0174 64.3809 27.1769 64.4293 27.225C64.533 27.3267 64.5538 28.0947 64.4805 28.2026C62.4249 28.7616 62.4214 31.3768 64.4501 31.9392L64.5738 32.8584C64.5704 33.0598 63.993 33.1623 63.8001 33.2674C63.3203 33.5294 63.0264 34.0251 62.9821 34.5661C62.8867 35.7294 63.4164 36.2691 64.4507 36.674C64.504 36.7421 64.5621 37.3484 64.5552 37.4632C64.531 37.8476 64.217 37.7561 63.9356 37.8895C62.689 38.4801 62.6489 40.4106 63.8381 41.1118C64.0062 41.2108 64.3616 41.2816 64.4466 41.3641C64.6236 41.5381 64.3816 42.2544 64.4369 42.5122C62.4394 42.8464 62.5265 45.7779 64.4722 46.1436L64.4148 47.2099C62.4608 47.6733 62.4159 50.38 64.4286 50.853C64.5358 50.9451 64.5524 51.7248 64.4812 51.8293C63.0299 52.0905 62.3889 54.2183 63.6003 55.0804C63.8119 55.231 64.3609 55.4036 64.4473 55.4874C64.5877 55.6229 64.486 56.2808 64.5033 56.5036C62.9566 56.8418 62.3813 58.9091 63.7199 59.8414C63.9066 59.9713 64.3581 60.0868 64.4473 60.1734C64.5531 60.2759 64.5413 61.4075 64.468 61.5794C63.8229 61.9431 63.2048 62.5212 63.1847 63.3098L62.5175 63.2809C62.1849 61.4845 59.6812 60.9324 58.8806 62.6917C58.8121 62.8416 58.7727 63.1675 58.707 63.2452C58.6144 63.3552 57.5917 63.2534 57.3449 63.2796C57.2135 63.2142 57.1589 62.8079 57.0683 62.6292C56.464 61.4343 54.5951 61.2982 53.84 62.4305C53.7135 62.6203 53.5565 63.217 53.4314 63.2782L51.9344 63.2472C51.7325 61.5086 49.4183 61.0163 48.4918 62.524C48.3341 62.7811 48.2899 63.0451 48.1225 63.2782L46.7715 63.3132C46.2792 61.0912 43.3019 61.039 42.8704 63.3016L41.3935 63.3139C41.0194 61.0871 37.9799 61.0039 37.6051 63.2452L36.0529 63.3009C35.8205 61.4199 33.3984 60.962 32.4996 62.656C32.4394 62.7687 32.3046 63.2913 32.2161 63.3119L30.7433 63.3009C30.4681 61.5202 28.1145 60.9379 27.1887 62.5879C27.0594 62.8182 27.04 63.0678 26.8872 63.2782L25.4698 63.3132C25.2229 62.7034 24.9671 62.0235 24.2964 61.7609C22.9778 61.2439 21.9144 62.0001 21.5797 63.2803L20.0821 63.2459C19.6728 61.039 16.5724 61.0541 16.2654 63.3071C15.9847 63.2658 14.9254 63.4006 14.7733 63.2459C14.682 63.1531 14.6025 62.7495 14.5133 62.5804C13.6801 60.9984 11.1681 61.4274 10.9275 63.2459L10.8514 63.3022L9.49693 63.2803C9.09106 61.0486 5.91669 61.0163 5.64772 63.3078L4.66449 63.2356C4.65205 62.2889 3.97652 61.721 3.09355 61.5319L3.07212 60.1851C3.11638 60.0552 3.6232 59.9864 3.81542 59.8682C5.25706 58.982 4.78065 56.6204 3.05898 56.4747L3.09563 55.4565C3.17722 55.2936 3.3888 55.3486 3.52778 55.2922C5.27987 54.5834 4.93692 52.0314 3.06314 51.8932L3.09425 50.7677C5.21695 50.3993 5.15818 47.5179 3.09286 47.1453C3.03547 46.9404 2.97739 46.3334 3.12743 46.1821C3.18759 46.1216 3.62043 45.9848 3.77116 45.8982C4.90926 45.2451 4.98947 43.5167 3.9212 42.757C3.63218 42.5514 3.32865 42.5329 3.07212 42.3473L3.09355 41.3964C5.15195 40.953 5.24253 38.0964 3.13573 37.6963L3.12674 36.5523C4.38446 36.3894 5.03649 35.2488 4.55525 34.0732C4.26346 33.3602 3.74212 33.143 3.05967 32.9072L3.13781 31.8374C3.65016 31.6999 4.10789 31.5501 4.40314 31.0826C4.88023 30.3249 4.7288 29.0551 3.94747 28.5395C3.74834 28.4082 3.27402 28.3119 3.19313 28.2336C3.08457 28.1277 3.0984 27.3254 3.18966 27.1858C3.22493 27.1315 3.7926 26.9335 3.95854 26.8125C5.25913 25.8637 4.69492 23.8006 3.13781 23.5042C3.18206 23.2004 3.00851 22.8394 3.06244 22.5562C3.1067 22.3224 3.58102 22.2757 3.79675 22.1636C5.01021 21.5311 5.00399 19.6322 3.78637 18.9984C3.64325 18.9241 3.09425 18.8182 3.07973 18.7309C3.22355 18.5178 3.03824 18.3776 3.02994 18.2284C2.99191 17.5629 3.31066 17.7279 3.70547 17.5182C5.01781 16.8224 5.04617 15.0638 3.77186 14.3261C3.61559 14.2354 3.38464 14.201 3.26295 14.1061C3.03409 13.9281 3.04792 13.2268 3.33348 13.0563C3.711 12.8308 3.98551 12.8892 4.32362 12.4575C5.19344 11.3472 4.5836 9.65869 3.13781 9.51156L3.19381 8.43012C5.19828 7.964 5.24669 5.302 3.21041 4.81937L3.07973 3.80875C3.78638 3.53444 4.58498 3.24775 4.72949 2.40075C4.9383 2.41587 5.4873 2.32169 5.62006 2.45712C5.72377 2.563 5.87658 3.12537 6.04944 3.3495C7.01883 4.60487 9.28604 3.99575 9.43608 2.39594L9.43332 2.39731ZM12.0193 8.26787C11.7876 6.21569 8.89607 5.97919 8.04561 7.71512C7.43438 8.96294 7.56852 11.5555 8.96245 12.265C9.56054 12.5696 10.7387 12.4953 11.2546 12.0299L11.4661 12.3633L12.1424 12.3509L12.2226 11.9969L12.152 9.32387H10.028L10.0902 10.219C10.5209 10.3716 11.2788 9.95431 11.1273 10.6473C10.8812 11.7748 9.51906 11.6744 9.05026 10.725C8.70316 10.0217 8.65476 7.98669 9.51421 7.66081C10.3059 7.36106 10.7657 7.722 11.0001 8.46862L12.0186 8.26719L12.0193 8.26787ZM33.9848 10.8096C34.0456 10.3572 33.9398 9.79069 33.9848 9.32456C33.2913 9.27712 32.622 9.29431 31.9271 9.32456L31.9291 10.1819C32.6323 10.2451 33.1965 10.0093 32.7582 10.9759C32.492 11.5631 31.5889 11.5967 31.1623 11.1753C30.4868 10.5091 30.4308 8.02175 31.4507 7.62919C32.1158 7.37275 32.7201 7.77287 32.7983 8.45969L33.8562 8.23212C33.4876 6.12425 30.6244 5.97231 29.8037 7.83956C29.3674 8.83162 29.4386 10.6418 30.0408 11.5651C30.9957 13.0288 33.7317 12.6912 33.9855 10.8102L33.9848 10.8096ZM58.9373 9.32525C59.5457 9.18225 59.72 8.46381 59.6591 7.91244C59.4724 6.21156 56.4522 6.06306 55.9178 7.60856C55.6391 8.415 56.027 9.01519 56.6804 9.45519C55.2706 9.88419 55.3065 11.6545 56.5891 12.2863C57.4396 12.705 59.3113 12.5819 59.7262 11.5933C60.0643 10.7882 59.8437 9.79825 58.9787 9.46069L58.938 9.32525H58.9373ZM13.7776 6.68456H12.7819L12.6948 6.83375L14.0791 12.3571C14.3439 12.3193 15.0616 12.4492 15.2379 12.2946C15.3603 12.1873 15.7122 10.7422 15.7821 10.4596C15.8789 10.0671 15.9715 9.66212 16.0006 9.25787C16.1603 9.23862 16.107 9.25581 16.1402 9.34931C16.4624 10.2499 16.5426 11.3637 16.925 12.265C17.0598 12.4169 17.9421 12.4114 18.0624 12.2657L19.5165 6.78837C19.5131 6.75262 19.3609 6.68387 19.3513 6.68387H18.3224L17.427 10.2486L16.5862 6.79387C16.4576 6.57869 15.995 6.72787 15.7648 6.67975L14.673 10.2479L13.7762 6.68387L13.7776 6.68456ZM24.0966 12.3606L22.3666 6.78837C22.2172 6.57181 21.4788 6.7375 21.2078 6.67975L21.122 6.69625C20.7604 7.7935 20.3739 8.8935 20.0302 9.999C19.8477 10.5854 19.5296 11.3987 19.4156 11.9618C19.3886 12.0959 19.3727 12.2244 19.3858 12.3612H20.4479L20.7791 11.2716C20.8703 11.2179 22.1467 11.2159 22.3431 11.2358C22.9502 11.2963 22.639 11.9982 23.0027 12.3612H24.098L24.0966 12.3606ZM24.7935 12.3606H25.8224V9.32456C25.9593 9.29362 26.0706 9.52944 26.1418 9.63394C26.7185 10.4871 27.2087 11.4104 27.7632 12.2774C27.869 12.3791 28.5093 12.4039 28.6137 12.3317L28.6794 12.133C28.5224 10.483 28.8695 8.52362 28.6794 6.91212C28.6683 6.81587 28.6711 6.74231 28.5764 6.68456H27.6139V9.91856C26.854 8.96981 26.3147 7.83956 25.6599 6.81312C25.5548 6.61994 24.7935 6.64606 24.723 6.74644L24.6905 12.133L24.7935 12.3606ZM37.137 6.68456H36.1745V10.6776C36.1745 10.7422 36.0342 11.0715 35.9775 11.1416C35.5135 11.7212 34.9825 10.9381 34.8193 10.9759C34.437 11.4847 34.1493 11.8312 34.8263 12.2169C35.8198 12.782 36.9012 12.2973 37.1916 11.2276C37.3237 10.7415 37.3113 7.5185 37.24 6.91281C37.229 6.81656 37.2317 6.743 37.137 6.68525V6.68456ZM39.6455 11.1519C39.5204 11.0371 39.445 10.7154 39.4271 10.5442C39.3081 9.37887 39.5245 8.04581 39.4125 6.86262C39.3586 6.58281 38.3878 6.65912 38.327 6.74644C38.345 7.975 38.2039 9.33212 38.2952 10.5483C38.4743 12.9264 41.6106 13.1567 42.1679 11.0949C42.3712 10.3421 42.3463 8.02106 42.282 7.1775C42.2709 7.03519 42.2585 6.86262 42.1707 6.74506C42.04 6.65156 41.2898 6.644 41.1826 6.74919C41.0381 6.8915 41.0768 7.99631 41.0796 8.30087C41.0837 8.74362 41.166 9.31975 41.157 9.75425C41.1522 9.99556 41.1059 10.7862 41.0339 10.9581C40.83 11.4462 40.0009 11.4799 39.6442 11.1526L39.6455 11.1519ZM47.3232 7.80656H49.679C49.8352 7.67044 49.8407 6.74919 49.6693 6.69212L46.3995 6.75606L46.2702 9.84294C46.3248 9.92956 46.9609 9.94125 47.0895 9.91719C47.2472 9.88694 47.3951 9.67175 47.651 9.61812C48.1371 9.51569 48.8478 9.58375 48.9668 10.1654C49.141 11.0179 48.7559 11.4998 47.8847 11.4393C47.3993 11.4056 47.2057 11.1602 46.9595 10.7848C46.6477 11.044 46.0434 10.9326 46.2093 11.4558C46.2819 11.6841 46.7687 12.0856 46.9913 12.1956C48.274 12.8322 49.9528 12.3832 50.1097 10.8096C50.2909 8.98631 48.9903 8.32975 47.355 8.79519L47.2824 8.66044L47.3232 7.80656ZM53.5614 8.10356V12.2616C53.5614 12.4197 54.4768 12.3179 54.6234 12.3606C54.6614 10.4878 54.6407 8.62469 54.5944 6.74575C54.5294 6.65225 53.876 6.65981 53.7418 6.69831C53.6734 6.71756 52.6245 7.47862 52.5975 7.54394L52.6991 8.46656C52.8112 8.57381 53.2827 8.08294 53.4265 8.03275L53.5614 8.10287V8.10356ZM51.4048 11.077C50.6027 11.2626 50.7693 12.6871 51.8528 12.4101C52.5768 12.2251 52.3942 10.8481 51.4048 11.077ZM29.0078 33.9096C28.967 34.2052 29.0078 34.6473 29.0078 34.9656C29.0078 35.3794 29.5734 36.6864 29.8417 37.0404C29.9689 37.2082 30.3859 37.5114 30.4024 37.6736C30.3043 38.0277 30.1999 38.3701 30.1439 38.7358C29.897 40.3631 29.8597 42.0365 29.8057 43.6741C29.7643 44.935 29.6197 46.3093 29.7345 47.575C29.8044 48.3457 30.2662 48.0143 30.3354 47.3742C30.4502 46.3114 30.298 44.979 30.3319 43.8728C30.37 42.6374 30.4598 41.3483 30.6009 40.1142C30.6998 39.2514 30.6604 38.4388 31.2723 37.8118C32.3952 36.6616 34.1645 35.6737 34.7937 34.1199C34.8636 33.9481 35.0441 33.0192 35.1464 33.0199C36.4518 34.0594 36.3094 36.1309 35.5039 37.433C35.0019 37.2948 34.5656 36.8493 34.0124 36.7861C33.1799 36.6905 33.462 37.2109 33.0583 37.6083C32.7499 37.9115 31.7597 38.0256 31.7328 38.3955C31.6982 38.8774 32.7644 38.4801 33.0251 38.3666C33.554 38.1363 33.6619 37.8654 34.018 37.4598L35.1789 38.1336C34.939 38.3233 34.7979 38.7743 34.7868 39.0672C34.7785 39.2851 34.9376 39.5684 34.9044 39.7045C34.8691 39.8482 34.4985 40.106 34.4543 40.5164C34.4135 40.8925 34.6728 41.1943 34.6492 41.4301C34.6368 41.5552 34.495 41.6439 34.4639 41.7766C34.2717 42.5906 34.7813 43.1626 35.3849 43.6054C35.5771 43.7463 35.9166 43.7711 35.9132 44.0694L34.9853 48.1092C34.9224 48.4344 35.2383 48.6234 35.5315 48.5815C35.8634 48.5341 35.9436 48.0067 36.0121 47.7386C36.2852 46.6661 36.3668 45.3833 36.7049 44.3362C36.7318 44.253 36.6544 44.2289 36.8072 44.2358C37.0623 44.2468 37.5166 44.6896 37.7697 44.8126C37.7531 45.1309 37.7766 45.4486 37.8699 45.7545C37.9633 46.0604 38.3145 46.4633 38.3553 46.6634C38.4238 47.0002 38.0525 48.0253 38.459 48.3361C39.0558 48.7919 38.9451 47.6321 38.8967 47.3399C39.3254 47.2725 39.555 47.7489 39.8606 47.9985C41.6424 49.4519 44.8182 49.7166 45.2676 46.9446C45.6271 47.0814 45.8062 47.4753 46.1754 47.6582C46.8337 47.9841 48.4772 47.8081 49.2752 47.8108C50.3517 47.8149 51.4393 47.8438 52.527 47.8624C52.7572 47.8665 53.0414 47.7702 53.3339 47.7991C53.6741 47.8328 53.8303 48.0322 54.1249 48.0679C55.2588 48.2047 56.9093 48.0549 58.1075 48.0624C58.8114 48.0672 59.3742 48.0899 60.0989 48.0611C60.2918 48.0535 60.4328 48.1532 60.679 48.1188C61.0856 48.0617 61.667 47.5798 61.7196 47.1694L61.7244 42.1932L61.5557 42.3954C60.1818 42.4187 58.8156 42.2909 57.441 42.3218C57.1478 42.3287 56.4495 42.3459 56.2012 42.4091C55.7179 42.5315 55.5188 43.0959 55.1212 43.3812H53.031C53.0269 43.2898 53.011 43.2547 53.076 43.1805C53.2046 43.0334 54.2784 41.9897 54.3883 41.9265C54.5045 41.8591 54.6262 41.8516 54.7541 41.8275C56.2877 41.8454 57.8386 41.8791 59.3722 41.8667C60.1286 41.8605 60.9023 41.7244 61.6581 41.8639L61.6249 42.1273C61.8869 41.5821 61.7597 40.7928 60.9957 41.0719C60.8975 40.8334 61.0766 39.8832 60.6299 39.8832H59.2691C59.3825 39.5457 59.8527 39.4151 59.8707 38.9909C59.8873 38.6059 59.4704 36.6307 59.3155 36.2395C59.0714 35.6214 58.3246 35.5245 57.7459 35.4578C57.7342 35.2646 57.8116 34.4712 57.5101 34.4712H56.5477C56.3859 34.2004 56.6465 33.4269 56.4384 33.2778C56.1874 33.0976 54.362 33.2805 53.9368 33.2282C53.6353 33.3293 53.8255 34.2251 53.6996 34.5063C53.2336 34.694 51.7 34.1591 51.5175 34.782C51.4635 34.9656 51.5742 35.3293 51.4393 35.4296L50.2127 35.7947C48.5664 35.4173 46.6415 34.1901 45.0028 33.9707C43.3765 33.7528 42.6305 36.1652 44.3514 36.6671L48.9426 37.961C49.0318 38.0242 48.9647 38.511 48.9861 38.6567C49.0539 39.1153 49.4473 39.3834 49.7778 39.6522C49.829 39.7726 49.6126 39.8001 49.54 39.8097C49.0373 39.8784 48.4489 39.7114 47.9711 39.8997C47.5459 40.0675 47.4276 40.5591 47.1912 40.9062C46.1561 40.9172 45.6631 40.9468 44.9661 41.7299C44.852 41.8055 44.5368 42.4339 44.4372 42.3899C44.2643 42.3143 43.7036 40.271 43.5874 39.9348C43.0239 38.3102 42.3096 36.0078 40.6785 35.1718C40.5223 35.0914 39.7949 34.8618 39.7631 34.7593L40.2844 32.6501C40.6378 32.5841 42.9409 33.0124 43.0128 32.7106C42.9091 31.3851 42.0531 30.3153 40.8936 29.711L41.8215 25.8314C43.4028 25.6554 44.4953 26.3725 45.567 27.4044C47.1739 28.952 47.8038 29.7626 50.163 30.2933C50.6069 30.393 51.9379 30.6611 52.2628 30.3744C52.5712 30.1022 52.3686 29.7956 52.3638 29.4903C52.3368 27.7984 52.6258 26.3182 53.1451 24.7177C53.3242 24.1656 53.7695 23.3454 53.8663 22.8566C53.8932 22.7212 53.9015 22.6744 53.8435 22.5417C53.7003 22.2131 52.4378 22.0124 52.0208 21.8446C49.8981 20.9935 49.6008 19.8055 48.3168 18.2029C47.3246 16.9647 45.8526 16.0607 44.2726 15.7898C44.2187 15.5987 44.3798 15.4516 44.4019 15.2921C44.4849 14.6967 43.4201 14.2161 43.1601 15.1167C42.9063 15.9947 42.8013 17.2397 42.5938 18.183C41.7696 21.9257 40.8362 25.6486 40.0763 29.4071L39.9837 29.5171C39.7569 29.4539 38.7654 29.1349 38.6969 28.9575L39.3054 28.1786C39.6103 27.6017 39.696 26.763 39.6255 26.1202C39.5868 25.7668 39.2805 25.3027 39.2964 25.0078C39.3074 24.7988 39.5729 23.6369 39.6573 23.4465C39.8371 23.0395 40.2056 23.1158 40.2886 22.2922C40.4663 20.5219 39.3531 17.7347 37.5678 17.0796C37.3686 17.0067 36.8245 16.9249 36.7332 16.8541C36.6226 16.7688 36.5362 16.3412 36.3688 16.1604C36.0404 15.8049 34.6824 15.0693 34.2019 14.8837C32.3516 14.168 29.2485 14.0711 27.4369 14.9222C26.0084 15.5932 23.3885 18.1988 23.1735 19.7904C23.0511 20.6979 23.3775 21.4589 24.1636 20.5102L24.2964 20.5776C24.277 21.1159 23.9852 21.9931 24.0247 22.4909C24.0516 22.8243 24.3676 22.8112 24.4603 22.9866C24.6338 23.3152 24.4347 24.1498 24.4264 24.5334C24.3828 26.5107 24.275 29.4381 25.4622 31.0991C26.166 32.0836 27.3484 32.9044 28.5439 33.1499C28.6331 33.2482 28.1242 33.5541 28.0294 33.5947C27.3781 33.8724 26.1854 33.7109 25.4006 33.8181C24.0413 34.0037 22.7856 34.8116 21.3834 34.5957C21.364 34.2677 21.1262 33.8071 21.1317 33.4991C21.1345 33.3417 21.29 33.11 21.3135 32.8549C21.3599 32.3599 21.2133 30.7065 20.9021 30.3545C20.7715 30.2067 20.5329 30.1393 20.4624 29.9997C20.4257 29.9269 20.2501 29.1576 20.2543 29.0854C20.2653 28.8936 20.9402 28.5526 21.1455 28.3319C21.8058 27.6203 22.4662 25.7861 22.1882 24.8517C22.0575 24.4131 21.4988 24.0701 21.4574 23.9284C21.3225 23.4699 21.5182 23.2093 21.1891 22.6112C20.7403 21.7958 20.0558 21.6927 19.2012 21.5524C18.6488 21.4617 17.79 21.2767 17.3309 21.6342C17.084 21.8267 16.9319 21.9086 16.7086 22.0715C15.0498 23.2842 14.608 26.7513 15.4585 28.5079C15.5988 28.798 15.9791 29.1933 16.0047 29.4862C16.0185 29.6416 15.9121 30.6157 15.854 30.7257C15.7786 30.8681 15.538 30.9127 15.4004 31.0667C15.0816 31.4215 15.2393 31.9516 15.204 32.3895C15.1556 32.9869 14.9302 33.5754 15.2849 34.1578C15.3506 34.265 15.4744 34.2801 15.509 34.3674C15.5843 34.5565 15.4633 34.9085 15.4702 35.0962C15.5249 36.6314 15.6196 38.9242 16.833 40.0104C18.1447 41.1847 21.299 41.3552 23.0048 41.2693C23.3311 41.2528 23.6541 41.0506 23.9534 41.2129L24.4333 47.6321C24.4554 47.8115 24.564 47.9428 24.7382 47.9841C24.9546 48.004 25.0812 47.7496 25.0881 47.564C25.1109 46.9157 24.8765 45.8934 24.8281 45.1928C24.7749 44.4256 24.8018 43.6446 24.6919 42.8862V39.5807C24.7009 38.9317 24.8896 38.1624 24.8986 37.5375C24.9035 37.2226 24.7348 36.9229 24.4423 37.2206L23.9687 40.3789C22.0693 40.6663 19.9728 40.6622 18.1461 40.0242C15.9273 39.0541 16.2813 36.5406 16.2011 34.5345C17.1255 34.7208 18.2049 34.6589 19.1231 34.4376C19.3962 34.3716 20.4472 33.8697 20.573 33.9487C20.7314 34.6349 20.898 35.3059 20.8454 36.0181C20.8254 36.2931 20.5274 37.1216 20.7791 37.2742C21.2914 37.5849 21.4587 36.4017 21.5016 36.0772C21.5251 35.8992 21.4567 35.4344 21.5721 35.3554C22.0029 35.3286 22.4129 35.31 22.8395 35.2296C23.6672 35.0742 24.4796 34.5854 25.2665 34.4754C25.9538 34.3791 26.6687 34.5276 27.3498 34.4032C26.9951 34.8837 26.0948 36.7311 26.323 37.2391C26.5283 37.697 27.7695 37.2391 28.167 37.1828C28.4243 37.5609 29.8583 38.9345 29.9081 37.9005C29.6087 37.6943 29.2768 37.5251 29.041 37.2419C28.7472 36.8892 28.8052 36.4959 28.2493 36.5124C27.849 36.5241 27.4424 36.7964 27.0186 36.7118C26.8547 36.5475 27.775 34.8954 27.9589 34.6445C28.2154 34.2946 28.6047 33.8044 29.0756 33.8092C29.1088 33.8332 29.012 33.8889 29.0092 33.9075L29.0078 33.9096ZM10.1441 31.5494C10.3329 31.3617 10.0653 30.9499 9.94982 30.7526C9.75276 30.415 8.88778 29.1576 8.53169 29.1204L8.32979 29.1837L8.23437 29.3576C8.22123 29.4367 8.26133 29.4979 8.28761 29.5673C8.36436 29.7681 9.38284 31.2043 9.56399 31.4002C9.70366 31.5521 9.95327 31.7384 10.1441 31.5487V31.5494ZM11.5297 29.5907C11.2684 29.6663 11.231 30.8626 11.3195 31.0743C11.4143 31.2998 11.5788 31.2916 11.7012 31.0853C11.8347 30.8591 12.0476 29.4401 11.5297 29.5907ZM13.4554 31.1224C13.2784 31.1389 12.1659 31.8883 12.1486 32.065C12.0732 32.8591 13.7368 31.7226 13.7983 31.5198C13.8758 31.2647 13.7112 31.0984 13.4554 31.1224ZM7.85477 32.1771C7.4973 32.5187 8.4819 32.802 8.6997 32.8542C9.06547 32.9416 9.50315 33.1121 9.60203 32.6267C9.62139 32.5284 9.52528 32.4768 9.45406 32.4342C9.21897 32.2932 8.04422 31.9962 7.85477 32.1771ZM12.3325 32.8976C12.2627 32.9175 12.1555 33.0014 12.1776 33.088C12.264 33.4304 13.4284 34.0354 13.6497 33.6792C13.8384 33.3754 12.6132 32.8178 12.3325 32.8976ZM9.53081 33.5699C9.43124 33.5693 8.08295 34.5029 7.97024 34.6342C7.73516 34.9071 7.8928 35.3059 8.14794 35.2144C8.36712 35.1361 9.54948 34.3461 9.69745 34.1742C9.89796 33.9412 9.84472 33.572 9.53081 33.5699ZM11.6017 34.0175C11.1868 34.1344 11.7227 34.7944 11.8589 34.9924C12.0082 35.2103 12.8324 36.2959 12.9797 36.3908C13.1484 36.498 13.4554 36.3962 13.3835 36.1192C13.3026 35.8077 12.6222 34.8721 12.3844 34.6019C12.2336 34.4307 11.8236 33.9556 11.6017 34.0182V34.0175ZM10.3405 34.4128C9.99546 34.5104 9.82121 35.915 10.0632 35.9872C10.4013 36.0876 10.6696 34.9161 10.6786 34.6809C10.6862 34.4788 10.5368 34.3571 10.3405 34.4128ZM8.70109 42.4572C9.22658 42.383 9.42364 41.6522 9.24801 41.2191C9.05718 40.7488 8.20671 40.7082 7.77664 40.6787L7.31269 43.3084L7.76489 43.373L8.00412 42.3912C8.41483 42.5184 8.29729 43.2932 8.46807 43.5139C8.5144 43.5737 8.84283 43.6597 8.9023 43.6171C9.11733 43.4624 8.73842 42.6869 8.70109 42.4579V42.4572ZM11.0865 41.2053C10.8646 41.2294 9.97264 40.9131 9.86201 41.0692L9.43885 43.703L10.6254 43.9086L10.6641 43.4438L10.0363 43.307C9.99891 43.1482 10.039 42.6415 10.2029 42.5934L10.8155 42.6443L10.8895 42.2599L10.1766 42.0303L10.299 41.6027L11.0907 41.6646L11.0872 41.2053H11.0865ZM12.2848 42.7859C12.2571 42.5233 12.1603 40.9606 11.6162 41.3614C11.509 41.4404 11.1488 43.6487 11.0983 43.9656C11.8997 44.3321 11.5221 43.3166 11.8533 42.9186C11.9778 43.0588 11.9854 43.8061 12.1195 43.8419C12.3325 43.8989 12.5372 43.3524 12.6513 43.1819C12.7017 43.1056 12.6347 43.0107 12.8151 43.0506C12.8082 43.4899 12.2447 44.5197 13.0855 44.2757L13.5169 41.7924C12.923 41.393 12.7688 42.2977 12.4722 42.6759C12.4148 42.7487 12.4058 42.8134 12.2848 42.7859ZM14.4746 42.3899C14.9116 42.4339 15.4896 42.7267 15.2082 42.0234L14.0784 41.8639L13.6172 44.3939C13.6697 44.5562 14.6218 44.5823 14.8293 44.6387L14.9122 44.2331L14.2049 43.9993L14.2768 43.3799C14.3148 43.3352 15.3036 43.835 15.007 43.0155L14.4089 42.9172L14.4759 42.3892L14.4746 42.3899ZM16.3228 42.2675L15.8056 42.1967L15.3423 44.7239C15.379 44.8278 15.7593 44.9432 15.8339 44.8332C15.9439 44.671 15.9674 44.0392 16.0019 43.8096C16.0151 43.7209 16.0386 43.5937 16.1326 43.7099C16.1492 43.9086 16.2267 44.9261 16.5641 44.5679C16.6049 44.5246 16.9416 43.7759 17.0619 43.9086L16.9257 44.99C17.2182 45.1337 17.3392 45.1729 17.4304 44.8353C17.6151 44.1478 17.6365 43.329 17.8515 42.6319C17.2306 42.0331 17.0446 43.0952 16.7197 43.4686C16.6602 43.5366 16.6553 43.6074 16.5323 43.5786L16.3235 42.2682L16.3228 42.2675ZM19.558 44.0172C20.0814 43.0182 19.206 42.6442 18.3293 42.6608L17.8591 45.2279C18.4393 45.2368 19.3665 45.8033 19.5704 44.9178C19.6638 44.5115 19.428 44.2571 19.4474 44.0804C19.4522 44.0357 19.5476 44.0371 19.558 44.0172ZM20.7196 43.6521L21.4463 43.6824L21.4795 43.2437L20.2494 43.0519L19.8097 45.5283C19.8477 45.7627 20.8399 45.7868 21.066 45.826L21.149 45.4224L20.4513 45.188L20.5848 44.6394L21.1469 44.7473C21.2797 44.7274 21.344 44.3616 21.3039 44.2441L20.674 44.1114L20.7203 43.6528L20.7196 43.6521ZM22.917 45.0436C22.9343 45.0141 23.0781 44.9769 23.1382 44.9034C23.8732 43.9972 22.9038 43.2726 21.9822 43.3895L21.5168 45.9463L22.0368 46.0171C22.072 45.8583 22.1039 45.0993 22.2719 45.0979C22.6591 45.5572 22.2145 46.3856 23.1009 46.2179C23.0449 45.9821 22.8084 45.2272 22.917 45.0436ZM9.36763 45.6218L9.48794 44.7377C9.46236 44.6366 9.08069 44.4998 8.99771 44.6325L8.5068 47.1013C8.55105 47.2574 8.89123 47.2175 9.0233 47.1996C9.0793 47.1646 9.16573 46.4111 9.22451 46.2447C9.25424 46.1608 9.1844 46.1423 9.32407 46.1567C9.52597 46.178 9.74723 46.2736 9.95673 46.2894L9.82467 47.3667L10.2886 47.4684C10.3509 47.0889 10.8791 45.0979 10.7298 44.8944C10.6827 44.8305 10.3184 44.7645 10.261 44.8284L10.03 45.7284L9.36763 45.6225V45.6218ZM10.8272 47.6011C11.0312 47.6197 11.2843 47.7888 11.3617 47.5117C11.3534 47.0477 11.8609 45.463 11.7455 45.1378C11.6991 45.0079 11.4917 45.0306 11.3852 44.9797L11.303 45.0766L10.8272 47.6018V47.6011ZM13.5439 46.1519L13.734 45.7332C13.3766 45.2045 12.3346 45.0587 12.1652 45.8033C11.9681 46.6716 13.0931 46.8208 12.9424 47.2986C12.8331 47.6437 12.2094 47.2141 12.0532 47.0766C11.4053 47.7063 12.69 48.1504 13.1837 47.872C13.6013 47.6369 13.5259 46.9817 13.2798 46.6483C13.1567 46.4812 12.2779 45.8466 12.9154 45.8164C13.2673 45.7999 13.2542 46.1058 13.5446 46.1526L13.5439 46.1519ZM15.5366 46.2186L15.473 45.7868C15.2428 45.7779 14.2146 45.4609 14.106 45.6211V46.0254L14.467 46.1904L14.1468 48.2618L14.6737 48.3319L15.0125 46.2268L15.5366 46.2199V46.2186ZM16.5662 45.9236C15.7323 45.8913 15.5408 46.6998 15.4778 47.3811C15.4218 47.993 15.5304 48.543 16.2363 48.6557C17.0266 48.7816 17.3357 48.2508 17.4533 47.564C17.577 46.838 17.512 45.9601 16.5655 45.9236H16.5662ZM19.1286 48.0741C19.6513 47.9916 19.8498 47.2388 19.6119 46.8174C19.3333 46.3237 18.552 46.321 18.0583 46.2179L17.595 48.8544L18.1212 48.9211L18.3563 48.0019C18.628 47.9834 18.5983 48.928 18.9004 49.1095C18.9813 49.1576 19.1141 49.1838 19.2109 49.1838C19.4833 49.1088 19.0221 48.3024 19.1286 48.0741ZM20.5799 47.7359C20.5703 47.267 20.6062 46.4723 19.9162 46.6146C19.8498 46.6751 20.2328 48.0232 20.2439 48.2398C20.2619 48.5849 19.8622 49.3116 20.284 49.3852C20.8046 49.4766 20.6989 48.7582 20.862 48.3794C21.0252 48.0006 21.4505 47.5145 21.6441 47.1061L21.532 46.8875H21.1213C21.0771 46.9157 20.7334 47.9126 20.5799 47.7352V47.7359ZM30.5719 51.4601C30.1522 51.0957 29.5319 50.8984 28.9746 50.8977C25.3294 50.8956 25.5728 56.5792 29.2713 55.7528L30.1356 55.2599C30.1999 56.4444 29.1938 57.8407 27.8863 57.2C27.6713 57.0948 27.3705 56.6665 27.161 56.7896L26.7033 57.6696C27.8573 58.8493 29.8915 58.6678 30.7876 57.2612C31.6616 55.8896 31.8897 52.6048 30.5719 51.4601ZM33.8513 54.4672C32.3896 54.7752 32.0135 56.6246 32.9877 57.6709C33.6577 58.3907 34.6721 58.5062 35.6096 58.4272C37.9398 58.2312 38.6049 55.3548 36.4414 54.3696C38.7515 52.5209 36.3889 50.2858 33.9855 51.0703C32.7734 51.4656 32.1366 53.0936 33.1198 54.0416L33.8513 54.4672ZM40.8708 50.9211C37.731 51.3494 37.6528 58.1666 40.8549 58.4272C43.4132 58.6355 44.0839 56.2622 43.9394 54.1716C43.8184 52.4219 42.9098 50.6426 40.8715 50.9211H40.8708ZM22.8361 58.2966H25.8224V57.4386C25.4905 57.4159 25.0784 57.5781 25.0307 57.1374L25.0265 51.1349L24.9636 51.0029C24.3005 50.8248 24.0081 51.227 23.5213 51.5522C23.3429 51.6711 22.7649 51.9166 22.7172 52.0719L22.7047 52.9499C22.7946 53.0489 23.6769 52.4693 23.7004 52.6536L23.6928 56.87L23.5234 57.3781L22.843 57.4441L22.8368 58.2959L22.8361 58.2966Z" fill="#F9EBCD"/>
<path d="M4.45336 15.6599H4.32129V15.5286L4.45336 15.6599Z" fill="#F9EBCD"/>
<path d="M41.4831 2.19725L41.3511 2.32856V2.19656L41.4831 2.19725Z" fill="#F9EBCD"/>
<path d="M41.5495 63.5773L41.4175 63.7086V63.5766L41.5495 63.5773Z" fill="#F9EBCD"/>
<path d="M2.99322 50.5746H2.92822V50.7059H2.99322V50.5746Z" fill="#F9EBCD"/>
<path d="M2.79418 60.1453H2.66211V60.2099H2.79418V60.1453Z" fill="#F9EBCD"/>
<path d="M5.44847 2.26324H5.31641V2.32787H5.44847V2.26324Z" fill="#F9EBCD"/>
<path d="M2.79418 61.7292H2.66211V61.7939H2.79418V61.7292Z" fill="#F9EBCD"/>
<path d="M49.7784 61.8606H49.7134V61.9919H49.7784V61.8606Z" fill="#F9EBCD"/>
<path d="M62.4532 63.5766H62.3882V63.7079H62.4532V63.5766Z" fill="#F9EBCD"/>
<path d="M35.9089 63.6432H35.7769V63.7079H35.9089V63.6432Z" fill="#F9EBCD"/>
<path d="M57.8078 63.6432H57.6758V63.7079H57.8078V63.6432Z" fill="#F9EBCD"/>
<path d="M58.0071 63.6432H57.875V63.7079H58.0071V63.6432Z" fill="#F9EBCD"/>
<path d="M29.0076 33.9095C29.0103 33.891 29.1071 33.8353 29.0739 33.8112C28.6024 33.8064 28.2138 34.2966 27.9573 34.6466C27.7733 34.8975 26.853 36.5496 27.0169 36.7139C27.4408 36.7984 27.8473 36.5262 28.2477 36.5145C28.8036 36.498 28.7455 36.8912 29.0394 37.2439C29.2758 37.5272 29.6077 37.6963 29.9064 37.9026C29.8566 38.9359 28.4233 37.5622 28.1654 37.1848C27.7678 37.2405 26.5267 37.6984 26.3213 37.2412C26.0932 36.7331 26.9934 34.8858 27.3481 34.4052C26.6671 34.5304 25.9521 34.3812 25.2648 34.4774C24.478 34.5874 23.6655 35.0769 22.8379 35.2316C22.4113 35.3114 22.0013 35.3306 21.5705 35.3574C21.4557 35.4372 21.5242 35.9019 21.5 36.0793C21.4571 36.4038 21.2898 37.587 20.7774 37.2762C20.5257 37.1236 20.823 36.2952 20.8438 36.0202C20.8963 35.3079 20.7297 34.6362 20.5714 33.9508C20.4462 33.8717 19.3945 34.3736 19.1214 34.4396C18.2039 34.661 17.1239 34.7229 16.1994 34.5365C16.2803 36.5427 15.9256 39.0562 18.1444 40.0262C19.9712 40.6642 22.0676 40.6691 23.967 40.381L24.4406 37.2226C24.7331 36.9242 24.9018 37.224 24.897 37.5396C24.8873 38.1645 24.6992 38.9338 24.6902 39.5828V42.8883C24.8002 43.6466 24.7732 44.4276 24.8265 45.1949C24.8749 45.8954 25.1092 46.9177 25.0864 47.5661C25.0802 47.751 24.953 48.0061 24.7366 47.9861C24.5623 47.9449 24.4531 47.8135 24.4316 47.6341L23.9518 41.2149C23.6524 41.052 23.3295 41.2548 23.0031 41.2713C21.2974 41.3579 18.1431 41.1867 16.8314 40.0125C15.6179 38.9262 15.5232 36.6334 15.4686 35.0982C15.4617 34.9106 15.5827 34.5585 15.5073 34.3695C15.4727 34.2822 15.349 34.2671 15.2833 34.1598C14.9286 33.5775 15.154 32.989 15.2024 32.3916C15.2376 31.9536 15.08 31.4236 15.3987 31.0688C15.537 30.9155 15.777 30.8701 15.8523 30.7278C15.9104 30.6178 16.0169 29.6436 16.0031 29.4882C15.9775 29.1954 15.5979 28.8001 15.4568 28.5099C14.6064 26.7541 15.0475 23.2863 16.7069 22.0736C16.9296 21.9106 17.0817 21.8288 17.3292 21.6363C17.7877 21.2788 18.6471 21.4637 19.1996 21.5545C20.0542 21.6954 20.7387 21.7979 21.1874 22.6132C21.5166 23.2114 21.3202 23.4719 21.4557 23.9305C21.4972 24.0721 22.0559 24.4145 22.1866 24.8538C22.4645 25.7881 21.8042 27.6224 21.1439 28.3339C20.9392 28.5546 20.2637 28.8956 20.2526 29.0874C20.2485 29.1589 20.4241 29.9282 20.4607 30.0018C20.5306 30.1421 20.7698 30.2094 20.9005 30.3566C21.2116 30.7086 21.3582 32.362 21.3119 32.857C21.2877 33.1121 21.1328 33.3431 21.13 33.5012C21.1245 33.8092 21.3624 34.2691 21.3817 34.5977C22.7846 34.8136 24.0403 34.0058 25.399 33.8202C26.1837 33.7129 27.3765 33.8752 28.0278 33.5967C28.1225 33.5562 28.6314 33.2502 28.5422 33.1519C27.3467 32.9065 26.1644 32.0863 25.4605 31.1011C24.2733 29.4401 24.3812 26.5127 24.4247 24.5355C24.433 24.1512 24.6322 23.3172 24.4586 22.9886C24.366 22.8133 24.0493 22.8264 24.023 22.4929C23.9829 21.9952 24.2747 21.1179 24.2947 20.5796L24.162 20.5122C23.3758 21.461 23.0495 20.6999 23.1719 19.7924C23.3869 18.2009 26.006 15.5952 27.4352 14.9242C29.2468 14.0731 32.3493 14.1701 34.2002 14.8857C34.6808 15.0714 36.0388 15.807 36.3672 16.1624C36.5345 16.3432 36.6209 16.7702 36.7316 16.8561C36.8235 16.9269 37.367 17.0087 37.5661 17.0816C39.3514 17.7368 40.4646 20.5239 40.2869 22.2942C40.204 23.1186 39.8354 23.0416 39.6557 23.4486C39.5713 23.639 39.3058 24.8009 39.2947 25.0099C39.2788 25.3048 39.5851 25.7689 39.6238 26.1222C39.6944 26.7651 39.6086 27.6038 39.3037 28.1806L38.6953 28.9596C38.7637 29.1369 39.7559 29.4552 39.982 29.5192L40.0747 29.4092C40.8339 25.6506 41.768 21.9278 42.5922 18.1851C42.8003 17.2418 42.9054 15.9961 43.1585 15.1188C43.4184 14.2175 44.4832 14.6981 44.4003 15.2941C44.3782 15.4536 44.217 15.6007 44.271 15.7919C45.8509 16.0627 47.323 16.9668 48.3152 18.205C49.5999 19.8082 49.8965 20.9956 52.0192 21.8467C52.4361 22.0137 53.6987 22.2145 53.8418 22.5438C53.8999 22.6765 53.8909 22.7232 53.8646 22.8587C53.7678 23.3475 53.3225 24.1677 53.1435 24.7197C52.6242 26.3196 52.3352 27.8004 52.3621 29.4924C52.367 29.7976 52.5696 30.1042 52.2612 30.3765C51.9362 30.6625 50.6052 30.3951 50.1613 30.2954C47.8014 29.7646 47.1722 28.9541 45.5653 27.4065C44.4936 26.3746 43.4018 25.6582 41.8198 25.8335L40.8919 29.7131C42.0515 30.3174 42.9075 31.3871 43.0112 32.7126C42.9393 33.0144 40.6361 32.5861 40.2828 32.6521L39.7614 34.7614C39.7926 34.8645 40.5206 35.0941 40.6769 35.1739C42.308 36.0099 43.0222 38.3123 43.5858 39.9369C43.7026 40.2731 44.2627 42.3163 44.4355 42.3919C44.5351 42.4359 44.8504 41.8076 44.9645 41.7319C45.6615 40.9496 46.1538 40.9193 47.1895 40.9083C47.426 40.5611 47.5442 40.0696 47.9695 39.9018C48.4472 39.7134 49.0363 39.8805 49.5383 39.8117C49.6109 39.8014 49.8273 39.7746 49.7762 39.6543C49.4457 39.3855 49.0522 39.1181 48.9845 38.6588C48.9631 38.5124 49.0294 38.0256 48.9409 37.9631L44.3498 36.6692C42.6281 36.1673 43.3742 33.7549 45.0011 33.9728C46.6398 34.1921 48.5655 35.4193 50.2111 35.7967L51.4377 35.4317C51.5732 35.3306 51.4626 34.9676 51.5158 34.7841C51.6984 34.1612 53.232 34.6967 53.698 34.5084C53.8238 34.2272 53.6337 33.3314 53.9352 33.2303C54.3604 33.2826 56.1858 33.099 56.4368 33.2798C56.6449 33.429 56.3842 34.2024 56.546 34.4733H57.5085C57.81 34.4733 57.7325 35.2674 57.7443 35.4599C58.323 35.5266 59.0697 35.6235 59.3138 36.2416C59.468 36.6327 59.885 38.6079 59.869 38.9929C59.8511 39.4171 59.3809 39.5477 59.2675 39.8853H60.6283C61.0749 39.8853 60.8958 40.8354 60.994 41.074C61.758 40.7942 61.8853 41.5841 61.6232 42.1293L61.6564 41.866C60.9007 41.7271 60.1263 41.8626 59.3705 41.8687C57.8369 41.8811 56.286 41.8474 54.7524 41.8296C54.6245 41.8536 54.5028 41.8612 54.3867 41.9286C54.2767 41.9925 53.2036 43.0354 53.0743 43.1826C53.0093 43.2568 53.0252 43.2919 53.0294 43.3833H55.1196C55.5172 43.0987 55.7163 42.5342 56.1996 42.4112C56.4478 42.3479 57.1462 42.3307 57.4393 42.3239C58.8139 42.2929 60.1802 42.4208 61.5541 42.3974L61.7228 42.1953L61.718 47.1714C61.6654 47.5819 61.0832 48.0638 60.6773 48.1209C60.4312 48.1552 60.2901 48.0555 60.0972 48.0631C59.3726 48.092 58.8098 48.0693 58.1059 48.0645C56.9076 48.0569 55.2572 48.2075 54.1232 48.07C53.8287 48.0342 53.6724 47.8349 53.3322 47.8012C53.0397 47.7723 52.7556 47.8686 52.5253 47.8644C51.437 47.8459 50.3501 47.817 49.2735 47.8129C48.4756 47.8101 46.8321 47.9861 46.1738 47.6602C45.8046 47.4774 45.6255 47.0834 45.266 46.9466C44.8172 49.7186 41.6408 49.4539 39.8589 48.0006C39.5533 47.751 39.3238 47.2746 38.8951 47.3419C38.9442 47.6334 39.0541 48.7932 38.4574 48.3381C38.0501 48.0274 38.4214 47.0023 38.3537 46.6654C38.3136 46.4661 37.961 46.0604 37.8683 45.7565C37.7756 45.4527 37.7514 45.133 37.768 44.8147C37.515 44.6909 37.0607 44.2489 36.8056 44.2379C36.6521 44.231 36.7295 44.2551 36.7032 44.3382C36.3651 45.3853 36.2835 46.6682 36.0104 47.7407C35.942 48.0088 35.8617 48.5361 35.5299 48.5835C35.2367 48.6255 34.9214 48.4371 34.9836 48.1112L35.9115 44.0715C35.915 43.7731 35.5755 43.7484 35.3833 43.6074C34.7797 43.1647 34.2694 42.5927 34.4623 41.7787C34.4934 41.646 34.6351 41.5573 34.6476 41.4322C34.6718 41.1957 34.4125 40.8946 34.4526 40.5185C34.4969 40.108 34.8675 39.8502 34.9027 39.7066C34.9359 39.5704 34.7769 39.2872 34.7852 39.0692C34.7962 38.7757 34.9373 38.3254 35.1772 38.1356L34.0163 37.4619C33.6602 37.8675 33.5531 38.1384 33.0234 38.3687C32.7627 38.4821 31.6966 38.8795 31.7311 38.3976C31.7581 38.0277 32.7482 37.9136 33.0566 37.6104C33.4604 37.213 33.1783 36.6932 34.0108 36.7881C34.5639 36.8514 35.0002 37.2969 35.5022 37.4351C36.3077 36.1329 36.4509 34.0615 35.1447 33.022C35.0431 33.022 34.8619 33.9501 34.7921 34.122C34.1629 35.6757 32.3935 36.663 31.2706 37.8139C30.6587 38.4409 30.6981 39.2535 30.5992 40.1163C30.4582 41.3504 30.3683 42.6394 30.3303 43.8749C30.2964 44.9804 30.4485 46.3134 30.3337 47.3763C30.2646 48.0164 29.8027 48.3477 29.7329 47.5771C29.6181 46.3114 29.7626 44.9377 29.8041 43.6762C29.858 42.0385 29.8954 40.3652 30.1422 38.7379C30.1975 38.3721 30.3019 38.0297 30.4008 37.6757C30.3842 37.5134 29.9673 37.2109 29.84 37.0425C29.5718 36.6891 29.0062 35.3822 29.0062 34.9676C29.0062 34.6493 28.9654 34.2072 29.0062 33.9116L29.0076 33.9095ZM53.0971 22.8546C52.0386 22.6669 51.0187 22.2221 50.1551 21.5889C48.7342 20.5466 48.1513 18.8127 46.8238 17.7079C46.0991 17.105 45.0627 16.5907 44.1154 16.5144C44.0034 16.5412 43.5194 18.4422 43.453 18.7076C42.9171 20.8402 42.4843 23.0216 42.0141 25.1639C43.1993 25.1164 44.3657 25.5001 45.2978 26.2212C45.9975 26.763 46.485 27.5192 47.1238 28.1016C48.2937 29.1679 50.012 29.7392 51.5787 29.8121L51.7067 29.7406C51.632 27.3707 52.2591 25.0477 53.0971 22.8539V22.8546ZM30.1353 17.5752H30.0032V17.6399H30.1353V17.5752ZM38.5646 24.5699C38.763 24.7019 39.0299 23.0237 39.0327 22.8876C39.0852 20.5336 35.2056 18.8657 33.2709 18.4491C32.0623 18.1885 29.2198 18.0063 28.1523 18.6051C27.6586 18.8815 26.871 20.1046 26.7715 20.1355C26.1111 20.3417 26.3822 19.3992 26.4852 19.0266C26.3988 18.9475 25.1182 19.7443 25.0415 19.9327C24.9647 20.1211 24.7006 21.8487 24.7608 21.9299C25.4287 21.4541 26.1526 21.2162 26.9492 21.0382C29.876 20.3851 33.0711 20.7611 35.7311 22.1396C36.8063 22.6964 37.9651 23.5029 38.5646 24.5699ZM36.2566 26.2701C36.1058 25.6451 35.7698 24.9879 35.5956 24.387C35.3957 23.6988 35.514 22.9157 34.8384 22.5005C32.7572 21.2211 29.1763 21.1186 26.8703 21.7511C25.8429 22.033 25.3056 22.1636 25.1666 23.3564C24.9896 24.871 24.9696 27.9943 25.4218 29.4243C26.1236 31.6429 28.5747 33.1512 30.8924 32.879C31.2326 32.8391 33.0386 32.2128 33.1223 32.2926C33.1417 32.395 33.1119 32.4459 33.0594 32.5263C32.9073 32.7607 31.4698 33.6593 31.1503 33.7954C30.6753 33.9982 30.1553 34.0904 29.6686 34.2533C29.5932 34.9711 29.8483 35.7789 30.2418 36.3784C30.4513 36.6974 30.8025 37.2061 31.2008 37.015C31.6578 36.7957 33.5904 34.8294 33.9078 34.3599C34.557 33.4008 34.4547 32.5215 34.4609 31.4119C35.2692 30.8144 35.9454 30.0561 36.3402 29.1232C36.7986 28.9994 37.1623 29.1156 37.638 28.8963C38.7409 28.3882 39.3971 26.7932 38.7997 25.6891C38.409 24.9666 37.5281 25.1316 37.0379 25.6602C36.8042 25.9119 36.6963 26.5471 36.2566 26.2707V26.2701ZM17.9335 22.9288C18.1341 22.6091 19.3254 23.1639 19.5778 23.3551C20.0161 23.6864 20.2326 24.3127 20.9019 23.8067C20.8403 23.1612 20.7186 22.6854 20.0936 22.3809C19.7257 22.2014 18.4189 21.9065 18.0622 22.0323C17.8036 22.1231 17.6763 22.385 17.527 22.4909C17.2981 22.6531 16.9731 22.6861 16.6986 22.9226C15.6615 23.815 15.5412 26.8414 15.9878 28.0486C16.1075 28.3711 16.6302 28.9898 16.6627 29.1596C16.7401 29.5632 16.55 30.8708 16.6468 31.0881C16.774 31.3734 17.7171 31.3823 18.0165 31.3603C18.5821 31.3197 19.3047 31.1403 19.7506 30.7752C19.8391 30.5937 19.743 29.3604 19.6531 29.1679C19.6082 29.0716 19.3005 29.1761 19.3185 28.9602C20.4248 28.1737 21.6044 26.9039 21.6452 25.4622C21.6735 24.4427 20.8963 24.2117 20.1192 24.7397C20.032 24.7988 19.3095 25.4437 19.2874 25.4952C19.1214 25.8837 19.4146 26.2515 19.8163 26.2261C20.1233 26.2061 20.4061 25.7613 20.738 25.7613C20.9807 25.8321 20.7532 26.2501 20.6467 26.3677C20.46 26.5739 20.012 26.7266 19.7382 26.7231C19.2701 26.7183 19.0889 26.2625 18.7515 26.8764C18.5413 27.2587 18.5427 28.0218 17.9923 28.0672L18.0946 27.2085C17.5477 27.0717 16.2292 26.2921 17.2013 25.8527C17.444 25.9497 17.4371 26.235 17.6625 26.3821C17.8879 26.5292 18.3125 26.6221 18.5157 26.3766C18.8345 25.9916 18.7308 25.5633 18.4694 25.1831C18.1444 24.7094 17.612 24.6881 17.1225 24.4764C16.8584 23.8267 17.6514 24.0247 18.038 24.1608C18.5054 24.3251 18.7052 24.64 19.091 24.9033C20.1448 24.4606 19.434 23.8487 18.7211 23.5482C18.5102 23.4596 17.6611 23.3654 17.9349 22.9281L17.9335 22.9288ZM39.8907 30.1146C39.2097 30.0334 38.6565 29.5989 38.0329 29.3886C37.84 29.8822 38.2292 30.2857 38.5521 30.6185L38.3336 30.9066C37.7487 30.7079 37.5841 30.2335 37.4389 29.6814L36.9466 29.6615C36.688 29.7461 36.9335 30.5188 37.0054 30.7065C37.3629 31.6353 38.3613 32.4857 39.2588 32.8872L39.8907 30.1146ZM42.2133 32.1599C42.0591 31.4614 41.4831 30.7546 40.8193 30.4727C40.652 30.5511 40.4536 31.7728 40.4218 32.0279L42.2133 32.1599ZM39.0831 33.4909C37.824 32.9491 36.6396 31.9206 36.24 30.5766C36.0014 30.7044 35.9019 30.9643 35.711 31.1389C35.5886 31.251 35.0797 31.5404 35.0569 31.6099C35.0147 31.7357 35.0334 32.1351 35.1074 32.2486C35.1413 32.3008 35.4932 32.4596 35.6087 32.5579C35.7414 32.6707 35.9745 32.8852 36.0768 33.0165C36.2095 33.1863 36.361 33.5809 36.4854 33.6662C36.6652 33.7899 38.066 34.2024 38.3806 34.2897C38.559 34.3392 38.736 34.3997 38.9234 34.4087L39.0831 33.4909ZM20.4462 31.1706C20.0652 31.3273 19.7866 31.5817 19.3842 31.7309C18.3539 32.1131 16.8916 32.1578 15.8682 31.7646C15.9346 32.9869 15.2293 33.8731 16.8971 34.0079C18.1154 34.1062 19.8219 33.7844 20.6841 32.892L20.4462 31.1706ZM55.7184 33.8766H54.4904C54.4752 34.0189 54.4779 34.4871 54.6522 34.5146C55.0663 34.3303 55.8732 34.7902 55.8235 34.1069C55.8179 34.0278 55.8006 33.902 55.7177 33.8766H55.7184ZM39.4925 34.1412H39.3604V34.2059H39.4925V34.1412ZM38.7602 35.134L36.8062 34.4706C36.5981 34.5111 36.7502 35.1883 36.7461 35.3506C36.7392 35.6139 36.7143 35.9679 36.641 36.2209L36.7758 36.2924C37.3525 36.047 37.9685 36.1405 38.5625 36.2526L38.7602 35.134ZM45.4443 34.9532C45.2666 34.7944 44.6077 34.6424 44.4024 34.7669C44.2295 34.8714 44.076 35.4461 44.1721 35.6579C44.3118 35.9638 45.0198 36.0642 45.315 35.9391C45.6573 35.794 45.7016 35.1842 45.4437 34.9539L45.4443 34.9532ZM46.1952 35.1312L46.2561 35.5513L45.9954 36.3522L50.9585 37.8207C51.4716 37.9294 51.7336 37.5285 51.5062 37.0762L46.1952 35.1312ZM52.1734 35.1361L52.1291 35.398L52.4679 35.5121C53.8709 35.3237 55.4667 35.6139 56.8496 35.464C57.1593 35.4303 57.169 35.2295 56.8496 35.1938C55.7052 35.0666 54.1938 35.2275 52.9934 35.1986C52.7175 35.1917 52.4493 35.1333 52.1734 35.1367V35.1361ZM42.9967 43.593C42.9075 43.5421 42.6482 43.5634 42.6191 43.6824C42.7436 44.0619 42.6191 44.5204 42.514 44.8999C42.3032 45.6617 41.8268 46.4083 41.1464 46.8394C40.4142 47.3034 39.5381 47.1309 40.8657 47.8562C41.8261 48.3807 42.94 48.6028 43.9349 48.0294C45.1788 47.3124 44.9099 44.9687 44.4355 43.8439C44.3394 43.6157 44.1769 43.5112 44.1106 43.375C43.0831 41.241 42.6205 36.9511 40.3803 35.7988C40.2517 35.7328 39.6584 35.4702 39.5651 35.5327L39.4538 36.388C39.6771 36.6877 40.018 36.8012 40.251 37.1154C40.6575 37.6633 40.829 39.0197 40.885 39.7182C40.9334 40.3157 40.8325 40.931 40.9625 41.5216C41.4824 41.5332 41.73 41.7402 42.0411 42.1321C42.1379 42.2537 42.4331 42.7941 42.4767 42.8209C42.6247 42.911 42.8598 42.7831 43.0914 42.8642C43.6003 43.0423 44.3007 44.1897 43.5249 44.0949C43.1398 44.0481 43.1211 43.6645 42.9953 43.593H42.9967ZM53.4954 36.1866C53.0722 36.2388 51.5158 35.9975 51.2379 36.1522C51.1169 36.2195 51.2157 36.2697 51.2856 36.3048C51.5117 36.4182 51.8035 36.4801 52.0033 36.6472C52.6719 37.2082 52.1831 38.5179 51.3409 38.5681C50.8037 38.5997 50.1779 38.2484 49.6469 38.1666C49.5584 38.7461 49.7575 39.028 50.3432 39.0906C50.637 39.1222 52.9886 39.1401 53.1013 39.0617L53.4954 36.1866ZM53.7609 39.0899L58.9363 39.1222C59.2917 38.9331 59.0442 37.8482 58.9736 37.5031C58.8229 36.7668 58.7856 36.2086 57.9074 36.1212C56.7638 36.0071 55.4508 36.201 54.2892 36.1508L53.7609 39.0899ZM45.4651 36.1872H45.333V36.2519H45.4651V36.1872ZM36.1086 37.7699C36.5725 37.8359 37.9838 37.7609 38.27 38.0951C38.5445 38.4154 38.2078 38.4409 37.9305 38.434C37.06 38.4127 35.0728 37.8311 35.5755 39.391C35.9171 39.2934 37.7826 39.3573 37.8157 39.7815L37.7348 39.9479C37.5267 40.1225 37.069 39.9004 36.8035 39.8825C36.3395 39.8509 35.5077 39.8001 35.2077 40.2071C35.0777 40.3837 35.03 40.9372 35.2457 41.0396C35.2955 41.063 36.1425 40.9881 36.343 41.0004C36.6458 41.0197 37.58 41.0974 37.1941 41.5264C36.6949 41.6652 35.2125 41.2239 35.0597 41.9086C34.9138 42.5611 35.561 42.9797 36.0083 43.3118L36.2407 42.7481L36.9736 42.8154C37.152 43.23 37.2211 43.6734 37.6007 43.9732C37.9381 44.2399 38.3253 44.2145 38.6468 44.3843C39.2035 44.6792 39.2221 45.4032 39.9239 44.5679C40.5034 43.8783 40.6223 43.0485 40.457 42.1877C40.3485 41.6219 40.3326 41.4205 40.2876 40.8334C40.2212 39.9637 40.1832 38.5488 39.8562 37.7685C39.6093 37.18 38.9276 37.0088 38.3523 36.8878C37.4002 36.6877 36.4661 36.7125 36.1072 37.7678L36.1086 37.7699ZM47.9867 40.9385H48.9492C48.9845 40.9385 49.1567 41.0595 49.1746 41.1152C49.27 41.4067 48.7432 41.7161 48.5503 41.9279C48.1817 42.3314 47.8173 42.7549 47.5242 43.2162C47.5318 43.3881 48.5136 43.2486 48.681 43.2458C49.8439 43.2286 51.0097 43.2898 52.1713 43.2197C52.6761 42.9729 53.9227 41.2699 54.332 41.2053L60.2687 41.1744L60.3212 40.5852L60.2687 40.5061L50.4095 40.4243C49.9885 40.5364 48.367 40.2909 48.1167 40.59C48.0835 40.6292 47.9605 40.9145 47.9874 40.9385H47.9867ZM61.5243 41.3999V41.2686H61.4594V41.3999H61.5243ZM45.1332 43.1166H46.5603C46.5852 43.1166 46.6433 43.1874 46.6965 43.1819C46.8369 43.188 47.1072 42.5665 47.2296 42.396C47.4101 42.1458 47.7143 41.8736 47.9197 41.6315C47.8678 41.5697 47.8443 41.5374 47.7565 41.5312C47.6085 41.5202 47.2151 41.591 47.0263 41.5965C46.915 41.5999 46.8127 41.5312 46.7007 41.5387C45.8233 41.5972 45.2086 42.2792 45.1339 43.1166H45.1332ZM41.1519 42.1926V43.2156C41.1519 43.8996 40.4059 45.2375 39.7621 45.5297C39.191 45.7889 39.0776 45.4279 38.5625 45.3942C39.1212 47.6266 41.396 46.4482 41.9 44.8181C42.1697 43.9457 42.0612 42.6394 41.1512 42.1926H41.1519ZM45.1664 43.7106C45.0011 43.7106 45.127 44.2502 45.1947 44.3424L46.7304 44.341C46.8127 44.2991 46.7359 43.76 46.626 43.7106H45.1657H45.1664ZM51.9023 43.9086L47.5214 43.9422C47.6673 44.5967 48.1285 45.4616 48.7833 45.7229C49.3475 45.9477 50.4904 45.8143 51.1432 45.8198C51.4418 45.8225 51.7475 45.9106 52.0351 45.8212C51.7571 45.2224 51.7426 44.5424 51.9023 43.9086ZM54.8223 43.9079L52.694 43.8714L52.5668 43.9594L52.4341 44.4359L53.7996 44.4304L53.9269 44.5679C54.3604 44.2207 54.9087 44.8477 54.8237 43.9079H54.8223ZM55.7059 44.4565C55.2039 45.0677 55.3982 46.9404 56.3054 46.8607C57.2126 46.7809 57.2969 44.4854 56.4499 44.1657C56.1968 44.0701 55.8567 44.2729 55.7059 44.4565ZM60.8377 44.4592C60.2168 43.8089 59.6609 44.8264 59.6091 45.4011C59.4611 47.0319 61.0023 47.5317 61.1862 45.914C61.2367 45.4699 61.16 44.7954 60.8384 44.4592H60.8377ZM58.9142 46.7899C59.6098 46.0934 59.1596 43.5421 58.0706 44.5321C57.5659 44.9907 57.5071 46.2076 57.9399 46.7142C58.22 47.0415 58.5996 47.1047 58.9135 46.7899H58.9142ZM47.1245 45.6906L46.8258 44.9646H45.3655C45.1913 45.0388 45.3641 45.6906 45.4983 45.6906H47.1238H47.1245ZM52.6657 45.8885H54.7559L54.574 45.0959C54.0147 44.9618 53.4214 45.0409 52.8538 45.0718C52.6947 45.0801 52.4901 44.935 52.3781 45.1275L52.6657 45.8885ZM47.6549 46.2845H45.5978L45.6801 46.6647C45.7078 46.6916 46.189 46.8125 46.2284 46.8125H47.9204L47.6549 46.2845ZM55.2869 47.0765C55.0491 46.0116 53.671 46.6847 52.898 46.4832L53.1289 46.8112C53.1843 46.8566 53.5037 47.0765 53.5279 47.0765H55.2862H55.2869ZM60.1311 46.9452H59.999V47.0099H60.1311V46.9452ZM52.8973 47.6712H52.7653V47.7359H52.8973V47.6712Z" fill="#624D31"/>
<path d="M33.8515 54.4672L33.1199 54.0416C32.1367 53.0929 32.7735 51.4656 33.9856 51.0703C36.389 50.2858 38.7517 52.5209 36.4416 54.3696C38.6051 55.3555 37.9399 58.232 35.6098 58.4272C34.6722 58.5063 33.6579 58.3908 32.9879 57.671C32.0136 56.6253 32.3905 54.7759 33.8515 54.4672ZM34.7635 51.8444C33.7187 52.0383 33.6751 53.8684 34.9495 53.9413C36.4589 54.0272 36.434 51.5343 34.7635 51.8444ZM34.6964 55.011C33.577 55.2406 33.4435 57.0474 34.5277 57.3272C35.1576 57.4895 35.9949 57.4255 36.2259 56.7305C36.593 55.6229 35.849 54.7759 34.6964 55.0117V55.011Z" fill="#624D31"/>
<path d="M40.8708 50.9211C42.9092 50.6426 43.8177 52.4226 43.9387 54.1716C44.0833 56.2622 43.4133 58.6348 40.8543 58.4272C37.6522 58.1666 37.7304 51.3494 40.8702 50.9211H40.8708ZM41.0679 52.0424C40.6441 52.1214 40.3115 52.5477 40.1746 52.9354C39.8856 53.7536 39.7894 56.1144 40.2589 56.8411C40.7782 57.6441 41.8513 57.4688 42.2489 56.6486C42.6368 55.8497 42.6292 53.3933 42.1956 52.6047C41.9509 52.1592 41.5913 51.9447 41.0672 52.0424H41.0679Z" fill="#624D31"/>
<path d="M30.572 51.4601C31.8892 52.6047 31.6617 55.8903 30.7877 57.2612C29.8916 58.6678 27.8574 58.8493 26.7034 57.6696L27.1612 56.7896C27.3707 56.6665 27.6715 57.0948 27.8865 57.2C29.1947 57.84 30.2 56.4444 30.1357 55.2599L29.2714 55.7528C25.5729 56.5785 25.3289 50.8949 28.9748 50.8977C29.5321 50.8977 30.153 51.095 30.572 51.4601ZM28.1022 54.5112C28.7162 55.1499 29.8204 54.7924 29.9878 53.9577C30.1855 52.9712 29.7914 51.5804 28.5122 52.0279C27.6811 52.3187 27.5428 53.9289 28.1022 54.5112Z" fill="#624D31"/>
<path d="M13.7777 6.68455L14.6745 10.2485L15.7663 6.68042C15.9965 6.72786 16.4591 6.57936 16.5877 6.79455L17.4285 10.2492L18.3239 6.68455H19.3527C19.3624 6.68455 19.5145 6.7533 19.518 6.78905L18.0639 12.2664C17.9436 12.4121 17.0613 12.4169 16.9265 12.2657C16.5441 11.3644 16.4639 10.2506 16.1417 9.34999C16.1078 9.2558 16.1611 9.23861 16.002 9.25855C15.9723 9.66349 15.8803 10.0677 15.7835 10.4603C15.7137 10.7429 15.3618 12.188 15.2394 12.2952C15.0631 12.4492 14.3454 12.32 14.0805 12.3578L12.6963 6.83442L12.7834 6.68524H13.7791L13.7777 6.68455Z" fill="#624D31"/>
<path d="M24.7935 12.3606L24.6904 12.133L24.7229 6.74643C24.7935 6.64537 25.5554 6.61993 25.6598 6.81312C26.3146 7.84025 26.8539 8.96981 27.6131 9.91856V6.68456H28.5763C28.671 6.74231 28.6676 6.81587 28.6793 6.91212C28.8695 8.52293 28.5224 10.4823 28.6793 12.133L28.6136 12.3317C28.5092 12.4039 27.869 12.3791 27.7632 12.2774C27.2079 11.4104 26.7184 10.4871 26.1417 9.63393C26.0705 9.52875 25.9592 9.29293 25.8223 9.32456V12.3606H24.7935Z" fill="#624D31"/>
<path d="M58.9374 9.32525L58.9782 9.46068C59.8432 9.79893 60.0638 10.7882 59.7257 11.5933C59.3108 12.5819 57.4391 12.705 56.5886 12.2863C55.3067 11.6552 55.2707 9.88418 56.6799 9.45518C56.0265 9.0145 55.6379 8.41431 55.9172 7.60856C56.4517 6.06306 59.4719 6.21156 59.6586 7.91243C59.7194 8.46381 59.5452 9.18225 58.9367 9.32525H58.9374ZM57.5255 7.42568C56.6101 7.61131 56.7767 8.93131 57.8436 8.89281C58.9105 8.85431 58.8192 7.16375 57.5255 7.42568ZM57.5262 9.93437C56.6785 10.076 56.5354 11.2337 57.3464 11.5335C58.916 12.1137 59.3364 9.63256 57.5262 9.93437Z" fill="#624D31"/>
<path d="M12.0194 8.26789L11.0009 8.46933C10.7665 7.72339 10.3067 7.36176 9.515 7.66151C8.65555 7.98739 8.70326 10.0217 9.05105 10.7257C9.51985 11.6751 10.882 11.7755 11.1281 10.648C11.2795 9.95501 10.5224 10.3723 10.091 10.2197L10.0287 9.32389H12.1528L12.2234 11.9969L12.1431 12.351L11.4669 12.3633L11.2553 12.0299C10.7395 12.496 9.56133 12.5696 8.96324 12.265C7.57 11.5555 7.43517 8.96295 8.0464 7.71514C8.89686 5.9792 11.7884 6.2157 12.0201 8.26789H12.0194ZM9.82822 7.54189V7.41058H9.76323V7.54189H9.82822Z" fill="#624D31"/>
<path d="M33.9847 10.8096C33.7309 12.6906 30.9949 13.0281 30.0401 11.5644C29.4378 10.6411 29.3666 8.83095 29.8029 7.83889C30.6243 5.97164 33.4869 6.12357 33.8554 8.23145L32.7975 8.45901C32.7194 7.7722 32.1151 7.37207 31.4499 7.62851C30.4307 8.02107 30.486 10.5084 31.1616 11.1746C31.5889 11.5954 32.4919 11.5617 32.7574 10.9753C33.1958 10.0079 32.6316 10.2438 31.9284 10.1812L31.9263 9.32389C32.6212 9.29432 33.2905 9.27714 33.984 9.32389C33.9391 9.79001 34.0449 10.3565 33.984 10.8089L33.9847 10.8096Z" fill="#624D31"/>
<path d="M39.6454 11.152C40.0022 11.4792 40.8312 11.4455 41.0352 10.9574C41.1071 10.7855 41.1534 9.99489 41.1583 9.75358C41.1666 9.31908 41.0843 8.74295 41.0808 8.3002C41.0781 7.99564 41.0394 6.89083 41.1839 6.74851C41.291 6.64333 42.0406 6.65089 42.1719 6.74439C42.2597 6.86195 42.2722 7.03451 42.2832 7.17683C42.3476 8.02108 42.3724 10.3414 42.1692 11.0942C41.6119 13.156 38.4755 12.9257 38.2964 10.5476C38.2045 9.33145 38.3462 7.97501 38.3282 6.74576C38.3891 6.65845 39.3606 6.58214 39.4138 6.86195C39.5258 8.04583 39.3094 9.37889 39.4283 10.5435C39.4456 10.714 39.5217 11.0365 39.6468 11.1513L39.6454 11.152Z" fill="#624D31"/>
<path d="M47.3234 7.80655L47.2826 8.66042L47.3552 8.79517C48.9897 8.32973 50.291 8.9863 50.1099 10.8095C49.9529 12.3839 48.2741 12.8322 46.9915 12.1955C46.7689 12.0849 46.2821 11.6834 46.2095 11.4558C46.0435 10.9326 46.6472 11.044 46.9597 10.7848C47.2052 11.1602 47.3988 11.4056 47.8848 11.4393C48.756 11.4991 49.1412 11.0179 48.9669 10.1654C48.848 9.58373 48.1379 9.51636 47.6511 9.61811C47.3946 9.67242 47.2466 9.88761 47.0897 9.91717C46.9611 9.94192 46.325 9.92955 46.2703 9.84292L46.3996 6.75605L49.6694 6.69211C49.8409 6.74848 49.8354 7.67042 49.6791 7.80655H47.3234Z" fill="#624D31"/>
<path d="M24.0964 12.3606H23.0012C22.6375 11.9969 22.9486 11.2956 22.3416 11.2351C22.1452 11.2152 20.8688 11.2173 20.7775 11.2709L20.4463 12.3606H19.3843C19.3718 12.2244 19.3871 12.0952 19.414 11.9611C19.5281 11.3981 19.8462 10.5848 20.0287 9.99832C20.3723 8.89282 20.7589 7.79282 21.1205 6.69557L21.2062 6.67907C21.4779 6.73682 22.2157 6.57114 22.3651 6.7877L24.095 12.3599L24.0964 12.3606ZM22.3028 10.1791C22.3554 10.1042 21.8548 8.60064 21.7766 8.43082C21.7462 8.36551 21.7365 8.27614 21.6425 8.26857L21.1149 10.1413C21.1723 10.3359 22.1134 10.2541 22.3028 10.1791Z" fill="#624D31"/>
<path d="M22.8362 58.2966L22.8424 57.4448L23.5228 57.3788L23.6922 56.8707L23.6998 52.6543C23.6763 52.47 22.794 53.0489 22.7041 52.9506L22.7166 52.0726C22.7636 51.9173 23.3416 51.6718 23.5207 51.5529C24.0075 51.2277 24.3006 50.8255 24.963 51.0036L25.0259 51.1356L25.0301 57.1381C25.0785 57.5788 25.4899 57.4166 25.8225 57.4393V58.2973H22.8362V58.2966ZM24.3622 54.1393H24.2301V54.2039H24.3622V54.1393Z" fill="#624D31"/>
<path d="M37.1371 6.68456C37.2319 6.74231 37.2284 6.81587 37.2402 6.91212C37.3114 7.51781 37.3238 10.7408 37.1918 11.2269C36.9014 12.2973 35.82 12.782 34.8264 12.2162C34.1495 11.8312 34.4371 11.484 34.8195 10.9752C34.9826 10.9374 35.5137 11.7205 35.9776 11.1409C36.0343 11.0708 36.1747 10.7408 36.1747 10.6769V6.68387H37.1371V6.68456Z" fill="#624D31"/>
<path d="M53.5615 8.10357L53.4267 8.03344C53.2829 8.08363 52.812 8.57382 52.6993 8.46725L52.5977 7.54463C52.6246 7.47863 53.6735 6.71825 53.742 6.699C53.8761 6.6605 54.5295 6.65363 54.5945 6.74644C54.6415 8.62538 54.6623 10.4885 54.6236 12.3613C54.477 12.3186 53.5615 12.4197 53.5615 12.2623V8.10425V8.10357Z" fill="#624D31"/>
<path d="M16.3225 42.2675L16.5313 43.5779C16.655 43.6068 16.6599 43.536 16.7186 43.4679C17.0436 43.0946 17.2296 42.0324 17.8505 42.6312C17.6362 43.3283 17.6141 44.1478 17.4294 44.8346C17.3389 45.1722 17.2172 45.133 16.9247 44.9893L17.0609 43.9079C16.9413 43.7745 16.6039 44.5239 16.5631 44.5672C16.2257 44.9254 16.1482 43.9079 16.1316 43.7092C16.0376 43.5937 16.0141 43.7209 16.0009 43.8089C15.9664 44.0385 15.9435 44.6703 15.8329 44.8326C15.7582 44.9426 15.378 44.8271 15.3413 44.7233L15.8046 42.196L16.3218 42.2668L16.3225 42.2675Z" fill="#624D31"/>
<path d="M12.2846 42.7859C12.4056 42.8127 12.4146 42.7488 12.472 42.6759C12.7693 42.2971 12.9235 41.393 13.5168 41.7924L13.0853 44.2757C12.2445 44.5198 12.8081 43.4906 12.815 43.0506C12.6345 43.0107 12.7016 43.1056 12.6511 43.1819C12.537 43.3524 12.3324 43.8989 12.1194 43.8419C11.9859 43.8061 11.9783 43.0588 11.8532 42.9186C11.5213 43.3173 11.8995 44.3328 11.0981 43.9656C11.1486 43.6487 11.5089 41.4404 11.616 41.3614C12.1602 40.9599 12.257 42.5226 12.2846 42.7859Z" fill="#624D31"/>
<path d="M19.1283 48.0741C19.0219 48.3024 19.483 49.1081 19.2106 49.1837C19.1138 49.1837 18.9804 49.1576 18.9002 49.1095C18.598 48.9287 18.6277 47.9834 18.356 48.0019L18.1209 48.9211L17.5947 48.8544L18.058 46.2179C18.5524 46.321 19.333 46.3237 19.6116 46.8174C19.8495 47.2388 19.6511 47.9916 19.1283 48.0741ZM18.5268 46.8174L18.4168 47.542L19.0571 47.575C19.2715 47.1233 19.0398 46.7424 18.5268 46.8174Z" fill="#624D31"/>
<path d="M16.5659 45.9236C17.5118 45.9601 17.5775 46.838 17.4537 47.564C17.3361 48.2508 17.0271 48.7816 16.2368 48.6558C15.5301 48.543 15.4216 47.993 15.4783 47.3811C15.5412 46.6998 15.7327 45.8913 16.5666 45.9236H16.5659ZM16.7761 46.5032C16.0003 45.9312 15.6283 48.7307 16.5942 48.0961C16.9337 47.8734 17.0803 46.728 16.7761 46.5032Z" fill="#624D31"/>
<path d="M19.5577 44.0172C19.5474 44.0371 19.4526 44.0357 19.4471 44.0804C19.4271 44.2564 19.6635 44.5115 19.5702 44.9178C19.3669 45.804 18.439 45.2368 17.8589 45.2279L18.3291 42.6607C19.2051 42.6442 20.0812 43.0182 19.5577 44.0172ZM19.1028 43.2644C18.8276 42.9811 18.6506 43.2314 18.6513 43.5476C18.652 44.0426 19.5294 43.7044 19.1028 43.2644ZM18.6264 44.176L18.4611 44.7906C19.1353 45.2691 19.4326 44.3039 18.6264 44.176Z" fill="#624D31"/>
<path d="M9.36767 45.6218L10.0301 45.7277L10.261 44.8277C10.3184 44.7638 10.6828 44.8298 10.7298 44.8937C10.8791 45.0972 10.3509 47.0889 10.2887 47.4677L9.82471 47.366L9.95677 46.2887C9.74727 46.2736 9.5267 46.1773 9.32411 46.156C9.18444 46.1416 9.25428 46.1601 9.22455 46.244C9.16577 46.4104 9.07934 47.1639 9.02334 47.1989C8.89127 47.2168 8.55178 47.2574 8.50684 47.1006L8.99775 44.6318C9.08072 44.4991 9.46239 44.6359 9.48798 44.737L9.36767 45.6211V45.6218Z" fill="#624D31"/>
<path d="M8.7009 42.4573C8.73823 42.6862 9.11714 43.4617 8.90211 43.6164C8.84264 43.659 8.51421 43.5731 8.46788 43.5133C8.2971 43.2926 8.41465 42.5178 8.00393 42.3906L7.7647 43.3723L7.3125 43.3077L7.77645 40.678C8.20721 40.7076 9.05768 40.7481 9.24782 41.2184C9.42345 41.6515 9.22639 42.3823 8.7009 42.4566V42.4573ZM8.68292 41.9767C9.03071 41.6907 8.65665 41.1826 8.27429 41.206C8.14292 41.2335 8.09036 41.8529 8.10696 41.9911C8.26875 41.9994 8.5474 42.0881 8.68292 41.9767Z" fill="#624D31"/>
<path d="M22.9168 45.0436C22.8082 45.2272 23.0454 45.9821 23.1007 46.2179C22.2143 46.3856 22.6582 45.5565 22.2717 45.0979C22.1036 45.0993 22.0718 45.859 22.0366 46.0171L21.5166 45.9463L21.9819 43.3895C22.9036 43.2726 23.873 43.9973 23.138 44.9034C23.0786 44.9769 22.934 45.0141 22.9168 45.0436ZM22.7529 44.5528C22.9783 44.33 22.7453 43.8281 22.3795 43.9835L22.3048 44.6346C22.43 44.6353 22.6616 44.6428 22.7529 44.5528Z" fill="#624D31"/>
<path d="M20.7197 43.6521L20.6734 44.1107L21.3033 44.2434C21.3434 44.3609 21.2791 44.726 21.1463 44.7466L20.5842 44.6387L20.4507 45.1873L21.1484 45.4217L21.0654 45.8253C20.8393 45.7868 19.8471 45.762 19.8091 45.5276L20.2488 43.0512L21.4789 43.2431L21.4457 43.6817L20.719 43.6514L20.7197 43.6521Z" fill="#624D31"/>
<path d="M13.5437 46.1519C13.2533 46.1051 13.2671 45.7992 12.9145 45.8157C12.2763 45.8459 13.1558 46.4805 13.2789 46.6476C13.525 46.981 13.6011 47.6362 13.1828 47.8713C12.6891 48.1497 11.4044 47.7056 12.0523 47.0759C12.2092 47.2141 12.8322 47.6431 12.9415 47.2979C13.0922 46.8208 11.9672 46.6709 12.1643 45.8026C12.3337 45.0581 13.3757 45.2038 13.7332 45.7325L13.543 46.1512L13.5437 46.1519Z" fill="#624D31"/>
<path d="M11.0864 41.2053L11.0898 41.6646L10.2981 41.6027L10.1758 42.0303L10.8886 42.2599L10.8146 42.6443L10.202 42.5934C10.0382 42.6415 9.99805 43.1489 10.0354 43.307L10.6632 43.4438L10.6245 43.9086L9.43799 43.703L9.86115 41.0692C9.97178 40.9131 10.8637 41.2294 11.0857 41.2053H11.0864Z" fill="#624D31"/>
<path d="M14.4745 42.3899L14.4074 42.9179L15.0055 43.0162C15.3021 43.8357 14.3134 43.3352 14.2753 43.3806L14.2034 44L14.9108 44.2338L14.8278 44.6394C14.6204 44.583 13.6683 44.5569 13.6157 44.3946L14.0769 41.8646L15.2067 42.0241C15.4881 42.7274 14.9101 42.4346 14.4731 42.3906L14.4745 42.3899Z" fill="#624D31"/>
<path d="M20.5799 47.7359C20.7327 47.9133 21.077 46.9164 21.1212 46.8896H21.532L21.644 47.1068C21.4504 47.5152 21.0327 47.9834 20.862 48.3801C20.6912 48.7768 20.8046 49.4773 20.2839 49.3859C19.8621 49.3116 20.2625 48.5849 20.2438 48.2405C20.2321 48.0239 19.849 46.6758 19.9161 46.6153C20.6061 46.4729 20.5702 47.2677 20.5799 47.7366V47.7359Z" fill="#624D31"/>
<path d="M15.5367 46.2186L15.0126 46.2254L14.6738 48.3306L14.147 48.2604L14.4671 46.189L14.1055 46.024V45.6198C14.2147 45.4596 15.2429 45.7765 15.4731 45.7854L15.5367 46.2172V46.2186Z" fill="#624D31"/>
<path d="M10.1442 31.5494C9.95341 31.7384 9.7038 31.5521 9.56414 31.4009C9.38298 31.2042 8.3645 29.7687 8.28775 29.568C8.26148 29.4992 8.22137 29.4374 8.23451 29.3583L8.32993 29.1844L8.53183 29.1211C8.88792 29.1576 9.7529 30.4157 9.94996 30.7533C10.0654 30.9506 10.333 31.3624 10.1442 31.5501V31.5494Z" fill="#624D31"/>
<path d="M11.6015 34.0175C11.8234 33.9549 12.2334 34.43 12.3842 34.6012C12.622 34.8714 13.3024 35.8071 13.3833 36.1185C13.4552 36.3956 13.1482 36.4973 12.9795 36.3901C12.8315 36.2959 12.008 35.2096 11.8587 34.9917C11.7225 34.7937 11.1866 34.1337 11.6015 34.0168V34.0175Z" fill="#624D31"/>
<path d="M51.4047 11.077C52.3941 10.8481 52.5766 12.2244 51.8527 12.4101C50.7685 12.6871 50.6019 11.2633 51.4047 11.077Z" fill="#624D31"/>
<path d="M9.53075 33.5699C9.84466 33.572 9.8979 33.9412 9.69739 34.1743C9.54942 34.3461 8.36707 35.1361 8.14788 35.2144C7.89274 35.3059 7.7351 34.9071 7.97019 34.6342C8.08358 34.5029 9.43118 33.5693 9.53075 33.5699Z" fill="#624D31"/>
<path d="M10.8271 47.6011L11.3029 45.0759L11.3851 44.979C11.4916 45.0306 11.699 45.0072 11.7454 45.1371C11.8608 45.4623 11.354 47.047 11.3616 47.5111C11.2842 47.7888 11.0311 47.619 10.8271 47.6004V47.6011Z" fill="#624D31"/>
<path d="M13.4553 31.1224C13.7111 31.0984 13.8757 31.2641 13.7983 31.5198C13.7367 31.7226 12.0731 32.8591 12.1485 32.065C12.1651 31.8883 13.2776 31.1396 13.4553 31.1224Z" fill="#624D31"/>
<path d="M7.85478 32.1771C8.04423 31.9963 9.21967 32.2933 9.45407 32.4342C9.52528 32.4768 9.62139 32.5291 9.60203 32.6267C9.50385 33.1114 9.06548 32.9416 8.69971 32.8543C8.48122 32.802 7.49731 32.5188 7.85478 32.1771Z" fill="#624D31"/>
<path d="M10.3403 34.4128C10.5366 34.3571 10.686 34.4788 10.6784 34.6809C10.6701 34.9161 10.4011 36.0882 10.063 35.9872C9.82031 35.915 9.99524 34.5097 10.3403 34.4128Z" fill="#624D31"/>
<path d="M11.5297 29.5907C12.0482 29.4401 11.8346 30.8591 11.7011 31.0853C11.5788 31.2922 11.4135 31.3005 11.3195 31.0743C11.231 30.8619 11.2683 29.6663 11.5297 29.5907Z" fill="#624D31"/>
<path d="M12.3326 32.8976C12.6134 32.8185 13.8386 33.3754 13.6498 33.6792C13.4286 34.0347 12.2642 33.4304 12.1778 33.088C12.1556 33.0007 12.2628 32.9175 12.3326 32.8976Z" fill="#624D31"/>
<path d="M36.2566 26.2701C36.6964 26.5464 36.8042 25.9112 37.0379 25.6596C37.5282 25.1316 38.4084 24.9659 38.7997 25.6884C39.3971 26.7926 38.7409 28.3883 37.6381 28.8956C37.1624 29.1149 36.7987 28.9988 36.3403 29.1225C35.9455 30.0554 35.2686 30.8138 34.461 31.4112C34.4554 32.5208 34.5571 33.4001 33.9078 34.3592C33.5904 34.8281 31.6572 36.795 31.2008 37.0143C30.8026 37.2054 30.4513 36.6974 30.2418 36.3777C29.8484 35.7782 29.5933 34.9704 29.6686 34.2526C30.1554 34.0897 30.6754 33.9976 31.1504 33.7948C31.4705 33.6579 32.9073 32.7594 33.0594 32.5256C33.112 32.4445 33.141 32.3943 33.1223 32.2919C33.0387 32.2121 31.2327 32.8384 30.8925 32.8783C28.5748 33.1499 26.123 31.6422 25.4218 29.4236C24.9696 27.9936 24.9897 24.8703 25.1667 23.3558C25.3057 22.1629 25.8429 22.0323 26.8704 21.7504C29.1763 21.1179 32.758 21.2211 34.8385 22.4998C35.5147 22.9151 35.3965 23.6981 35.5956 24.3863C35.7698 24.9872 36.1066 25.6444 36.2566 26.2694V26.2701ZM26.2018 22.7315C25.5947 23.1241 26.7148 23.7236 27.0619 23.8982C27.3627 24.0494 28.9765 24.7892 28.7304 23.9573C28.646 23.672 28.032 23.5586 27.7893 23.4383C27.4802 23.2856 26.4673 22.66 26.2018 22.7315ZM33.569 22.8023C33.3028 22.825 32.6459 23.1667 32.3099 23.2678C32.0057 23.3599 30.6892 23.5964 30.6111 23.8219C30.4935 24.1615 30.6373 24.3348 30.9754 24.3485C31.541 24.3719 33.2765 23.8363 33.7889 23.551C34.3517 23.2382 34.0585 22.7611 33.569 22.8023ZM26.3325 25.2368C26.0524 25.3069 26.17 25.6809 26.2861 25.8576C26.6422 26.3986 27.4802 26.5231 27.9691 26.0789C28.2007 25.8686 28.496 25.2574 27.9919 25.2374C27.8183 25.3309 27.705 25.5606 27.5418 25.6534C26.8918 26.0233 26.6021 25.1694 26.3325 25.2368ZM31.5715 25.3722C31.0722 25.7338 31.6551 26.345 32.0976 26.4138C32.572 26.488 33.5026 26.2721 33.5863 25.7201C33.6921 25.0209 32.7794 25.8954 32.3894 25.8617C31.9109 25.8204 31.9462 25.4877 31.5715 25.3722ZM38.2832 26.5368C38.5702 25.9126 37.5911 25.9277 37.3761 26.4584C37.2053 26.8799 37.3615 27.0325 37.3989 27.3983C37.4175 27.577 37.2627 27.9228 37.5026 28.0397C37.7425 28.1566 37.9195 27.7241 37.9396 27.5413C37.9734 27.2319 37.7487 26.9782 37.8656 26.6812L38.2832 26.5361V26.5368ZM28.9903 26.2371C28.7103 25.949 28.1751 26.8173 28.097 27.0634C27.7644 28.1126 28.5796 28.6571 29.5082 28.2666L29.4778 27.9118C29.0394 27.6781 28.4178 27.9503 28.6612 27.2271C28.7532 26.9541 29.2835 26.5375 28.991 26.2364L28.9903 26.2371ZM28.0285 30.2954C28.2505 30.5161 28.4849 30.2232 28.6764 30.1483C29.3236 29.8959 29.9141 29.8045 30.5979 30.0169C30.7514 30.0644 32.3569 30.9733 31.8639 30.1434C31.3101 29.2112 29.0221 29.073 28.2145 29.689C28.0396 29.8224 27.8315 30.0994 28.0285 30.2954Z" fill="#F9EBCD"/>
<path d="M53.0972 22.8546C52.2598 25.0477 51.6327 27.3708 51.7067 29.7413L51.5788 29.8128C50.012 29.7399 48.2931 29.1686 47.1239 28.1023C46.485 27.5199 45.9975 26.7637 45.2978 26.2219C44.3664 25.5008 43.1993 25.1164 42.0142 25.1646C42.4836 23.0223 42.9172 20.8409 43.453 18.7083C43.5194 18.4429 44.0034 16.5419 44.1154 16.5151C45.0627 16.5921 46.0992 17.1064 46.8238 17.7086C48.1513 18.8134 48.7342 20.5473 50.1551 21.5896C51.0187 22.2228 52.0386 22.6676 53.0972 22.8553V22.8546Z" fill="#F9EBCD"/>
<path d="M38.5646 24.5699C37.9658 23.5029 36.8063 22.6964 35.7311 22.1396C33.0712 20.7611 29.8754 20.3844 26.9492 21.0382C26.152 21.2162 25.4287 21.4541 24.7608 21.9299C24.7007 21.8487 24.9634 20.1238 25.0415 19.9327C25.1197 19.7416 26.3988 18.9468 26.4853 19.0266C26.3822 19.3985 26.1112 20.3417 26.7715 20.1355C26.8704 20.1046 27.6586 18.8815 28.1523 18.6051C29.2199 18.007 32.0624 18.1892 33.271 18.4491C35.2056 18.8657 39.0853 20.5342 39.0327 22.8876C39.03 23.0244 38.7631 24.7026 38.5646 24.5699ZM34.3593 19.8901C34.257 19.9203 34.2335 20.0069 34.2597 20.1039C34.3033 20.2689 35.6025 20.9296 35.8632 21.0842C36.1674 21.2651 36.4834 21.5806 36.8118 21.7243C37.1154 21.8577 37.4424 21.9491 37.2412 21.4954C37.1154 21.2107 36.1391 20.6387 35.821 20.4662C35.5645 20.3273 34.5965 19.8192 34.36 19.8894L34.3593 19.8901Z" fill="#F9EBCD"/>
<path d="M17.934 22.9288C17.6595 23.366 18.5093 23.4602 18.7201 23.5489C19.4337 23.85 20.1438 24.4612 19.0901 24.904C18.7042 24.6414 18.5044 24.3258 18.037 24.1615C17.6505 24.0254 16.8574 23.828 17.1215 24.477C17.6111 24.6888 18.1435 24.7101 18.4685 25.1838C18.7298 25.564 18.8328 25.9923 18.5148 26.3773C18.3115 26.6227 17.896 26.5361 17.6616 26.3828C17.4272 26.2295 17.4438 25.9504 17.2004 25.8534C16.2282 26.2927 17.5475 27.0724 18.0937 27.2092L17.9914 28.0679C18.5417 28.0225 18.5411 27.2587 18.7506 26.8771C19.0887 26.2632 19.2698 26.719 19.7372 26.7238C20.011 26.7265 20.4591 26.5746 20.6458 26.3684C20.7523 26.2508 20.9798 25.8328 20.7371 25.762C20.4045 25.762 20.1224 26.2068 19.8154 26.2267C19.413 26.2529 19.1205 25.8844 19.2864 25.4959C19.3086 25.4444 20.0318 24.7988 20.1182 24.7404C20.8954 24.2117 21.6726 24.4434 21.6442 25.4629C21.6041 26.9046 20.4238 28.1744 19.3175 28.9609C19.2996 29.1768 19.6073 29.0723 19.6522 29.1685C19.7421 29.361 19.8375 30.5937 19.7497 30.7759C19.3037 31.1403 18.5812 31.3197 18.0156 31.361C17.7162 31.3823 16.7731 31.3734 16.6458 31.0887C16.549 30.8715 16.7392 29.5639 16.6617 29.1603C16.6292 28.9905 16.1065 28.3717 15.9869 28.0493C15.5402 26.842 15.6605 23.8157 16.6977 22.9233C16.9722 22.6868 17.2972 22.6538 17.526 22.4915C17.6754 22.3857 17.8026 22.1237 18.0612 22.033C18.418 21.9079 19.7248 22.2021 20.0926 22.3815C20.7177 22.6861 20.8394 23.1619 20.9009 23.8074C20.2323 24.3134 20.0152 23.6871 19.5768 23.3557C19.3245 23.1646 18.1324 22.6098 17.9326 22.9295L17.934 22.9288Z" fill="#F9EBCD"/>
<path d="M36.109 37.7699C36.4679 36.7146 37.402 36.6898 38.3541 36.8899C38.9294 37.0109 39.6111 37.1814 39.858 37.7706C40.185 38.5502 40.2224 39.9657 40.2894 40.8354C40.3344 41.4225 40.3503 41.624 40.4588 42.1898C40.6241 43.0505 40.5052 43.8804 39.9257 44.5699C39.2232 45.4059 39.2053 44.6813 38.6486 44.3864C38.3271 44.2159 37.9399 44.242 37.6025 43.9752C37.2229 43.6748 37.1531 43.232 36.9754 42.8175L36.2425 42.7501L36.0101 43.3139C35.5635 42.9818 34.9156 42.5631 35.0615 41.9107C35.2143 41.2259 36.6967 41.6673 37.1959 41.5284C37.5818 41.0994 36.6476 41.0217 36.3448 41.0025C36.145 40.9901 35.2973 41.065 35.2475 41.0417C35.0318 40.9392 35.0795 40.3858 35.2095 40.2091C35.5095 39.8021 36.3413 39.853 36.8053 39.8846C37.0708 39.9025 37.5285 40.1246 37.7366 39.9499L37.8175 39.7835C37.7837 39.3594 35.9189 39.2954 35.5773 39.393C35.0753 37.8324 37.0618 38.4147 37.9323 38.4361C38.2096 38.4429 38.5456 38.4175 38.2718 38.0971C37.9856 37.763 36.5743 37.8372 36.1104 37.7719L36.109 37.7699Z" fill="#F9EBCD"/>
<path d="M42.9966 43.593C43.1218 43.6645 43.1411 44.0474 43.5262 44.0949C44.302 44.1897 43.6016 43.0423 43.0927 42.8642C42.8611 42.7831 42.6267 42.911 42.478 42.8209C42.4345 42.7941 42.1392 42.2537 42.0424 42.1321C41.7306 41.7402 41.4837 41.5332 40.9638 41.5216C40.8331 40.9303 40.9341 40.3157 40.8863 39.7182C40.8296 39.0197 40.6589 37.6633 40.2523 37.1154C40.0193 36.8012 39.6777 36.6877 39.4551 36.388L39.5664 35.5327C39.6597 35.4702 40.253 35.7328 40.3816 35.7988C42.6212 36.9511 43.0844 41.2411 44.1119 43.3751C44.1776 43.5119 44.3401 43.6157 44.4369 43.8439C44.9119 44.9687 45.1808 47.3124 43.9363 48.0294C42.9406 48.6028 41.8267 48.3807 40.867 47.8562C39.5394 47.1309 40.4155 47.3034 41.1477 46.8394C41.8281 46.4083 42.3045 45.6617 42.5154 44.8999C42.6205 44.5204 42.7449 44.0619 42.6205 43.6824C42.6495 43.5634 42.9088 43.5421 42.998 43.593H42.9966Z" fill="#F9EBCD"/>
<path d="M47.9867 40.9386C47.9597 40.9145 48.0835 40.6292 48.116 40.59C48.3663 40.2903 49.9877 40.5357 50.4088 40.4243L60.268 40.5061L60.3205 40.5852L60.268 41.1744L54.3313 41.2053C53.9227 41.2699 52.676 42.9736 52.1706 43.2197C51.009 43.2898 49.8432 43.2286 48.6802 43.2458C48.5122 43.2486 47.531 43.3881 47.5234 43.2163C47.8166 42.7549 48.181 42.3314 48.5495 41.9279C48.7424 41.7161 49.2693 41.4068 49.1739 41.1153C49.1559 41.0603 48.9838 40.9386 48.9485 40.9386H47.986H47.9867ZM53.2955 41.2026C53.0764 41.2287 52.7666 41.1462 52.5668 41.2363C52.4388 41.294 51.5013 42.2634 51.6361 42.3899C51.7931 42.3651 51.9521 42.4518 52.1049 42.4284C52.3324 42.394 53.0134 41.7024 53.1614 41.4982C53.2257 41.4095 53.3108 41.3243 53.2948 41.2026H53.2955Z" fill="#F9EBCD"/>
<path d="M53.7612 39.0899L54.2895 36.1508C55.4511 36.201 56.7641 36.0071 57.9078 36.1213C58.7859 36.2086 58.8232 36.7668 58.974 37.5031C59.0445 37.8489 59.292 38.9338 58.9366 39.1222L53.7612 39.0899Z" fill="#F9EBCD"/>
<path d="M20.4466 31.1706L20.6844 32.8921C19.8222 33.7837 18.1157 34.1055 16.8974 34.0079C15.2297 33.8738 15.935 32.9869 15.8686 31.7646C16.8919 32.1578 18.3543 32.1131 19.3845 31.7309C19.7869 31.5817 20.0656 31.3273 20.4466 31.1706Z" fill="#F9EBCD"/>
<path d="M51.9024 43.9086C51.742 44.5431 51.7565 45.2224 52.0352 45.8212C51.7482 45.9106 51.4419 45.8226 51.1432 45.8198C50.4905 45.8136 49.3483 45.9477 48.7834 45.7229C48.1286 45.4616 47.6674 44.5968 47.5215 43.9423L51.9024 43.9086Z" fill="#F9EBCD"/>
<path d="M39.0834 33.4909L38.9237 34.4087C38.7363 34.3998 38.5593 34.3393 38.3809 34.2898C38.0663 34.2024 36.6661 33.7899 36.4857 33.6662C36.3612 33.5809 36.2098 33.1863 36.077 33.0165C35.9747 32.8852 35.7417 32.6707 35.6089 32.5579C35.4934 32.4596 35.1415 32.3008 35.1076 32.2486C35.0343 32.1351 35.015 31.7357 35.0572 31.6099C35.0807 31.5411 35.5896 31.251 35.7112 31.1389C35.9021 30.9643 36.001 30.7044 36.2402 30.5766C36.6398 31.9206 37.8243 32.9491 39.0834 33.4909Z" fill="#F9EBCD"/>
<path d="M46.1954 35.1313L51.5063 37.0762C51.7338 37.5286 51.4725 37.9294 50.9587 37.8208L45.9956 36.3523L46.2563 35.5513L46.1954 35.1313Z" fill="#F9EBCD"/>
<path d="M39.8909 30.1145L39.2589 32.8872C38.3614 32.4857 37.3623 31.6353 37.0055 30.7065C36.9336 30.5188 36.6881 29.746 36.9467 29.6615L37.439 29.6814C37.5842 30.2342 37.7488 30.7079 38.3338 30.9065L38.5523 30.6185C38.23 30.2857 37.8408 29.8822 38.033 29.3885C38.656 29.5989 39.2098 30.0334 39.8909 30.1145Z" fill="#F9EBCD"/>
<path d="M41.1522 42.1926C42.0621 42.6394 42.1707 43.9457 41.901 44.8181C41.397 46.4482 39.1228 47.6266 38.5635 45.3943C39.0779 45.4279 39.192 45.7882 39.7631 45.5297C40.4068 45.2382 41.1529 43.9003 41.1529 43.2156V42.1926H41.1522Z" fill="#F9EBCD"/>
<path d="M53.4955 36.1865L53.1014 39.0617C52.988 39.14 50.6372 39.1222 50.3433 39.0905C49.7577 39.028 49.5585 38.7461 49.647 38.1665C50.1781 38.2484 50.8038 38.6004 51.341 38.568C52.1832 38.5179 52.6721 37.2082 52.0034 36.6472C51.8043 36.4801 51.5118 36.4182 51.2857 36.3048C51.2159 36.2697 51.117 36.2195 51.238 36.1522C51.5167 35.9968 53.0724 36.2381 53.4955 36.1865Z" fill="#F9EBCD"/>
<path d="M55.7064 44.4565C55.8571 44.2729 56.1973 44.0708 56.4503 44.1657C57.2973 44.4847 57.2427 46.7782 56.3058 46.8607C55.3689 46.9432 55.2044 45.0677 55.7064 44.4565ZM56.1938 44.9041C55.9331 44.9776 55.8792 46.0646 56.3127 46.0233C56.7331 45.9834 56.7276 44.7542 56.1938 44.9041Z" fill="#F9EBCD"/>
<path d="M45.1335 43.1166C45.2082 42.2792 45.8229 41.5972 46.7003 41.5388C46.8123 41.5312 46.9146 41.5999 47.026 41.5965C47.2154 41.5903 47.6082 41.5202 47.7561 41.5312C47.8439 41.5374 47.8674 41.5697 47.9193 41.6316C47.7146 41.8743 47.4097 42.1465 47.2292 42.3961C47.1069 42.5659 46.8365 43.1881 46.6961 43.1819C46.6429 43.1874 46.5848 43.1166 46.5599 43.1166H45.1328H45.1335Z" fill="#F9EBCD"/>
<path d="M58.9143 46.7899C58.5997 47.1048 58.2201 47.0415 57.9407 46.7143C57.5079 46.2076 57.5667 44.9907 58.0714 44.5321C59.1604 43.5421 59.6105 46.0934 58.9149 46.7899H58.9143ZM58.722 45.1784C58.2235 44.6758 57.9158 46.0096 58.386 46.1443C58.8264 46.2708 58.9668 45.4252 58.722 45.1784Z" fill="#F9EBCD"/>
<path d="M60.8379 44.4592C61.1594 44.7961 61.2362 45.4699 61.1857 45.914C61.0018 47.5317 59.4613 47.0319 59.6085 45.4011C59.6604 44.8264 60.2163 43.8089 60.8372 44.4592H60.8379ZM60.3726 44.9735C60.0877 45.0264 60.0421 46.0652 60.3643 46.0914C60.8607 46.1312 60.9195 44.99 60.3726 44.9735Z" fill="#F9EBCD"/>
<path d="M38.7604 35.134L38.5626 36.2526C37.9687 36.1405 37.3526 36.047 36.7759 36.2925L36.6411 36.221C36.7144 35.968 36.7393 35.6139 36.7462 35.3506C36.7504 35.189 36.5982 34.5111 36.8064 34.4706L38.7604 35.134Z" fill="#F9EBCD"/>
<path d="M52.666 45.8886L52.3784 45.1275C52.4904 44.9357 52.6951 45.0808 52.8541 45.0718C53.4225 45.0409 54.0157 44.9618 54.5744 45.0959L54.7563 45.8886H52.666Z" fill="#F9EBCD"/>
<path d="M42.2134 32.1599L40.4219 32.0279C40.4537 31.7728 40.6514 30.5511 40.8194 30.4727C41.4839 30.7546 42.0599 31.4614 42.2134 32.1599Z" fill="#F9EBCD"/>
<path d="M52.1736 35.1361C52.4495 35.1333 52.7178 35.1917 52.9937 35.1979C54.194 35.2268 55.7055 35.0653 56.8498 35.1931C57.1693 35.2289 57.1596 35.4296 56.8498 35.4633C55.4669 35.6132 53.8711 35.3231 52.4682 35.5114L52.1294 35.3973L52.1736 35.1354V35.1361Z" fill="#F9EBCD"/>
<path d="M45.4443 34.9532C45.7022 35.1835 45.6572 35.7933 45.3157 35.9384C45.0197 36.0635 44.3117 35.9631 44.1727 35.6572C44.0766 35.4455 44.2301 34.8707 44.403 34.7662C44.6083 34.6418 45.268 34.7944 45.445 34.9525L45.4443 34.9532ZM44.9838 35.1464C44.656 34.8233 44.2682 35.6029 44.7687 35.5988C45.0184 35.5967 45.1414 35.3018 44.9838 35.1464Z" fill="#F9EBCD"/>
<path d="M54.8222 43.9079C54.9073 44.8477 54.359 44.2207 53.9254 44.5679L53.7982 44.4304L52.4326 44.4359L52.5654 43.9594L52.6926 43.8714L54.8208 43.9079H54.8222Z" fill="#F9EBCD"/>
<path d="M47.1248 45.6906H45.4992C45.3651 45.6906 45.1922 45.0388 45.3665 44.9646H46.8268L47.1255 45.6906H47.1248Z" fill="#F9EBCD"/>
<path d="M55.2871 47.0766H53.5288C53.5046 47.0766 53.1852 46.8559 53.1299 46.8112L52.8989 46.4833C53.6719 46.6854 55.05 46.0116 55.2878 47.0766H55.2871Z" fill="#F9EBCD"/>
<path d="M47.6552 46.2845L47.9207 46.8125H46.2287C46.1893 46.8125 45.7081 46.6922 45.6804 46.6647L45.5981 46.2845H47.6552Z" fill="#F9EBCD"/>
<path d="M45.1665 43.7106H46.6268C46.7368 43.7594 46.8135 44.2984 46.7312 44.341L45.1956 44.3424C45.1278 44.2503 45.0027 43.7106 45.1672 43.7106H45.1665Z" fill="#F9EBCD"/>
<path d="M55.7187 33.8766C55.8017 33.902 55.8183 34.0278 55.8245 34.1069C55.8736 34.7902 55.0674 34.3303 54.6532 34.5146C54.479 34.4877 54.4755 34.0189 54.4914 33.8766H55.7194H55.7187Z" fill="#F9EBCD"/>
<path d="M45.4651 36.1873H45.333V36.2519H45.4651V36.1873Z" fill="#F9EBCD"/>
<path d="M60.1311 46.9453H59.999V47.0099H60.1311V46.9453Z" fill="#F9EBCD"/>
<path d="M52.8977 47.6713H52.7656V47.7359H52.8977V47.6713Z" fill="#F9EBCD"/>
<path d="M39.4924 34.1412H39.3604V34.2059H39.4924V34.1412Z" fill="#F9EBCD"/>
<path d="M61.5245 41.2686H61.4595V41.3999H61.5245V41.2686Z" fill="#F9EBCD"/>
<path d="M30.1355 17.5753H30.0034V17.6399H30.1355V17.5753Z" fill="#F9EBCD"/>
<path d="M34.6961 55.011C35.8487 54.7752 36.592 55.6222 36.2255 56.7297C35.9953 57.4255 35.1573 57.4887 34.5274 57.3265C33.4432 57.0474 33.5759 55.2399 34.6961 55.0103V55.011Z" fill="#F9EBCD"/>
<path d="M34.7633 51.8444C36.4338 51.5343 36.4587 54.0279 34.9493 53.9412C33.675 53.8684 33.7186 52.0382 34.7633 51.8444Z" fill="#F9EBCD"/>
<path d="M41.0675 52.0424C41.5916 51.9448 41.9505 52.1593 42.196 52.6048C42.6295 53.3933 42.6371 55.8498 42.2492 56.6486C41.8509 57.4688 40.7778 57.6448 40.2592 56.8411C39.7898 56.1145 39.8859 53.7536 40.1749 52.9354C40.3118 52.5477 40.6437 52.1214 41.0682 52.0424H41.0675Z" fill="#F9EBCD"/>
<path d="M28.1018 54.5112C27.5425 53.9289 27.6807 52.3188 28.5118 52.0279C29.791 51.5804 30.1851 52.9712 29.9874 53.9578C29.82 54.7924 28.7158 55.1499 28.1018 54.5112Z" fill="#F9EBCD"/>
<path d="M57.5259 9.93437C59.3361 9.63187 58.9157 12.1137 57.3461 11.5335C56.5351 11.2337 56.6782 10.076 57.5259 9.93437Z" fill="#F9EBCD"/>
<path d="M57.5253 7.42569C58.819 7.16375 58.9614 8.85225 57.8433 8.89282C56.7253 8.93338 56.6098 7.61063 57.5253 7.42569Z" fill="#F9EBCD"/>
<path d="M9.82818 7.41055H9.76318V7.54187H9.82818V7.41055Z" fill="#F9EBCD"/>
<path d="M22.3031 10.1791C22.113 10.2541 21.1726 10.3366 21.1152 10.1413L21.6428 8.26855C21.7368 8.27612 21.7472 8.36549 21.7769 8.4308C21.8558 8.60062 22.3557 10.1042 22.3031 10.1791Z" fill="#F9EBCD"/>
<path d="M24.362 54.1393H24.23V54.2039H24.362V54.1393Z" fill="#F9EBCD"/>
<path d="M18.5269 46.8174C19.04 46.7431 19.2716 47.1233 19.0573 47.575L18.417 47.542L18.5269 46.8174Z" fill="#F9EBCD"/>
<path d="M16.7761 46.5032C17.0803 46.728 16.9337 47.8727 16.5942 48.0961C15.6276 48.7314 16.0003 45.9312 16.7761 46.5032Z" fill="#F9EBCD"/>
<path d="M18.6267 44.176C19.4322 44.3039 19.1349 45.2691 18.4614 44.7906L18.6267 44.176Z" fill="#F9EBCD"/>
<path d="M19.1029 43.2644C19.5295 43.7044 18.6528 44.0426 18.6514 43.5476C18.6514 43.2307 18.8277 42.9804 19.1029 43.2644Z" fill="#F9EBCD"/>
<path d="M8.68294 41.9767C8.54741 42.0881 8.26877 41.9994 8.10697 41.9911C8.09038 41.8523 8.14293 41.2328 8.2743 41.206C8.65736 41.1826 9.03073 41.6907 8.68294 41.9767Z" fill="#F9EBCD"/>
<path d="M22.7532 44.5528C22.662 44.6428 22.4303 44.6353 22.3052 44.6346L22.3799 43.9835C22.7456 43.8288 22.9786 44.33 22.7532 44.5528Z" fill="#F9EBCD"/>
<path d="M33.5692 22.8023C34.0587 22.7611 34.3519 23.2375 33.7891 23.551C33.2767 23.8363 31.5412 24.3719 30.9756 24.3485C30.6375 24.3348 30.4937 24.1615 30.6112 23.8219C30.6894 23.5971 32.0059 23.3599 32.3101 23.2678C32.6461 23.166 33.303 22.8243 33.5692 22.8023Z" fill="#624D31"/>
<path d="M28.0285 30.2954C27.8315 30.0994 28.0403 29.8224 28.2145 29.689C29.0221 29.073 31.3101 29.2112 31.8639 30.1434C32.3569 30.9733 30.7514 30.0644 30.5979 30.0169C29.9141 29.8045 29.3236 29.8959 28.6764 30.1483C28.4842 30.2232 28.2505 30.5161 28.0285 30.2954Z" fill="#624D31"/>
<path d="M26.202 22.7315C26.4676 22.6607 27.4805 23.2856 27.7896 23.4382C28.0323 23.5586 28.6463 23.6713 28.7306 23.9573C28.9761 24.7892 27.3623 24.0494 27.0622 23.8982C26.7151 23.7236 25.595 23.1241 26.202 22.7315Z" fill="#624D31"/>
<path d="M28.9903 26.2371C29.2821 26.5375 28.7517 26.9548 28.6605 27.2277C28.4171 27.951 29.0387 27.6787 29.477 27.9125L29.5075 28.2672C28.5796 28.6577 27.7637 28.1132 28.0962 27.0641C28.1744 26.818 28.7102 25.9497 28.9896 26.2377L28.9903 26.2371Z" fill="#624D31"/>
<path d="M26.3326 25.2367C26.6022 25.1694 26.8919 26.0233 27.5419 25.6534C27.7051 25.5606 27.8185 25.3309 27.992 25.2374C28.4961 25.2574 28.2008 25.8686 27.9692 26.0789C27.4804 26.5231 26.6423 26.3986 26.2862 25.8576C26.1701 25.6809 26.0525 25.3069 26.3326 25.2367Z" fill="#624D31"/>
<path d="M31.5714 25.3722C31.9461 25.4877 31.9109 25.8204 32.3893 25.8617C32.7793 25.8954 33.692 25.0209 33.5862 25.7201C33.5025 26.2721 32.5719 26.4873 32.0976 26.4138C31.655 26.345 31.0728 25.7331 31.5714 25.3722Z" fill="#624D31"/>
<path d="M38.2833 26.5368L37.8657 26.6819C37.7481 26.9789 37.9736 27.2326 37.9397 27.5419C37.9196 27.7248 37.7523 28.1621 37.5027 28.0404C37.2531 27.9187 37.4176 27.577 37.399 27.3989C37.3616 27.0332 37.2054 26.8799 37.3762 26.4591C37.5912 25.9291 38.571 25.9139 38.2833 26.5375V26.5368Z" fill="#624D31"/>
<path d="M34.3594 19.8901C34.5966 19.8193 35.5639 20.3273 35.8204 20.4669C36.1385 20.6394 37.1148 21.2114 37.2406 21.4961C37.4418 21.9498 37.1148 21.8584 36.8112 21.725C36.4828 21.5806 36.1668 21.2658 35.8626 21.0849C35.6012 20.9296 34.3027 20.2696 34.2591 20.1046C34.2336 20.0076 34.2564 19.9217 34.3587 19.8908L34.3594 19.8901Z" fill="#624D31"/>
<path d="M53.296 41.2026C53.3119 41.3243 53.2269 41.4095 53.1625 41.4982C53.0139 41.7024 52.3335 42.3947 52.106 42.4284C51.9525 42.4518 51.7942 42.3644 51.6372 42.3899C51.5024 42.2634 52.44 41.294 52.5679 41.2363C52.767 41.1462 53.0775 41.228 53.2967 41.2026H53.296Z" fill="#F9EBCD"/>
<path d="M56.1936 44.9041C56.7267 44.7542 56.7329 45.9834 56.3126 46.0233C55.879 46.0645 55.9329 44.9776 56.1936 44.9041Z" fill="#F9EBCD"/>
<path d="M58.722 45.1784C58.9668 45.4252 58.8264 46.2701 58.386 46.1443C57.9158 46.0096 58.2228 44.6765 58.722 45.1784Z" fill="#F9EBCD"/>
<path d="M60.3724 44.9735C60.92 44.99 60.8606 46.1319 60.3641 46.0914C60.0412 46.0653 60.0869 45.0258 60.3724 44.9735Z" fill="#F9EBCD"/>
<path d="M44.9841 35.1464C45.1411 35.3011 45.0187 35.596 44.7691 35.5987C44.2685 35.6036 44.6564 34.8232 44.9841 35.1464Z" fill="#F9EBCD"/>
</svg>
