<svg width="20" height="23" viewBox="0 0 20 23" fill="none" xmlns="http://www.w3.org/2000/svg">
<path d="M4.70515 9.0446L8.43422 12.7737C8.67202 13.0115 8.79092 13.3087 8.79092 13.6654C8.79092 14.0221 8.67202 14.3301 8.43422 14.5896C8.17481 14.849 7.86676 14.9787 7.51006 14.9787C7.15337 14.9787 6.84531 14.849 6.5859 14.5896L0.651816 8.65548C0.392402 8.39606 0.262695 8.09341 0.262695 7.74753C0.262695 7.40164 0.392402 7.09899 0.651816 6.83958L6.61833 0.873067C6.85612 0.635272 7.15337 0.510969 7.51006 0.50016C7.86676 0.489351 8.17481 0.613654 8.43422 0.873067C8.67202 1.11086 8.79092 1.41351 8.79092 1.78101C8.79092 2.14852 8.67202 2.45117 8.43422 2.68896L4.70515 6.45046H16.6058C17.3191 6.45046 17.9298 6.70447 18.4379 7.21249C18.9459 7.72051 19.1999 8.33121 19.1999 9.0446V20.7182C19.1999 21.0857 19.0756 21.3938 18.827 21.6424C18.5784 21.891 18.2703 22.0153 17.9028 22.0153C17.5353 22.0153 17.2273 21.891 16.9787 21.6424C16.7301 21.3938 16.6058 21.0857 16.6058 20.7182V9.0446H4.70515Z" fill="white"/>
</svg>
