<svg width="20" height="23" viewBox="0 0 20 23" fill="none" xmlns="http://www.w3.org/2000/svg">
<path d="M4.70515 9.04508L8.43422 12.7742C8.67202 13.0119 8.79092 13.3092 8.79092 13.6659C8.79092 14.0226 8.67202 14.3306 8.43422 14.59C8.17481 14.8495 7.86676 14.9792 7.51006 14.9792C7.15337 14.9792 6.84531 14.8495 6.5859 14.59L0.651816 8.65596C0.392402 8.39655 0.262695 8.0939 0.262695 7.74802C0.262695 7.40213 0.392402 7.09948 0.651816 6.84007L6.61833 0.873556C6.85612 0.63576 7.15337 0.511457 7.51006 0.500649C7.86676 0.48984 8.17481 0.614142 8.43422 0.873556C8.67202 1.11135 8.79092 1.414 8.79092 1.7815C8.79092 2.14901 8.67202 2.45165 8.43422 2.68945L4.70515 6.45095H16.6058C17.3191 6.45095 17.9298 6.70496 18.4379 7.21298C18.9459 7.72099 19.1999 8.3317 19.1999 9.04508V20.7187C19.1999 21.0862 19.0756 21.3943 18.827 21.6429C18.5784 21.8915 18.2703 22.0158 17.9028 22.0158C17.5353 22.0158 17.2273 21.8915 16.9787 21.6429C16.7301 21.3943 16.6058 21.0862 16.6058 20.7187V9.04508H4.70515Z" fill="#747474"/>
</svg>
