<svg width="40" height="40" viewBox="0 0 40 40" fill="none" xmlns="http://www.w3.org/2000/svg">
<path d="M19.7915 23.1053L9.07858 33.9735C8.67775 34.3801 8.16761 34.5834 7.54816 34.5834C6.9287 34.5834 6.41856 34.3801 6.01774 33.9735C5.61691 33.5668 5.4165 33.0493 5.4165 32.4209C5.4165 31.7924 5.61691 31.2749 6.01774 30.8683L16.7307 20.0001L6.01774 9.13189C5.61691 8.72526 5.4165 8.20773 5.4165 7.5793C5.4165 6.95086 5.61691 6.43333 6.01774 6.0267C6.41856 5.62006 6.9287 5.41675 7.54816 5.41675C8.16761 5.41675 8.67775 5.62006 9.07858 6.0267L19.7915 16.8949L30.5044 6.0267C30.9053 5.62006 31.4154 5.41675 32.0348 5.41675C32.6543 5.41675 33.1644 5.62006 33.5653 6.0267C33.9661 6.43333 34.1665 6.95086 34.1665 7.5793C34.1665 8.20773 33.9661 8.72526 33.5653 9.13189L22.8523 20.0001L33.5653 30.8683C33.9661 31.2749 34.1665 31.7924 34.1665 32.4209C34.1665 33.0493 33.9661 33.5668 33.5653 33.9735C33.1644 34.3801 32.6543 34.5834 32.0348 34.5834C31.4154 34.5834 30.9053 34.3801 30.5044 33.9735L19.7915 23.1053Z" fill="white"/>
</svg>
