<svg width="20" height="20" viewBox="0 0 20 20" fill="none" xmlns="http://www.w3.org/2000/svg">
<path d="M10.575 10.0499C10.4219 10.1881 10.2229 10.2646 10.0167 10.2646C9.81039 10.2646 9.61146 10.1881 9.45833 10.0499L2.39166 3.62492C2.66896 3.43497 2.99721 3.3333 3.33333 3.33325H16.6667C17.0028 3.3333 17.331 3.43497 17.6083 3.62492L10.575 10.0499Z" fill="#929292"/>
<path d="M18.3334 5.21655V14.1666C18.3334 14.8296 18.07 15.4655 17.6011 15.9343C17.1323 16.4032 16.4964 16.6666 15.8334 16.6666H4.16669C3.50365 16.6666 2.86776 16.4032 2.39892 15.9343C1.93008 15.4655 1.66669 14.8296 1.66669 14.1666V5.21655L8.90002 11.8166C9.20507 12.0815 9.59598 12.2266 10 12.2249C10.4091 12.224 10.8036 12.0728 11.1084 11.7999L18.3334 5.21655Z" fill="#929292"/>
</svg>
