<svg width="44" height="44" viewBox="0 0 44 44" fill="none" xmlns="http://www.w3.org/2000/svg">
<path d="M9.77539 22.9209C8.91602 22.9209 8.36816 22.3516 8.36816 21.5996C8.36816 21.2021 8.56152 20.7832 8.92676 20.4824L20.1201 11.083C20.6895 10.5996 21.3447 10.3633 22 10.3633C22.6445 10.3633 23.2998 10.5996 23.8799 11.083L28.5098 14.9717V13.4033C28.5098 12.9092 28.8428 12.5869 29.3369 12.5869H31.3135C31.8184 12.5869 32.1406 12.9092 32.1406 13.4033V18.0225L35.0732 20.4824C35.4277 20.7832 35.6318 21.2021 35.6318 21.5996C35.6318 22.3516 35.084 22.9209 34.2246 22.9209C33.8271 22.9209 33.4404 22.7275 33.1182 22.4482L32.1406 21.6426V31.3428C32.1406 33.0615 31.0771 34.125 29.2617 34.125H14.7275C12.9229 34.125 11.8594 33.0723 11.8594 31.3428V21.6426L10.8818 22.4482C10.5596 22.7275 10.1729 22.9209 9.77539 22.9209ZM25.083 25.2412V31.3535H28.3701C29.0146 31.3535 29.3691 30.9883 29.3691 30.3438V19.3115L22.5908 13.6289C22.3975 13.4678 22.1934 13.3818 22 13.3818C21.7959 13.3818 21.5918 13.4678 21.4092 13.6289L14.6309 19.3115V30.3438C14.6309 30.9883 14.9854 31.3535 15.6191 31.3535H18.917V25.2412C18.917 24.7256 19.2607 24.3926 19.7764 24.3926H24.2344C24.75 24.3926 25.083 24.7256 25.083 25.2412Z" fill="white"/>
</svg>
