<svg width="12" height="11" viewBox="0 0 12 11" fill="none" xmlns="http://www.w3.org/2000/svg">
<path d="M7.55879 0.751432C7.53184 0.745305 7.51699 0.760488 7.49624 0.765949C7.48615 0.768613 7.47289 0.760222 7.46482 0.765949C7.40253 0.757301 7.33919 0.757301 7.27689 0.765949C7.21997 0.77394 7.16707 0.800976 7.12038 0.823751C6.74668 1.00608 6.66871 1.60301 6.54088 2.01056C6.19557 3.12211 5.23415 4.14976 4.03494 4.42772C3.74497 4.4397 3.46409 4.4393 3.17354 4.4421V4.23953C3.17354 4.10062 3.06127 4.00792 2.92292 4.00792H0.166504V9.5657H2.92292C3.06127 9.5657 3.17369 9.42679 3.17369 9.33422V4.9486C3.34043 4.94673 3.50804 4.93954 3.67479 4.93408V9.10262C3.81458 9.10581 3.95784 9.09689 4.09763 9.10262C4.84676 9.24153 5.39816 9.84938 6.16502 9.94208C7.02151 10.081 7.88565 9.98256 8.74907 10.0289C9.37814 9.98256 10.1516 10.0753 10.5972 9.5657C10.7882 9.14883 10.618 8.59319 11.1925 8.40793C11.7081 8.08362 11.0767 7.4787 11.3333 7.06183C11.6636 6.73766 11.8734 6.23103 11.4899 5.86051C11.0119 5.44365 11.6614 4.80103 11.1141 4.3843C11.0286 4.30758 10.932 4.2651 10.8322 4.22501C10.7327 4.18532 10.6274 4.15336 10.519 4.13817C10.5085 4.13684 10.4981 4.12499 10.4876 4.12379C10.3792 4.10468 10.2691 4.09496 10.1587 4.09476C9.67906 4.06253 9.19785 4.06972 8.71779 4.08037C8.5215 4.07425 8.31829 4.07012 8.12258 4.05147C7.74023 3.77351 8.21338 3.26409 8.20098 2.89357C8.27059 2.384 8.31945 1.83702 8.16971 1.37393C8.08727 1.15098 7.92571 0.902196 7.68403 0.809234C7.66054 0.795649 7.64367 0.790055 7.62148 0.780466C7.59914 0.770743 7.57896 0.75596 7.55879 0.751432Z" fill="white"/>
</svg>
