<svg width="32" height="32" viewBox="0 0 32 32" fill="none" xmlns="http://www.w3.org/2000/svg">
<g clip-path="url(#clip0_240_10756)">
<path d="M16 0C11.7565 0 7.68687 1.68571 4.68629 4.68629C1.68571 7.68687 0 11.7565 0 16C0 20.2435 1.68571 24.3131 4.68629 27.3137C7.68687 30.3143 11.7565 32 16 32C20.2435 32 24.3131 30.3143 27.3137 27.3137C30.3143 24.3131 32 20.2435 32 16C32 11.7565 30.3143 7.68687 27.3137 4.68629C24.3131 1.68571 20.2435 0 16 0ZM16.5 8.5C17.4153 8.50185 18.2936 8.86136 18.9475 9.50182C19.6014 10.1423 19.9791 11.0129 20 11.928C20.002 12.003 20 11.971 20 12.023V13.801C20.0004 13.8694 19.9868 13.9371 19.96 14H21.5C21.6326 14 21.7598 14.0527 21.8536 14.1464C21.9473 14.2402 22 14.3674 22 14.5V23.5C22 23.6326 21.9473 23.7598 21.8536 23.8536C21.7598 23.9473 21.6326 24 21.5 24H11.5C11.3674 24 11.2402 23.9473 11.1464 23.8536C11.0527 23.7598 11 23.6326 11 23.5V14.5C11 14.3674 11.0527 14.2402 11.1464 14.1464C11.2402 14.0527 11.3674 14 11.5 14H13.04C13.0131 13.9368 12.9994 13.8687 13 13.8V12.002C13 11.949 13 11.98 13.002 11.902C13.0295 10.9918 13.4098 10.128 14.0626 9.49319C14.7154 8.85834 15.5894 8.50218 16.5 8.5ZM16.5 9.5C15.8487 9.49849 15.2227 9.75189 14.7559 10.206C14.289 10.6601 14.0185 11.2789 14.002 11.93C14.004 11.859 14 11.95 14 12.004V13.8C14.0004 13.8684 13.9868 13.9361 13.96 13.999H19.04C19.0131 13.9358 18.9995 13.8677 19 13.799V11.95C18.9882 11.2952 18.7194 10.6714 18.2517 10.213C17.784 9.75468 17.1549 9.49858 16.5 9.5ZM12 15V23H21V15H12ZM16.5 16C17.323 16 18 16.677 18 17.5C18 18.147 17.579 18.698 17 18.906V21.324C17 21.4566 16.9473 21.5838 16.8536 21.6776C16.7598 21.7713 16.6326 21.824 16.5 21.824C16.3674 21.824 16.2402 21.7713 16.1464 21.6776C16.0527 21.5838 16 21.4566 16 21.324V18.906C15.421 18.698 15 18.146 15 17.5C15 16.677 15.677 16 16.5 16ZM16.5 17C16.218 17 16 17.218 16 17.5C16 17.782 16.218 18 16.5 18C16.782 18 17 17.782 17 17.5C17 17.218 16.782 17 16.5 17Z" fill="white"/>
</g>
<defs>
<clipPath id="clip0_240_10756">
<rect width="32" height="32" fill="white"/>
</clipPath>
</defs>
</svg>
