<svg width="239" height="134" viewBox="0 0 239 134" fill="none" xmlns="http://www.w3.org/2000/svg">
<path d="M60.4427 0C64.0895 0 67.3167 0.709658 70.1243 2.12897C72.932 3.54829 75.1103 5.54823 76.6594 8.1288C78.2085 10.6771 78.983 13.6125 78.983 16.935C78.983 20.2252 78.2085 23.1606 76.6594 25.7412C75.1103 28.2895 72.932 30.2895 70.1243 31.741C67.3167 33.1604 64.0895 33.87 60.4427 33.87H45.9688V30.8217H51.0516V2.99992H45.9688V0H60.4427ZM60.588 30.8217C63.2343 30.8217 65.5094 30.2733 67.4135 29.1766C69.3175 28.0798 70.7859 26.4831 71.8186 24.3864C72.8513 22.2897 73.3677 19.8059 73.3677 16.935C73.3677 14.0319 72.8513 11.5319 71.8186 9.43522C70.8182 7.3385 69.3498 5.74177 67.4135 4.64503C65.5094 3.54829 63.2343 2.99992 60.588 2.99992H56.5217V30.8217H60.588Z" fill="white"/>
<path d="M77.5871 30.8217H81.9438L93.0776 4.25794L92.6904 2.99992H87.7527V0H99.6611L111.763 30.8217H116.217V33.87H99.8063V30.8217H106.003L102.904 22.8864H88.4305L85.1387 30.8217H91.8674V33.87H77.5871V30.8217ZM101.791 19.9833L95.9821 5.22566H95.74L89.5922 19.9833H101.791Z" fill="white"/>
<path d="M114.279 30.8217H119.362V2.99992H114.279V0H130.35C134.449 0 137.676 0.854815 140.032 2.56445C142.388 4.24182 143.566 6.5482 143.566 9.4836C143.566 11.6448 142.872 13.4835 141.484 14.9996C140.129 16.4834 138.225 17.5156 135.772 18.0963L145.405 30.8217H149.471V33.87H132.625V30.8217H138.725L130.157 19.4511H124.832V30.8217H128.898V33.87H114.279V30.8217ZM130.253 16.6447C132.738 16.6447 134.675 16.0479 136.062 14.8544C137.45 13.6286 138.144 11.9351 138.144 9.77392C138.144 7.61269 137.45 5.93532 136.062 4.7418C134.675 3.51603 132.738 2.90314 130.253 2.90314H124.832V16.6447H130.253Z" fill="white"/>
<path d="M147.417 30.8217H152.5V2.99992H147.417V0H162.811V2.99992H157.97V15.5318H162.714L173.219 2.99992H167.265V0H181.109V2.99992H176.849L167.071 14.7576L179.754 30.8217H183.53V33.87H166.926V30.8217H173.025L162.908 18.2898H157.97V30.8217H162.521V33.87H147.417V30.8217Z" fill="white"/>
<path d="M6.29303 89.1692H12.9733V61.3474H5.56691C5.21192 61.3474 4.82465 61.5087 4.40512 61.8313C4.01786 62.1538 3.679 62.5409 3.38855 62.9925C3.13038 63.4119 3.00129 63.8151 3.00129 64.2022V70.202H0V55.2992H3.00129V58.3475H28.4154V55.2992H31.4651V70.202H28.4638V64.2022C28.4638 63.8151 28.3186 63.4119 28.0282 62.9925C27.77 62.5409 27.4311 62.1538 27.0116 61.8313C26.6243 61.5087 26.2532 61.3474 25.8982 61.3474H18.4434V89.1692H25.1237V92.2175H6.29303V89.1692Z" fill="white"/>
<path d="M51.5763 92.9433C48.2201 92.9433 45.2026 92.1852 42.5241 90.6692C39.8455 89.1531 37.7478 87.0564 36.231 84.379C34.7143 81.6694 33.9559 78.6372 33.9559 75.2825C33.9559 71.8955 34.7143 68.8633 36.231 66.186C37.7478 63.5086 39.8455 61.4119 42.5241 59.8958C45.2026 58.3797 48.2201 57.6217 51.5763 57.6217C54.9326 57.6217 57.9501 58.3797 60.6286 59.8958C63.3072 61.4119 65.4049 63.5086 66.9217 66.186C68.4384 68.8633 69.1968 71.8955 69.1968 75.2825C69.1968 78.6372 68.4384 81.6694 66.9217 84.379C65.4049 87.0564 63.3072 89.1531 60.6286 90.6692C57.9501 92.1852 54.9326 92.9433 51.5763 92.9433ZM51.5763 89.9434C53.9645 89.9434 56.0621 89.3466 57.8694 88.1531C59.6766 86.9596 61.0804 85.2661 62.0809 83.0726C63.0813 80.8469 63.5815 78.2502 63.5815 75.2825C63.5815 72.2826 63.0813 69.6859 62.0809 67.4924C61.0804 65.2666 59.6766 63.5731 57.8694 62.4119C56.0621 61.2184 53.9645 60.6216 51.5763 60.6216C49.1882 60.6216 47.0905 61.2184 45.2833 62.4119C43.4761 63.5731 42.0723 65.2666 41.0718 67.4924C40.0714 69.6859 39.5712 72.2826 39.5712 75.2825C39.5712 78.2502 40.0714 80.8469 41.0718 83.0726C42.0723 85.2661 43.4761 86.9596 45.2833 88.1531C47.0905 89.3466 49.1882 89.9434 51.5763 89.9434Z" fill="white"/>
<path d="M90.0455 92.9433C87.2701 92.9433 84.8336 92.3465 82.7359 91.153C80.6382 89.9272 79.0085 88.2337 77.8467 86.0725C76.6849 83.879 76.104 81.3468 76.104 78.476V61.3474H71.118V58.3475H87.3347V61.3474H81.5257V78.3792C81.5257 80.7662 81.913 82.8145 82.6875 84.5242C83.4943 86.2015 84.6077 87.4757 86.0276 88.3466C87.4799 89.2176 89.1742 89.6531 91.1105 89.6531C92.9822 89.6531 94.6442 89.1853 96.0965 88.2499C97.5487 87.2822 98.6621 85.9435 99.4366 84.2339C100.211 82.492 100.598 80.492 100.598 78.234V61.3474H94.7895V58.3475H108.731V61.3474H103.745V78.3308C103.745 81.2339 103.18 83.7984 102.051 86.0241C100.921 88.2176 99.3237 89.9272 97.2583 91.153C95.1929 92.3465 92.7886 92.9433 90.0455 92.9433Z" fill="white"/>
<path d="M109.859 89.1692H114.942V61.3474H109.859V58.3475H125.93C130.029 58.3475 133.256 59.2023 135.612 60.9119C137.968 62.5893 139.145 64.8957 139.145 67.8311C139.145 69.9923 138.452 71.831 137.064 73.3471C135.709 74.8309 133.804 75.8631 131.352 76.4437L140.985 89.1692H145.051V92.2175H128.205V89.1692H134.305L125.736 77.7986H120.412V89.1692H124.478V92.2175H109.859V89.1692ZM125.833 74.9922C128.318 74.9922 130.255 74.3954 131.642 73.2019C133.03 71.9761 133.724 70.2826 133.724 68.1214C133.724 65.9602 133.03 64.2828 131.642 63.0893C130.255 61.8635 128.318 61.2506 125.833 61.2506H120.412V74.9922H125.833Z" fill="white"/>
<path d="M142.997 89.1692H148.08V61.3474H142.997V58.3475H158.633V61.3474H153.55V89.1692H158.633V92.2175H142.997V89.1692Z" fill="white"/>
<path d="M161.933 78.8147H164.982V80.6049C165.015 82.1533 165.676 83.6371 166.967 85.0564C168.29 86.4757 170.017 87.637 172.147 88.5402C174.277 89.4111 176.487 89.8466 178.779 89.8466C180.199 89.8466 181.457 89.6531 182.555 89.266C183.652 88.8466 184.507 88.266 185.12 87.5241C185.733 86.7822 186.04 85.9274 186.04 84.9596C186.04 83.8952 185.636 82.992 184.83 82.25C184.055 81.5081 183.039 80.8791 181.78 80.363C180.521 79.8469 178.779 79.2663 176.552 78.6211C176.423 78.5889 176.278 78.5405 176.116 78.476C175.987 78.4114 175.858 78.3631 175.729 78.3308C175.697 78.3308 175.664 78.3308 175.632 78.3308C175.6 78.2985 175.568 78.2824 175.535 78.2824C172.986 77.476 170.824 76.6696 169.049 75.8631C167.306 75.0244 165.805 73.8793 164.547 72.4277C163.288 70.9439 162.659 69.0891 162.659 66.8634C162.659 64.9602 163.143 63.3151 164.111 61.928C165.112 60.541 166.499 59.4765 168.274 58.7346C170.049 57.9927 172.082 57.6217 174.374 57.6217C175.794 57.6217 177.149 57.7669 178.44 58.0572C179.763 58.3475 181.022 58.7668 182.216 59.3152C182.861 59.6055 183.458 59.9442 184.007 60.3313C184.588 60.6861 185.136 61.0732 185.653 61.4926V56.4121H188.702V70.5407H185.701V68.944C185.701 67.7505 185.072 66.5086 183.813 65.2183C182.555 63.928 180.925 62.8635 178.924 62.0248C176.955 61.1539 174.971 60.7184 172.97 60.7184C170.969 60.7184 169.371 61.1539 168.177 62.0248C166.983 62.8957 166.386 64.0731 166.386 65.557C166.386 66.7182 166.79 67.7021 167.596 68.5085C168.403 69.3149 169.436 69.9923 170.695 70.5407C171.985 71.0568 173.744 71.6536 175.971 72.331C176.132 72.3955 176.278 72.46 176.407 72.5245C176.568 72.5568 176.729 72.589 176.891 72.6213L177.52 72.8148C180.134 73.6535 182.28 74.4761 183.958 75.2825C185.669 76.0567 187.105 77.1212 188.267 78.476C189.428 79.7985 190.009 81.4597 190.009 83.4597C190.009 85.4596 189.493 87.1693 188.46 88.5886C187.46 90.0079 186.056 91.0885 184.249 91.8304C182.442 92.5723 180.344 92.9433 177.956 92.9433C176.181 92.9433 174.519 92.7659 172.97 92.411C171.453 92.0885 170.049 91.6369 168.758 91.0562C168.048 90.7337 167.371 90.3788 166.725 89.9918C166.112 89.6047 165.531 89.1692 164.982 88.6853V93.5239H161.933V78.8147Z" fill="white"/>
<path d="M193.497 89.1692H198.531V62.6538L197.853 61.3474H193.012V58.3475H205.26L216.49 85.0564L226.946 58.3475H239V61.3474H234.014V89.1692H239V92.2175H223.606V89.1692H228.592V62.6054H228.495L216.926 92.2175H213.876L201.726 63.7183H201.629V89.1692H207.293V92.2175H193.497V89.1692Z" fill="white"/>
<path d="M48.8831 122.319H57.4598V124.129H48.8831V122.319Z" fill="white"/>
<path d="M88.5339 130.721C88.5339 130.698 88.5111 130.676 88.4656 130.653C88.4428 130.63 88.42 130.63 88.3972 130.653C88.1694 130.949 87.9189 131.233 87.6455 131.507C87.3721 131.78 87.076 132.03 86.7571 132.258C85.9826 132.827 85.0827 133.26 84.0576 133.556C83.0553 133.852 81.9391 134 80.7089 134C78.6815 134 76.8249 133.465 75.1392 132.395C73.4762 131.325 72.155 129.845 71.1754 127.955C70.2187 126.042 69.7403 123.902 69.7403 121.534C69.7403 119.166 70.23 117.037 71.2096 115.147C72.1891 113.234 73.5218 111.743 75.2075 110.672C76.916 109.602 78.8068 109.067 80.8798 109.067C82.4288 109.067 83.8184 109.329 85.0486 109.853C86.3243 110.399 87.3494 111.173 88.1239 112.175V108.452H90.8233V117.947H88.1581V116.684C88.1581 115.864 87.8391 115.078 87.2013 114.327C86.5634 113.553 85.6978 112.938 84.6043 112.483C83.5337 112.027 82.3605 111.799 81.0848 111.799C79.4674 111.799 78.0095 112.221 76.711 113.063C75.4353 113.883 74.433 115.033 73.704 116.513C72.9751 117.993 72.6106 119.666 72.6106 121.534C72.6106 123.401 72.9751 125.086 73.704 126.588C74.4558 128.068 75.4695 129.241 76.7452 130.106C78.0437 130.949 79.4902 131.37 81.0848 131.37C82.4288 131.37 83.659 131.12 84.7752 130.619C85.9142 130.118 86.814 129.457 87.4747 128.638C88.1353 127.818 88.4656 126.953 88.4656 126.042V123.344H81.8707V120.748H94.7188V123.344H91.4726V133.829H88.5339V130.721Z" fill="white"/>
<path d="M105.462 133.829C104.004 133.829 102.729 133.499 101.635 132.839C100.542 132.178 99.699 131.233 99.1067 130.004C98.5144 128.774 98.2183 127.328 98.2183 125.666V118.904H95.553V116.41H100.747V125.359C100.747 127.203 101.214 128.66 102.148 129.731C103.105 130.801 104.38 131.336 105.975 131.336C106.932 131.336 107.797 131.074 108.572 130.55C109.369 130.027 109.996 129.309 110.451 128.399C110.907 127.488 111.135 126.475 111.135 125.359V118.904H107.547V116.41H116.602V118.904H113.629V130.994H116.602V133.488H111.34V130.209C110.77 131.325 109.961 132.213 108.914 132.873C107.888 133.51 106.738 133.829 105.462 133.829Z" fill="white"/>
<path d="M117.98 130.994H121.431V118.904H117.98V116.41H123.925V130.994H127.342V133.488H117.98V130.994ZM119.996 108.042H124.369L122.353 113.985H121.978L119.996 108.042Z" fill="white"/>
<path d="M137.273 133.829C135.746 133.829 134.368 133.442 133.138 132.668C131.908 131.894 130.94 130.846 130.234 129.526C129.55 128.182 129.209 126.668 129.209 124.983C129.209 123.344 129.562 121.852 130.268 120.509C130.974 119.165 131.942 118.118 133.172 117.367C134.402 116.593 135.769 116.205 137.273 116.205C138.731 116.205 139.984 116.513 141.031 117.128C142.102 117.72 142.934 118.551 143.526 119.621V112.073H140.416V109.579H146.02V130.994H148.993V133.488H143.731V130.243C143.139 131.336 142.273 132.213 141.134 132.873C140.018 133.51 138.731 133.829 137.273 133.829ZM137.785 131.336C138.879 131.336 139.87 131.063 140.758 130.516C141.669 129.947 142.376 129.173 142.877 128.194C143.401 127.215 143.663 126.133 143.663 124.949C143.663 123.765 143.401 122.683 142.877 121.704C142.376 120.725 141.669 119.962 140.758 119.416C139.87 118.847 138.879 118.562 137.785 118.562C136.692 118.562 135.69 118.847 134.778 119.416C133.89 119.962 133.184 120.725 132.66 121.704C132.136 122.683 131.874 123.765 131.874 124.949C131.874 126.133 132.136 127.215 132.66 128.194C133.184 129.173 133.89 129.947 134.778 130.516C135.69 131.063 136.692 131.336 137.785 131.336Z" fill="white"/>
<path d="M165.177 131.814C164.721 132.292 164.084 132.725 163.264 133.112C162.762 133.34 162.204 133.51 161.589 133.624C160.974 133.761 160.336 133.829 159.676 133.829C158.058 133.829 156.6 133.465 155.302 132.736C154.003 132.008 152.978 130.983 152.227 129.662C151.475 128.342 151.099 126.805 151.099 125.051C151.099 123.321 151.475 121.773 152.227 120.406C153.001 119.04 154.049 117.981 155.37 117.23C156.714 116.456 158.195 116.069 159.812 116.069C161.475 116.069 162.956 116.445 164.254 117.196C165.576 117.947 166.601 118.995 167.33 120.338C168.059 121.682 168.423 123.219 168.423 124.949C168.423 125.131 168.412 125.325 168.389 125.53C168.389 125.735 168.389 125.928 168.389 126.11H153.662C153.798 127.158 154.151 128.103 154.721 128.945C155.29 129.765 156.019 130.402 156.908 130.858C157.819 131.313 158.833 131.541 159.949 131.541C160.769 131.541 161.555 131.393 162.307 131.097C163.081 130.801 163.696 130.425 164.152 129.97C164.63 129.492 164.87 129.013 164.87 128.535V127.92H167.501V133.863H165.177V131.814ZM165.758 123.856C165.644 122.763 165.314 121.807 164.767 120.987C164.22 120.145 163.514 119.507 162.648 119.074C161.783 118.619 160.815 118.391 159.744 118.391C158.696 118.391 157.728 118.63 156.84 119.109C155.974 119.564 155.256 120.213 154.687 121.055C154.14 121.898 153.81 122.831 153.696 123.856H165.758Z" fill="white"/>
<path d="M181.393 122.319H189.97V124.129H181.393V122.319Z" fill="white"/>
</svg>
