<svg width="216" height="44" viewBox="0 0 216 44" fill="none" xmlns="http://www.w3.org/2000/svg">
<path d="M141.847 37.136H146.598V38.139H141.847V37.136Z" fill="white"/>
<path d="M132.866 42.3968C132.614 42.6618 132.261 42.9015 131.807 43.116C131.529 43.2422 131.22 43.3368 130.879 43.3999C130.539 43.4756 130.185 43.5134 129.819 43.5134C128.924 43.5134 128.116 43.3116 127.397 42.9078C126.678 42.5041 126.11 41.9363 125.694 41.2046C125.277 40.4728 125.069 39.6212 125.069 38.6497C125.069 37.6908 125.277 36.8329 125.694 36.0759C126.123 35.3188 126.703 34.7322 127.435 34.3158C128.179 33.8868 128.999 33.6724 129.895 33.6724C130.816 33.6724 131.636 33.8805 132.355 34.2969C133.087 34.7132 133.655 35.2936 134.059 36.038C134.462 36.7824 134.664 37.634 134.664 38.5929C134.664 38.6938 134.658 38.8011 134.645 38.9146C134.645 39.0282 134.645 39.1354 134.645 39.2363H126.489C126.564 39.8167 126.76 40.3403 127.075 40.8071C127.391 41.2613 127.794 41.6146 128.286 41.8669C128.791 42.1193 129.353 42.2454 129.971 42.2454C130.425 42.2454 130.86 42.1634 131.277 41.9994C131.706 41.8354 132.046 41.6272 132.299 41.3749C132.564 41.1099 132.696 40.845 132.696 40.58V40.2394H134.153V43.5323H132.866V42.3968ZM133.188 37.9873C133.125 37.3817 132.942 36.8518 132.639 36.3976C132.336 35.9308 131.945 35.5775 131.466 35.3378C130.986 35.0854 130.45 34.9593 129.857 34.9593C129.277 34.9593 128.741 35.0917 128.249 35.3567C127.769 35.609 127.372 35.9686 127.056 36.4354C126.754 36.9022 126.571 37.4195 126.508 37.9873H133.188Z" fill="white"/>
<path d="M117.412 43.5137C116.566 43.5137 115.803 43.2993 115.122 42.8703C114.44 42.4413 113.904 41.8609 113.513 41.1292C113.135 40.3848 112.945 39.5458 112.945 38.6121C112.945 37.7037 113.141 36.8773 113.532 36.1329C113.923 35.3886 114.459 34.8082 115.141 34.3918C115.822 33.9629 116.579 33.7484 117.412 33.7484C118.219 33.7484 118.913 33.9187 119.493 34.2594C120.086 34.5874 120.547 35.0479 120.875 35.6409V31.4584H119.153V30.0769H122.256V41.943H123.903V43.3245H120.988V41.5266C120.66 42.1322 120.181 42.6179 119.55 42.9838C118.932 43.3371 118.219 43.5137 117.412 43.5137ZM117.696 42.1322C118.301 42.1322 118.85 41.9808 119.342 41.678C119.847 41.3626 120.238 40.9336 120.515 40.3911C120.806 39.8486 120.951 39.2493 120.951 38.5932C120.951 37.9371 120.806 37.3378 120.515 36.7953C120.238 36.2528 119.847 35.8301 119.342 35.5273C118.85 35.2119 118.301 35.0542 117.696 35.0542C117.09 35.0542 116.535 35.2119 116.03 35.5273C115.538 35.8301 115.147 36.2528 114.857 36.7953C114.567 37.3378 114.421 37.9371 114.421 38.5932C114.421 39.2493 114.567 39.8486 114.857 40.3911C115.147 40.9336 115.538 41.3626 116.03 41.678C116.535 41.9808 117.09 42.1322 117.696 42.1322Z" fill="white"/>
<path d="M106.726 41.943H108.638V35.2435H106.726V33.862H110.019V41.943H111.912V43.3245H106.726V41.943ZM107.843 29.2253H110.265L109.148 32.5183H108.94L107.843 29.2253Z" fill="white"/>
<path d="M99.7936 43.5134C98.9861 43.5134 98.2796 43.3304 97.674 42.9645C97.0684 42.5987 96.6015 42.0751 96.2735 41.3938C95.9455 40.7125 95.7815 39.9113 95.7815 38.9903V35.2431H94.3053V33.8616H97.1819V38.82C97.1819 39.8419 97.4406 40.6494 97.9578 41.2424C98.4877 41.8354 99.1943 42.1318 100.077 42.1318C100.607 42.1318 101.087 41.9867 101.516 41.6966C101.957 41.4064 102.304 41.009 102.557 40.5043C102.809 39.9996 102.935 39.4382 102.935 38.82V35.2431H100.948V33.8616H105.963V35.2431H104.317V41.9426H105.963V43.3241H103.049V41.5073C102.733 42.1255 102.285 42.6176 101.705 42.9835C101.137 43.3367 100.5 43.5134 99.7936 43.5134Z" fill="white"/>
<path d="M90.4178 41.7913C90.4178 41.7787 90.4052 41.7661 90.38 41.7535C90.3674 41.7409 90.3548 41.7409 90.3421 41.7535C90.216 41.9175 90.0772 42.0752 89.9258 42.2266C89.7744 42.378 89.6104 42.5168 89.4337 42.643C89.0048 42.9584 88.5064 43.1981 87.9387 43.3621C87.3835 43.5261 86.7653 43.6081 86.084 43.6081C84.9611 43.6081 83.9328 43.3116 82.9992 42.7187C82.0782 42.1257 81.3464 41.3056 80.8039 40.2584C80.274 39.1986 80.009 38.0126 80.009 36.7005C80.009 35.3883 80.2803 34.2087 80.8228 33.1615C81.3653 32.1017 82.1034 31.2753 83.0371 30.6823C83.9833 30.0893 85.0305 29.7928 86.1786 29.7928C87.0366 29.7928 87.8062 29.9379 88.4875 30.2281C89.194 30.5309 89.7618 30.9598 90.1907 31.515V29.4521H91.6858V34.7133H90.2097V34.0131C90.2097 33.5589 90.033 33.1236 89.6798 32.7073C89.3265 32.2783 88.8471 31.9376 88.2415 31.6853C87.6485 31.433 86.9987 31.3068 86.2922 31.3068C85.3964 31.3068 84.5889 31.5402 83.8698 32.007C83.1632 32.4612 82.6081 33.0984 82.2043 33.9185C81.8006 34.7386 81.5987 35.6659 81.5987 36.7005C81.5987 37.735 81.8006 38.6687 82.2043 39.5014C82.6207 40.3215 83.1821 40.9712 83.8887 41.4507C84.6078 41.9175 85.409 42.1509 86.2922 42.1509C87.0366 42.1509 87.7179 42.0121 88.3361 41.7345C88.9669 41.457 89.4653 41.0911 89.8312 40.6369C90.1971 40.1827 90.38 39.7032 90.38 39.1986V37.7035H86.7274V36.2652H93.8433V37.7035H92.0454V43.5135H90.4178V41.7913Z" fill="white"/>
<path d="M68.4573 37.136H73.2075V38.139H68.4573V37.136Z" fill="white"/>
<path d="M189.827 18.7675H192.616V4.07535L192.24 3.35146H189.559V1.68921H196.342L202.562 16.4886L208.353 1.68921H215.029V3.35146H212.268V18.7675H215.029V20.4566H206.503V18.7675H209.265V4.04854H209.211L202.804 20.4566H201.115L194.385 4.66518H194.331V18.7675H197.468V20.4566H189.827V18.7675Z" fill="white"/>
<path d="M172.346 13.03H174.035V14.022C174.053 14.8799 174.419 15.7021 175.134 16.4886C175.867 17.275 176.823 17.9185 178.003 18.4189C179.182 18.9015 180.407 19.1428 181.676 19.1428C182.462 19.1428 183.159 19.0356 183.767 18.8211C184.375 18.5887 184.848 18.267 185.188 17.8559C185.527 17.4448 185.697 16.9711 185.697 16.4349C185.697 15.8451 185.474 15.3446 185.027 14.9335C184.598 14.5224 184.035 14.1739 183.338 13.8879C182.641 13.6019 181.676 13.2802 180.442 12.9227C180.371 12.9049 180.29 12.8781 180.201 12.8423C180.13 12.8066 180.058 12.7798 179.987 12.7619C179.969 12.7619 179.951 12.7619 179.933 12.7619C179.915 12.744 179.897 12.7351 179.879 12.7351C178.467 12.2882 177.27 11.8414 176.287 11.3945C175.322 10.9298 174.49 10.2953 173.793 9.491C173.096 8.66881 172.748 7.64107 172.748 6.40778C172.748 5.35323 173.016 4.44167 173.552 3.6731C174.106 2.90453 174.875 2.3147 175.858 1.9036C176.841 1.49251 177.967 1.28696 179.236 1.28696C180.022 1.28696 180.773 1.36739 181.488 1.52826C182.221 1.68912 182.918 1.92148 183.579 2.22533C183.937 2.3862 184.267 2.57387 184.571 2.78835C184.893 2.98496 185.197 3.19945 185.483 3.43181V0.616699H187.172V8.44538H185.51V7.56063C185.51 6.89931 185.161 6.21117 184.464 5.49622C183.767 4.78127 182.864 4.19144 181.756 3.72673C180.666 3.24413 179.567 3.00284 178.458 3.00284C177.35 3.00284 176.465 3.24413 175.804 3.72673C175.143 4.20932 174.812 4.86171 174.812 5.6839C174.812 6.32735 175.036 6.8725 175.482 7.31934C175.929 7.76618 176.501 8.14153 177.198 8.44538C177.913 8.73136 178.887 9.06203 180.121 9.43738C180.21 9.47312 180.29 9.50887 180.362 9.54462C180.451 9.56249 180.541 9.58037 180.63 9.59824L180.979 9.70548C182.426 10.1702 183.615 10.626 184.544 11.0728C185.492 11.5018 186.287 12.0916 186.931 12.8423C187.574 13.5751 187.896 14.4956 187.896 15.6038C187.896 16.712 187.61 17.6593 187.038 18.4457C186.484 19.2322 185.706 19.8309 184.705 20.242C183.704 20.6531 182.543 20.8587 181.22 20.8587C180.237 20.8587 179.316 20.7604 178.458 20.5638C177.618 20.385 176.841 20.1348 176.126 19.8131C175.733 19.6343 175.357 19.4377 175 19.2232C174.66 19.0087 174.338 18.7675 174.035 18.4993V21.1804H172.346V13.03Z" fill="white"/>
<path d="M161.858 18.7675H164.673V3.35146H161.858V1.68921H170.518V3.35146H167.703V18.7675H170.518V20.4566H161.858V18.7675Z" fill="white"/>
<path d="M143.505 18.7675H146.32V3.35146H143.505V1.68921H152.406C154.676 1.68921 156.463 2.16286 157.768 3.11017C159.073 4.0396 159.725 5.31757 159.725 6.94408C159.725 8.14162 159.341 9.16042 158.572 10.0005C157.821 10.8227 156.767 11.3946 155.409 11.7164L160.744 18.7675H162.996V20.4566H153.666V18.7675H157.044L152.299 12.4671H149.349V18.7675H151.601V20.4566H143.505V18.7675ZM152.352 10.912C153.728 10.912 154.801 10.5814 155.569 9.92006C156.338 9.24085 156.722 8.30248 156.722 7.10494C156.722 5.90741 156.338 4.97797 155.569 4.31664C154.801 3.63744 153.728 3.29784 152.352 3.29784H149.349V10.912H152.352Z" fill="white"/>
<path d="M132.531 20.8588C130.994 20.8588 129.645 20.5281 128.483 19.8668C127.321 19.1876 126.418 18.2492 125.775 17.0517C125.131 15.8363 124.81 14.4332 124.81 12.8424V3.35146H122.048V1.68921H131.03V3.35146H127.813V12.7888C127.813 14.1114 128.027 15.2464 128.456 16.1937C128.903 17.1232 129.519 17.8292 130.306 18.3118C131.11 18.7944 132.049 19.0356 133.121 19.0356C134.158 19.0356 135.078 18.7765 135.882 18.2581C136.687 17.7219 137.303 16.9802 137.732 16.0329C138.161 15.0677 138.376 13.9595 138.376 12.7084V3.35146H135.159V1.68921H142.88V3.35146H140.119V12.762C140.119 14.3706 139.806 15.7916 139.18 17.0249C138.555 18.2403 137.67 19.1876 136.526 19.8668C135.382 20.5281 134.05 20.8588 132.531 20.8588Z" fill="white"/>
<path d="M111.225 20.8588C109.366 20.8588 107.695 20.4388 106.212 19.5987C104.728 18.7587 103.566 17.5969 102.726 16.1134C101.886 14.612 101.466 12.9318 101.466 11.073C101.466 9.19623 101.886 7.5161 102.726 6.03258C103.566 4.54906 104.728 3.38727 106.212 2.54721C107.695 1.70714 109.366 1.28711 111.225 1.28711C113.084 1.28711 114.755 1.70714 116.239 2.54721C117.722 3.38727 118.884 4.54906 119.724 6.03258C120.564 7.5161 120.984 9.19623 120.984 11.073C120.984 12.9318 120.564 14.612 119.724 16.1134C118.884 17.5969 117.722 18.7587 116.239 19.5987C114.755 20.4388 113.084 20.8588 111.225 20.8588ZM111.225 19.1966C112.548 19.1966 113.71 18.8659 114.71 18.2046C115.711 17.5433 116.489 16.6049 117.043 15.3895C117.597 14.1562 117.874 12.7173 117.874 11.073C117.874 9.41071 117.597 7.97188 117.043 6.75647C116.489 5.52318 115.711 4.58481 114.71 3.94135C113.71 3.28003 112.548 2.94936 111.225 2.94936C109.902 2.94936 108.741 3.28003 107.74 3.94135C106.739 4.58481 105.961 5.52318 105.407 6.75647C104.853 7.97188 104.576 9.41071 104.576 11.073C104.576 12.7173 104.853 14.1562 105.407 15.3895C105.961 16.6049 106.739 17.5433 107.74 18.2046C108.741 18.8659 109.902 19.1966 111.225 19.1966Z" fill="white"/>
<path d="M86.145 18.7674H89.8449V3.35132H85.7429C85.5463 3.35132 85.3318 3.44069 85.0994 3.61943C84.8849 3.79816 84.6973 4.01265 84.5364 4.26288C84.3934 4.49524 84.3219 4.71866 84.3219 4.93314V8.25766H82.6597V0H84.3219V1.68907H98.3975V0H100.087V8.25766H98.4243V4.93314C98.4243 4.71866 98.3439 4.49524 98.183 4.26288C98.04 4.01265 97.8523 3.79816 97.62 3.61943C97.4055 3.44069 97.1999 3.35132 97.0033 3.35132H92.8745V18.7674H96.5744V20.4565H86.145V18.7674Z" fill="white"/>
<path d="M56.187 18.7675H59.0021V3.35146H56.187V1.68921H64.7128V3.35146H62.0317V10.2954H64.6592L70.477 3.35146H67.1793V1.68921H74.8472V3.35146H72.4878L67.0721 9.86643L74.0965 18.7675H76.1877V20.4566H66.9917V18.7675H70.3698L64.7664 11.8236H62.0317V18.7675H64.5519V20.4566H56.187V18.7675Z" fill="white"/>
<path d="M37.8333 18.7675H40.6484V3.35146H37.8333V1.68921H46.7344C49.0043 1.68921 50.7917 2.16286 52.0965 3.11017C53.4013 4.0396 54.0536 5.31757 54.0536 6.94408C54.0536 8.14162 53.6694 9.16042 52.9008 10.0005C52.1501 10.8227 51.0955 11.3946 49.7371 11.7164L55.0724 18.7675H57.3245V20.4566H47.9945V18.7675H51.3726L46.6271 12.4671H43.678V18.7675H45.93V20.4566H37.8333V18.7675ZM46.6807 10.912C48.057 10.912 49.1294 10.5814 49.898 9.92006C50.6666 9.24085 51.0509 8.30248 51.0509 7.10494C51.0509 5.90741 50.6666 4.97797 49.898 4.31664C49.1294 3.63744 48.057 3.29784 46.6807 3.29784H43.678V10.912H46.6807Z" fill="white"/>
<path d="M17.5116 18.7675H19.9245L26.091 4.04854L25.8765 3.35146H23.1418V1.68921H29.7372L36.4399 18.7675H38.9064V20.4566H29.8176V18.7675H33.2494L31.5335 14.3706H23.5172L21.694 18.7675H25.4207V20.4566H17.5116V18.7675ZM30.9169 12.762L27.6996 4.58475H27.5656L24.1606 12.762H30.9169Z" fill="white"/>
<path d="M8.01636 1.68921C10.0361 1.68921 11.8235 2.08243 13.3785 2.86887C14.9335 3.65532 16.14 4.76349 16.9979 6.19339C17.8558 7.60541 18.2848 9.23192 18.2848 11.0729C18.2848 12.896 17.8558 14.5225 16.9979 15.9524C16.14 17.3645 14.9335 18.4726 13.3785 19.2769C11.8235 20.0634 10.0361 20.4566 8.01636 20.4566H0V18.7675H2.81511V3.35146H0V1.68921H8.01636ZM8.09679 18.7675C9.56244 18.7675 10.8225 18.4637 11.8771 17.856C12.9316 17.2483 13.7449 16.3635 14.3168 15.2017C14.8888 14.0399 15.1748 12.6637 15.1748 11.0729C15.1748 9.46427 14.8888 8.07906 14.3168 6.91727C13.7628 5.75548 12.9495 4.87073 11.8771 4.26302C10.8225 3.65532 9.56244 3.35146 8.09679 3.35146H5.8447V18.7675H8.09679Z" fill="white"/>
</svg>
