<svg width="28" height="29" viewBox="0 0 28 29" fill="none" xmlns="http://www.w3.org/2000/svg">
<g clip-path="url(#clip0_278_9184)">
<path d="M5.3252 12.5547C5.3252 8.6084 8.5332 5.40039 12.4795 5.40039C16.4258 5.40039 19.6338 8.6084 19.6338 12.5547C19.6338 14.0928 19.1328 15.5166 18.2979 16.668L22.3145 20.6934C22.5518 20.9395 22.6748 21.2646 22.6748 21.6162C22.6748 22.3457 22.1387 22.9082 21.3916 22.9082C21.0488 22.9082 20.7061 22.7939 20.46 22.5391L16.417 18.4961C15.292 19.2607 13.9473 19.709 12.4795 19.709C8.5332 19.709 5.3252 16.501 5.3252 12.5547ZM7.15332 12.5547C7.15332 15.499 9.53516 17.8809 12.4795 17.8809C15.4238 17.8809 17.8057 15.499 17.8057 12.5547C17.8057 9.61035 15.4238 7.22852 12.4795 7.22852C9.53516 7.22852 7.15332 9.61035 7.15332 12.5547Z" fill="#3C3C43" fill-opacity="0.6"/>
</g>
<defs>
<clipPath id="clip0_278_9184">
<rect width="28" height="28" fill="white" transform="translate(0 0.5)"/>
</clipPath>
</defs>
</svg>
