<svg width="30" height="30" viewBox="0 0 30 30" fill="none" xmlns="http://www.w3.org/2000/svg">
<g clip-path="url(#clip0_240_10884)">
<path fill-rule="evenodd" clip-rule="evenodd" d="M15 0C6.71583 0 0 6.71583 0 15C0 23.2842 6.71583 30 15 30C23.2842 30 30 23.2842 30 15C30 6.71583 23.2842 0 15 0ZM14.87 7.08333C14.9046 7.07898 14.9396 7.07898 14.9742 7.08333C14.9828 7.08307 14.9914 7.08307 15 7.08333C15.0842 7.08519 15.1658 7.1125 15.2342 7.16167L17.3442 8.72417H21.25V11.6667L22.6825 12.7083C22.7646 12.7521 22.8297 12.822 22.8675 12.907C22.9053 12.992 22.9135 13.0873 22.8908 13.1775C22.9093 13.2273 22.9181 13.2802 22.9167 13.3333V22.4217C22.9313 22.4897 22.9287 22.5604 22.909 22.6272C22.8893 22.6939 22.8532 22.7547 22.804 22.804C22.7547 22.8532 22.6939 22.8893 22.6272 22.909C22.5604 22.9287 22.4897 22.9313 22.4217 22.9167H7.52583C7.51722 22.9169 7.50861 22.9169 7.5 22.9167C7.49139 22.9169 7.48278 22.9169 7.47417 22.9167C7.45608 22.9093 7.43854 22.9007 7.42167 22.8908C7.38594 22.8865 7.35092 22.8775 7.3175 22.8642C7.30853 22.8562 7.29991 22.8479 7.29167 22.8392C7.28306 22.8394 7.27444 22.8394 7.26583 22.8392C7.21021 22.7985 7.16555 22.7447 7.13583 22.6825C7.12655 22.674 7.11765 22.6651 7.10917 22.6558C7.1081 22.6386 7.1081 22.6214 7.10917 22.6042C7.09799 22.579 7.08933 22.5527 7.08333 22.5258C7.08226 22.5086 7.08226 22.4914 7.08333 22.4742V13.3333C7.08742 13.2976 7.0961 13.2626 7.10917 13.2292C7.07453 13.1289 7.07948 13.0191 7.123 12.9223C7.16651 12.8255 7.24532 12.749 7.34333 12.7083L8.75 11.6408V8.72417H12.6567L14.74 7.16167C14.7782 7.12782 14.8222 7.10126 14.87 7.08333ZM15 8.02083L14.0367 8.72417H15.9375L15 8.02083ZM9.58333 9.5575V13.9067L15 17.2917L20.4167 13.88V9.55833H9.58333V9.5575ZM12.0833 10.3908H17.9167V11.2758H12.0833V10.3917V10.3908ZM11.25 12.0833H18.75V12.9692H11.25V12.0833ZM8.75 12.6825L8.22917 13.0733L8.75 13.385V12.6825ZM21.25 12.7083V13.3592L21.745 13.0733L21.25 12.7083ZM12.9167 13.75H17.0833V14.6358H12.9167V13.75ZM22.0833 13.8283L21.25 14.3492L15.2083 18.125L15.1825 18.1508C15.1736 18.1511 15.1647 18.1511 15.1558 18.1508C15.1309 18.1622 15.105 18.1712 15.0783 18.1775C15.0448 18.1903 15.0098 18.1987 14.9742 18.2025C14.9561 18.1954 14.9386 18.187 14.9217 18.1775C14.9131 18.1778 14.9044 18.1778 14.8958 18.1775C14.8872 18.1778 14.8786 18.1778 14.87 18.1775C14.8519 18.1699 14.8343 18.1609 14.8175 18.1508C14.8089 18.1511 14.8003 18.1511 14.7917 18.1508L14.7658 18.125L8.75 14.375L7.91667 13.8542V21.7192L12.2658 18.8275C12.3343 18.7786 12.4159 18.7516 12.5 18.75C12.5874 18.7519 12.672 18.7812 12.7418 18.8338C12.8117 18.8864 12.8632 18.9596 12.8891 19.0431C12.915 19.1266 12.9139 19.2162 12.8861 19.2991C12.8583 19.382 12.8052 19.454 12.7342 19.505L8.88 22.0833H21.12L17.2658 19.505C17.1948 19.454 17.1417 19.382 17.1139 19.2991C17.0861 19.2162 17.085 19.1266 17.1109 19.0431C17.1368 18.9596 17.1883 18.8864 17.2582 18.8338C17.328 18.7812 17.4126 18.7519 17.5 18.75C17.5842 18.7519 17.6658 18.7792 17.7342 18.8283L22.0833 21.7183V13.8283Z" fill="white"/>
</g>
<defs>
<clipPath id="clip0_240_10884">
<rect width="30" height="30" fill="white"/>
</clipPath>
</defs>
</svg>
