<svg width="30" height="30" viewBox="0 0 30 30" fill="none" xmlns="http://www.w3.org/2000/svg">
<g clip-path="url(#clip0_269_8239)">
<path d="M15 0C6.71583 0 0 6.71583 0 15C0 23.2842 6.71583 30 15 30C23.2842 30 30 23.2842 30 15C30 6.71583 23.2842 0 15 0ZM7.37 10.495C7.38721 10.4939 7.40446 10.4939 7.42167 10.495C7.44857 10.501 7.47481 10.5097 7.5 10.5208L15 10.495H22.5783C22.6403 10.4939 22.7018 10.5066 22.7582 10.5323C22.8146 10.5579 22.8646 10.5959 22.9045 10.6433C22.9445 10.6907 22.9733 10.7464 22.9889 10.8064C23.0046 10.8664 23.0067 10.9291 22.995 10.99V20.4167C22.995 20.5272 22.9511 20.6332 22.873 20.7113C22.7948 20.7894 22.6888 20.8333 22.5783 20.8333H7.42167C7.31116 20.8333 7.20518 20.7894 7.12704 20.7113C7.0489 20.6332 7.005 20.5272 7.005 20.4167V10.9375C6.99759 10.831 7.03132 10.7258 7.09923 10.6434C7.16715 10.5611 7.26406 10.508 7.37 10.495ZM15 11.3283L8.88 11.3542L15 15.1825L21.1458 11.3283H15ZM7.83833 11.6667V20H22.1617V11.6667L15.2342 16.0158C15.1679 16.0574 15.0912 16.0794 15.0129 16.0794C14.9347 16.0794 14.858 16.0574 14.7917 16.0158L7.83833 11.6667Z" fill="white"/>
</g>
<defs>
<clipPath id="clip0_269_8239">
<rect width="30" height="30" fill="white"/>
</clipPath>
</defs>
</svg>
