<svg width="104" height="101" viewBox="0 0 104 101" fill="none" xmlns="http://www.w3.org/2000/svg">
<g clip-path="url(#clip0_839_1852)">
<ellipse cx="52" cy="51" rx="51" ry="47" fill="white" fill-opacity="0.5"/>
<path d="M56.8997 60.0675C63.663 60.0556 69.2373 61.3965 74.4828 64.0355C75.6151 64.5424 76.6239 65.2897 77.4397 66.2247C77.9564 66.8972 78.2398 68.3562 77.8505 68.9654C77.3896 69.6861 76.0779 70.2328 75.1653 70.1944C74.074 70.1501 72.9417 69.5232 71.9498 68.94C64.247 64.4097 56.0498 63.8873 47.5524 65.867C43.0277 66.9207 39.4752 69.5415 36.5487 73.0804C36.2221 73.4752 35.9325 73.9027 35.6068 74.2976C34.9241 75.1219 34.2644 76.4303 33.006 75.5708C31.7736 74.7302 32.0794 73.3397 32.7648 72.2176C35.6451 67.496 39.6016 64.0545 44.8494 62.1735C48.7334 60.8511 52.7985 60.1407 56.8997 60.0675Z" fill="#4C3D53"/>
<path d="M35.1524 50.8604C32.1814 50.7227 29.5049 49.7325 27.4758 47.3326C26.6188 46.3178 25.9428 45.0924 27.0902 44.0185C28.2047 42.9749 29.188 43.8455 30.0832 44.7417C33.8192 48.479 38.6454 47.3185 40.413 42.2897C40.6564 41.5978 40.8822 40.8984 41.1613 40.2221C41.6014 39.1582 42.4566 38.3662 43.5337 38.8577C43.9201 39.0765 44.2532 39.3787 44.5089 39.7423C44.7647 40.1059 44.9367 40.5219 45.0125 40.9603C45.1553 42.3572 44.9463 43.7676 44.4048 45.0626C43.8632 46.3576 43.0064 47.4959 41.9125 48.3731C39.9869 50 37.7197 50.7134 35.1524 50.8604Z" fill="#4C3D53"/>
<path d="M68.696 47.7465C66.9702 47.5865 65.3076 47.0113 63.8504 46.0696C62.3931 45.1279 61.1842 43.8477 60.3261 42.3375C59.7681 41.3121 59.5088 40.1501 59.5778 38.984C59.6091 38.331 60.4383 37.3073 61.0347 37.2094C61.5919 37.1158 62.6632 37.8888 62.8987 38.5115C63.5197 40.1577 64.3283 41.5291 65.8672 42.4478C68.568 44.0601 70.31 43.595 71.7419 40.8151C72.897 38.5736 74.0143 37.8209 75.3045 38.4148C76.5109 38.9703 76.797 40.5496 76.0917 42.7668C75.1063 45.8705 72.5927 47.7236 68.696 47.7465Z" fill="#4C3D53"/>
<path d="M26.8277 33.9245C25.5105 33.2758 24.2348 32.5459 23.0077 31.7391C22.6766 31.4986 22.6859 30.4965 22.873 29.9608C22.961 29.7138 23.9293 29.5266 24.3598 29.6881C28.6455 31.3022 31.8136 29.1846 34.7974 26.576C35.6662 25.8163 36.2714 24.7595 37.0333 23.8695C37.7816 22.9963 38.683 22.1928 39.8503 22.987C40.9925 23.7658 40.6558 24.966 40.1452 25.9605C38.0791 29.9846 34.5056 31.9668 30.3101 33.0257C29.2511 33.2931 28.1534 33.3998 27.0719 33.5808C26.9901 33.6952 26.9087 33.8097 26.8277 33.9245Z" fill="#4C3D53"/>
<path d="M72.6967 31.33C68.8117 31.0556 65.628 29.7804 63.1896 26.9591C62.6303 26.3819 62.2204 25.6764 61.9955 24.9039C61.8757 24.3161 62.1359 23.3228 62.5703 23.0418C63.0047 22.7607 64.1724 22.9032 64.4801 23.2902C67.0326 26.5015 70.438 27.2874 74.284 27.129C75.4189 27.0823 76.598 27.4168 76.676 28.8428C76.7482 30.1577 75.8005 30.7842 74.6357 31.0446C73.9265 31.2034 73.1959 31.2595 72.6967 31.33Z" fill="#4C3D53"/>
<path d="M2.14123 36.4738C-2.41516 54.4264 1.57476 70.264 14.0085 83.5517C14.3324 83.8951 14.662 84.2385 14.9922 84.5695C21.6709 91.2648 29.9901 95.3986 36.5822 98.2755C39.411 99.5136 53.9283 101.018 57.8557 100.432C81.1979 96.9371 96.5594 83.7393 101.909 61.6588C102.931 57.3335 103.44 52.9026 103.425 48.4578C103.45 37.9872 99.0521 25.8144 89.9827 16.6975C89.0493 15.9235 88.1191 15.1218 87.2189 14.3448C85.2676 12.6633 83.2506 10.9222 81.1407 9.43746C65.022 -1.93545 48.2751 -1.99909 31.3656 4.03174C16.0556 9.48854 6.22358 20.4057 2.14123 36.4738ZM31.4311 9.40742C46.2676 3.22697 61.1537 2.13623 75.6723 11.3929C78.3275 13.0873 85.4047 18.8217 86.5188 19.683L86.5903 19.7359L86.6495 19.8017C92.3136 25.8232 98.7999 36.8335 98.6569 48.1517C98.6095 52.9911 97.9562 57.8054 96.7115 62.4816C93.0234 75.92 84.2061 85.7137 69.756 92.4123C55.0661 99.4634 33.9989 92.3347 28.3937 88.6258C22.1981 84.3792 16.7771 79.0966 12.3676 73.0086C5.452 63.1934 3.90005 49.0843 7.61402 36.1865C9.35336 30.2312 12.3929 24.7386 16.5122 20.1068C20.6315 15.475 25.7274 11.8202 31.4303 9.40742H31.4311Z" fill="#D9D9D9"/>
</g>
<defs>
<clipPath id="clip0_839_1852">
<rect width="104" height="101" fill="white"/>
</clipPath>
</defs>
</svg>
