<svg width="24" height="24" viewBox="0 0 24 24" fill="none" xmlns="http://www.w3.org/2000/svg">
<path d="M16 9.5V6C16 4.93913 15.5786 3.92172 14.8284 3.17157C14.0783 2.42143 13.0609 2 12 2C10.9391 2 9.92172 2.42143 9.17157 3.17157C8.42143 3.92172 8 4.93913 8 6V9.5C7.33696 9.5 6.70107 9.76339 6.23223 10.2322C5.76339 10.7011 5.5 11.337 5.5 12V19C5.5 19.663 5.76339 20.2989 6.23223 20.7678C6.70107 21.2366 7.33696 21.5 8 21.5H16C16.663 21.5 17.2989 21.2366 17.7678 20.7678C18.2366 20.2989 18.5 19.663 18.5 19V12C18.5 11.337 18.2366 10.7011 17.7678 10.2322C17.2989 9.76339 16.663 9.5 16 9.5ZM13 16.72V17C13 17.2652 12.8946 17.5196 12.7071 17.7071C12.5196 17.8946 12.2652 18 12 18C11.7348 18 11.4804 17.8946 11.2929 17.7071C11.1054 17.5196 11 17.2652 11 17V16.72C10.6977 16.5455 10.4464 16.2949 10.2709 15.9932C10.0955 15.6914 10.0021 15.349 10 15C10 14.4696 10.2107 13.9609 10.5858 13.5858C10.9609 13.2107 11.4696 13 12 13C12.5304 13 13.0391 13.2107 13.4142 13.5858C13.7893 13.9609 14 14.4696 14 15C13.9979 15.349 13.9045 15.6914 13.7291 15.9932C13.5536 16.2949 13.3023 16.5455 13 16.72ZM14 9.5H10V6C10 5.46957 10.2107 4.96086 10.5858 4.58579C10.9609 4.21071 11.4696 4 12 4C12.5304 4 13.0391 4.21071 13.4142 4.58579C13.7893 4.96086 14 5.46957 14 6V9.5Z" fill="#929292"/>
</svg>
