<svg width="41" height="41" viewBox="0 0 41 41" fill="none" xmlns="http://www.w3.org/2000/svg">
<path d="M20.5 26.9062C25.7986 26.9062 30.1094 21.4462 30.1094 14.7344C30.1094 8.02255 25.7986 2.5625 20.5 2.5625C15.2014 2.5625 10.8906 8.02255 10.8906 14.7344C10.8906 21.4462 15.2014 26.9062 20.5 26.9062ZM20.5 5.125C24.32 5.125 27.5469 9.52545 27.5469 14.7344C27.5469 19.9433 24.32 24.3438 20.5 24.3438C16.68 24.3438 13.4531 19.9433 13.4531 14.7344C13.4531 9.52545 16.68 5.125 20.5 5.125Z" fill="white"/>
<path d="M2.62812 29.0632L0.065618 36.7507C0.00150551 36.9433 -0.0159521 37.1483 0.0146821 37.349C0.0453163 37.5497 0.123166 37.7402 0.241825 37.9049C0.360483 38.0696 0.516558 38.2037 0.697202 38.2963C0.877846 38.3889 1.07789 38.4373 1.28088 38.4374H39.7184C40.1303 38.4374 40.5172 38.2395 40.7575 37.9051C40.8764 37.7404 40.9543 37.5499 40.985 37.3492C41.0156 37.1484 40.998 36.9433 40.9336 36.7507L38.3711 29.0632C38.3052 28.8656 38.1921 28.6872 38.0416 28.5432C37.8911 28.3992 37.7078 28.294 37.5076 28.2368L28.5388 25.6743C28.2307 25.5856 27.9004 25.6162 27.6138 25.7601L20.4996 29.3175L13.3855 25.7601C13.0988 25.6165 12.7686 25.5859 12.4604 25.6743L3.49168 28.2368C3.29141 28.294 3.1081 28.3991 2.95763 28.5431C2.80715 28.6871 2.69405 28.8656 2.62812 29.0632ZM12.6853 28.2752L19.9269 31.896C20.1049 31.9848 20.3011 32.031 20.5 32.031C20.6988 32.031 20.895 31.9848 21.073 31.896L28.3146 28.2752L36.1546 30.5148L37.9413 35.8749H3.05798L4.84468 30.5148L12.6853 28.2752Z" fill="white"/>
</svg>
