<svg width="44" height="44" viewBox="0 0 44 44" fill="none" xmlns="http://www.w3.org/2000/svg">
<path d="M20.915 33.7275C20.0879 33.7275 19.4434 33.2227 19.2607 32.4277L18.7881 30.4189L18.4443 30.3008L16.7041 31.375C16.0059 31.8047 15.1895 31.708 14.5986 31.1172L13.1055 29.624C12.5146 29.0332 12.4072 28.2168 12.8477 27.5293L13.9326 25.7891L13.8145 25.4668L11.8057 24.9941C11.0215 24.8115 10.5059 24.1562 10.5059 23.3398V21.2129C10.5059 20.3965 11.0107 19.752 11.8057 19.5586L13.793 19.0752L13.9219 18.7314L12.8369 16.9912C12.3965 16.3037 12.4932 15.498 13.0947 14.8965L14.5879 13.3926C15.168 12.8125 15.9844 12.7051 16.6826 13.1348L18.4229 14.209L18.7881 14.0693L19.2607 12.0605C19.4434 11.2656 20.0879 10.7607 20.915 10.7607H23.085C23.9121 10.7607 24.5566 11.2656 24.7393 12.0605L25.2012 14.0693L25.5664 14.209L27.3174 13.1348C28.0156 12.7051 28.8213 12.8125 29.4014 13.3926L30.9053 14.8965C31.5068 15.498 31.5928 16.3037 31.1631 16.9912L30.0674 18.7314L30.207 19.0752L32.1943 19.5586C32.9893 19.752 33.4941 20.3965 33.4941 21.2129V23.3398C33.4941 24.1562 32.9785 24.8115 32.1943 24.9941L30.1855 25.4668L30.0566 25.7891L31.1523 27.5293C31.582 28.2168 31.4854 29.0332 30.8945 29.624L29.3906 31.1172C28.7998 31.708 27.9941 31.8047 27.2959 31.375L25.5449 30.3008L25.2012 30.4189L24.7393 32.4277C24.5566 33.2227 23.9121 33.7275 23.085 33.7275H20.915ZM21.0869 32.0518H22.9131C23.0957 32.0518 23.1924 31.9766 23.2139 31.8047L23.8691 29.1406C24.5244 28.9795 25.126 28.7217 25.5879 28.4316L27.9297 29.8711C28.0693 29.9678 28.209 29.957 28.3379 29.8174L29.5947 28.5498C29.7236 28.4316 29.7236 28.3027 29.6377 28.1523L28.1982 25.832C28.4561 25.3809 28.7246 24.7686 28.8965 24.1133L31.5713 23.4795C31.7324 23.4473 31.8184 23.3506 31.8184 23.168V21.374C31.8184 21.1807 31.7432 21.0947 31.5713 21.0625L28.9072 20.418C28.7354 19.7197 28.4238 19.0859 28.2197 18.6885L29.6484 16.3682C29.7451 16.207 29.7451 16.0781 29.6162 15.9492L28.3486 14.7031C28.209 14.5742 28.1016 14.5635 27.9297 14.6494L25.5986 16.0674C25.1152 15.8096 24.5352 15.541 23.8691 15.3691L23.2139 12.6836C23.1924 12.5117 23.0957 12.4365 22.9131 12.4365H21.0869C20.9043 12.4365 20.8076 12.5117 20.7754 12.6836L20.1416 15.3477C19.4971 15.5303 18.8418 15.7988 18.3799 16.0566L16.0596 14.6494C15.8984 14.5635 15.7803 14.5742 15.6514 14.7031L14.373 15.9492C14.2549 16.0781 14.2441 16.207 14.3408 16.3682L15.7695 18.6885C15.5762 19.0859 15.2539 19.7197 15.082 20.418L12.4287 21.0625C12.2461 21.0947 12.1816 21.1807 12.1816 21.374V23.168C12.1816 23.3506 12.2568 23.4473 12.4287 23.4795L15.0928 24.1133C15.2646 24.7686 15.5439 25.3809 15.791 25.832L14.3516 28.1523C14.2656 28.3027 14.2764 28.4316 14.3945 28.5498L15.6621 29.8174C15.7803 29.957 15.9307 29.9678 16.0596 29.8711L18.4014 28.4316C18.8633 28.7217 19.4756 28.9795 20.1309 29.1406L20.7754 31.8047C20.8076 31.9766 20.9043 32.0518 21.0869 32.0518ZM22 26.3369C19.7334 26.3369 17.9072 24.5107 17.9072 22.2441C17.9072 19.9775 19.7334 18.1514 22 18.1514C24.2666 18.1514 26.0928 19.9775 26.0928 22.2441C26.0928 24.5107 24.2666 26.3369 22 26.3369ZM22 24.6719C23.3428 24.6719 24.4277 23.5869 24.4277 22.2441C24.4277 20.9014 23.3428 19.8164 22 19.8164C20.6572 19.8164 19.5723 20.9014 19.5723 22.2441C19.5723 23.5869 20.6572 24.6719 22 24.6719Z" fill="#EBEBED"/>
</svg>
