<svg width="45" height="44" viewBox="0 0 45 44" fill="none" xmlns="http://www.w3.org/2000/svg">
<path d="M33 28.6875V31.5625C33 32.3574 32.3854 33 31.625 33H28.875C28.875 32.6188 28.7301 32.2531 28.4723 31.9835C28.2144 31.714 27.8647 31.5625 27.5 31.5625C27.1353 31.5625 26.7856 31.714 26.5277 31.9835C26.2699 32.2531 26.125 32.6188 26.125 33H23.375C23.375 32.6188 23.2301 32.2531 22.9723 31.9835C22.7144 31.714 22.3647 31.5625 22 31.5625C21.6353 31.5625 21.2856 31.714 21.0277 31.9835C20.7699 32.2531 20.625 32.6188 20.625 33H17.875C17.875 32.6188 17.7301 32.2531 17.4723 31.9835C17.2144 31.714 16.8647 31.5625 16.5 31.5625C16.1353 31.5625 15.7856 31.714 15.5277 31.9835C15.2699 32.2531 15.125 32.6188 15.125 33H12.375C11.6146 33 11 32.3574 11 31.5625V28.6875C11.7604 28.6875 12.375 28.0449 12.375 27.25C12.375 26.8688 12.2301 26.5031 11.9723 26.2335C11.7144 25.964 11.3647 25.8125 11 25.8125V22.9375C11.7604 22.9375 12.375 22.2949 12.375 21.5C12.375 21.1188 12.2301 20.7531 11.9723 20.4835C11.7144 20.214 11.3647 20.0625 11 20.0625V17.1875C11.7604 17.1875 12.375 16.5449 12.375 15.75C12.375 15.3688 12.2301 15.0031 11.9723 14.7335C11.7144 14.464 11.3647 14.3125 11 14.3125V11.4375C11 11.0563 11.1449 10.6906 11.4027 10.421C11.6606 10.1515 12.0103 10 12.375 10H15.125C15.125 10.7949 15.7396 11.4375 16.5 11.4375C17.2604 11.4375 17.875 10.7949 17.875 10H20.625C20.625 10.7949 21.2396 11.4375 22 11.4375C22.7604 11.4375 23.375 10.7949 23.375 10H26.125C26.125 10.7949 26.7396 11.4375 27.5 11.4375C28.2604 11.4375 28.875 10.7949 28.875 10H31.625C31.9897 10 32.3394 10.1515 32.5973 10.421C32.8551 10.6906 33 11.0563 33 11.4375V14.3125C32.6353 14.3125 32.2856 14.464 32.0277 14.7335C31.7699 15.0031 31.625 15.3688 31.625 15.75C31.625 16.5449 32.2396 17.1875 33 17.1875V20.0625C32.6353 20.0625 32.2856 20.214 32.0277 20.4835C31.7699 20.7531 31.625 21.1188 31.625 21.5C31.625 22.2949 32.2396 22.9375 33 22.9375V25.8125C32.6353 25.8125 32.2856 25.964 32.0277 26.2335C31.7699 26.5031 31.625 26.8688 31.625 27.25C31.625 28.0449 32.2396 28.6875 33 28.6875ZM30.25 12.875H13.75V30.125H30.25V12.875ZM28.875 28.6875H15.125V14.3125H28.875V28.6875ZM27.5 15.75H16.5V27.25H27.5V15.75Z" fill="#EBEBED"/>
</svg>
