<svg width="22" height="22" viewBox="0 0 22 22" fill="none" xmlns="http://www.w3.org/2000/svg">
<path d="M11 1.83325C9.18699 1.83325 7.41471 2.37087 5.90726 3.37811C4.39981 4.38536 3.22489 5.817 2.53109 7.49199C1.83728 9.16698 1.65575 11.0101 2.00945 12.7882C2.36315 14.5664 3.23619 16.1997 4.51817 17.4817C5.80015 18.7637 7.4335 19.6368 9.21166 19.9905C10.9898 20.3441 12.8329 20.1626 14.5079 19.4688C16.1829 18.775 17.6145 17.6001 18.6218 16.0926C19.629 14.5852 20.1666 12.8129 20.1666 10.9999C20.1666 9.79613 19.9295 8.60414 19.4689 7.49199C19.0082 6.37984 18.333 5.36931 17.4818 4.51811C16.6306 3.6669 15.6201 2.99169 14.5079 2.53102C13.3958 2.07035 12.2038 1.83325 11 1.83325ZM15.3175 8.90075L10.7342 13.4841C10.6489 13.57 10.5476 13.6382 10.4358 13.6847C10.3241 13.7313 10.2043 13.7552 10.0833 13.7552C9.96231 13.7552 9.84249 13.7313 9.73079 13.6847C9.61908 13.6382 9.5177 13.57 9.43248 13.4841L7.59915 11.6508C7.42654 11.4781 7.32957 11.244 7.32957 10.9999C7.32957 10.7558 7.42654 10.5217 7.59915 10.3491C7.77176 10.1765 8.00587 10.0795 8.24998 10.0795C8.49409 10.0795 8.7282 10.1765 8.90082 10.3491L10.0833 11.5408L14.0158 7.59909C14.1884 7.42647 14.4225 7.3295 14.6667 7.3295C14.9108 7.3295 15.1449 7.42647 15.3175 7.59909C15.4901 7.7717 15.5871 8.00581 15.5871 8.24992C15.5871 8.49403 15.4901 8.72814 15.3175 8.90075Z" fill="#929292"/>
</svg>
